<?xml version="1.0" encoding="UTF-8"?>
<svg id="Layer_2" data-name="Layer 2" xmlns="http://www.w3.org/2000/svg" viewBox="0 0 24.81 24.79">
  <defs>
    <style>
      .cls-1 {
        fill: #fff;
      }
    </style>
  </defs>
  <g id="Layer_1-2" data-name="Layer 1">
    <path class="cls-1" d="m12.41,0C5.56,0,0,5.55,0,12.39s5.56,12.4,12.41,12.4,12.4-5.55,12.4-12.4S19.25,0,12.41,0Zm6.81,10.98c-.46,0-.92-.07-1.36-.17-.77-.17-1.49-.49-2.15-.92-.03-.02-.07-.07-.11-.05-.05.02-.02.08-.02.12,0,1.78,0,3.56,0,5.34,0,1.24-.4,2.36-1.22,3.3-.87,1.01-1.96,1.6-3.28,1.75-1.02.13-1.98-.06-2.9-.51-.15-.07-.29-.16-.42-.25-.04-.04-.08-.08-.13-.11-.1-.04-.18-.11-.26-.18-.82-.64-1.4-1.47-1.71-2.46-.11-.34-.18-.7-.21-1.06-.02-.27-.03-.53-.01-.79.04-.61.18-1.19.43-1.74.26-.57.61-1.08,1.07-1.53.52-.51,1.13-.9,1.83-1.15.43-.15.88-.25,1.34-.28.33-.02.66-.01,1,.02.04,0,.07.01.07.07,0,.18,0,.36,0,.55,0,0,.03,1.4.03,2.04,0,.02,0,.05,0,.07,0,.07-.04.08-.09.07-.17-.05-.36-.07-.54-.08-.28-.01-.57.02-.82.12-.89.33-1.42.96-1.53,1.89-.11.92.25,1.64,1.01,2.18.06.04.13.08.19.14l.04.04c.18.07.36.14.54.18.6.11,1.16.02,1.69-.3.6-.37.95-.91,1.07-1.6.02-.13.03-.26.03-.4V4.56c0-.16-.02-.14.14-.14h2.53q.08,0,.08.08c0,.19.08.64.08.67.36,1.81,2.46,2.91,3.11,3.01.18.02.36.04.54.04q.07,0,.07.07c0,.17.04,1.9.04,2.53,0,.14-.02.15-.17.15Z"/>
  </g>
</svg>