<?xml version="1.0" encoding="UTF-8"?>
<svg id="Layer_2" data-name="Layer 2" xmlns="http://www.w3.org/2000/svg" viewBox="0 0 24.8 24.79">
  <defs>
    <style>
      .cls-1 {
        fill: #fff;
      }
    </style>
  </defs>
  <g id="Layer_1-2" data-name="Layer 1">
    <g>
      <path class="cls-1" d="m15,12.4c0,1.44-1.17,2.61-2.6,2.61s-2.61-1.17-2.61-2.61,1.17-2.6,2.61-2.6,2.6,1.17,2.6,2.6Z"/>
      <path class="cls-1" d="m18.76,9.24c-.04-.76-.16-1.17-.27-1.45-.14-.36-.31-.62-.58-.9-.28-.27-.54-.44-.9-.58-.28-.1-.69-.23-1.45-.27-.83-.04-1.07-.05-3.15-.05s-2.34.01-3.16.05c-.76.04-1.17.16-1.45.27-.36.14-.63.31-.9.58-.28.28-.44.54-.58.9-.1.28-.23.69-.27,1.45-.04.83-.04,1.07-.04,3.15s0,2.33.04,3.16c.04.76.17,1.17.27,1.45.14.36.31.63.58.89.27.28.54.45.9.59.28.1.69.23,1.45.27.83.04,1.08.04,3.16.04s2.33,0,3.15-.04c.76-.04,1.17-.17,1.45-.27.36-.14.62-.31.9-.59.27-.27.43-.53.58-.89.11-.28.23-.69.27-1.45.04-.83.05-1.07.05-3.16s-.01-2.33-.05-3.15Zm-6.35,7.16c-2.22,0-4.01-1.8-4.01-4.01s1.79-4,4.01-4,4,1.79,4,4-1.79,4.01-4,4.01Zm4.16-7.24c-.52,0-.94-.42-.94-.93s.42-.94.94-.94.93.42.93.94-.42.93-.93.93Z"/>
      <path class="cls-1" d="m12.41,0C5.56,0,0,5.55,0,12.39s5.56,12.4,12.41,12.4,12.39-5.55,12.39-12.4S19.24,0,12.41,0Zm7.75,15.62c-.04.83-.17,1.4-.36,1.89-.2.52-.47.95-.9,1.39s-.87.7-1.39.9c-.49.19-1.06.32-1.89.36s-1.1.05-3.21.05-2.39-.01-3.22-.05-1.4-.17-1.89-.36c-.52-.2-.95-.47-1.39-.9-.43-.43-.7-.87-.9-1.39-.19-.49-.33-1.06-.36-1.89-.04-.83-.04-1.1-.04-3.22s0-2.38.04-3.21c.04-.83.17-1.4.36-1.9.2-.51.47-.95.9-1.39.43-.43.87-.7,1.39-.9.49-.19,1.06-.33,1.89-.36.83-.04,1.1-.05,3.22-.05s2.38,0,3.21.05c.83.04,1.4.17,1.89.36.52.2.95.46,1.39.9.43.44.7.87.9,1.39.19.5.33,1.07.36,1.9.04.83.05,1.1.05,3.21s0,2.39-.05,3.22Z"/>
    </g>
  </g>
</svg>