<?xml version="1.0" encoding="utf-8"?>
<!-- Generator: Adobe Illustrator 28.0.0, SVG Export Plug-In . SVG Version: 6.00 Build 0)  -->
<svg version="1.1" id="Layer_2_00000074409513312110118100000009421413236933078418_"
	 xmlns="http://www.w3.org/2000/svg" xmlns:xlink="http://www.w3.org/1999/xlink" x="0px" y="0px" viewBox="0 0 24.8 24.8"
	 style="enable-background:new 0 0 24.8 24.8;" xml:space="preserve">
<style type="text/css">
	.st0{fill:#FFFFFF;}
</style>
<g>
	<g>
		<path class="st0" d="M12.4,0C5.6,0,0,5.6,0,12.4c0,6.8,5.5,12.4,12.4,12.4c6.8,0,12.4-5.5,12.4-12.4C24.8,5.6,19.2,0,12.4,0z
			 M15.3,19.7l-0.3-0.4L11.4,14l-4.9,5.7H5.3l5.6-6.5L6.3,6.6l-1-1.5h4.2l0.3,0.4l3.4,5l3.6-4.2l1-1.2H19l-5.3,6.2l4.8,7l1,1.5H15.3
			z M12.5,11.2L9,6H7.1l4.4,6.4l0.5,0.8l3.8,5.5h1.9L13.1,12L12.5,11.2z"/>
	</g>
</g>
</svg>
