<?xml version="1.0" encoding="UTF-8"?>
<svg id="Layer_2" data-name="Layer 2" xmlns="http://www.w3.org/2000/svg" viewBox="0 0 24.8 24.79">
  <defs>
    <style>
      .cls-1 {
        fill: #fff;
      }
    </style>
  </defs>
  <g id="Layer_1-2" data-name="Layer 1">
    <g>
      <polygon class="cls-1" points="10.75 9.92 15.04 12.4 10.75 14.88 10.75 9.92"/>
      <path class="cls-1" d="m12.39,0C5.55,0,0,5.55,0,12.39s5.55,12.4,12.39,12.4,12.41-5.55,12.41-12.4S19.24,0,12.39,0Zm7.92,16.38c-.19.71-.75,1.27-1.46,1.46-1.29.34-6.47.34-6.47.34,0,0-5.16,0-6.45-.34-.71-.19-1.28-.75-1.46-1.46-.35-1.29-.35-3.98-.35-3.98,0,0,0-2.69.35-3.98.18-.71.75-1.27,1.46-1.46,1.29-.35,6.45-.35,6.45-.35,0,0,5.18,0,6.47.35.71.19,1.27.75,1.46,1.46.35,1.29.35,3.98.35,3.98,0,0,0,2.69-.35,3.98Z"/>
    </g>
  </g>
</svg>