<?xml version="1.0" encoding="UTF-8"?>
<svg id="Layer_2" data-name="Layer 2" xmlns="http://www.w3.org/2000/svg" viewBox="0 0 52.4 51.89">
  <defs>
    <style>
      .cls-1 {
        fill: #1c4580;
        stroke-width: 0px;
      }
    </style>
  </defs>
  <g id="Layer_1-2" data-name="Layer 1">
    <g id="_1912_Chart_Data_Efficiency_Management_Person" data-name="1912, Chart, Data, Efficiency, Management, Person">
      <g>
        <path class="cls-1" d="M15.18,14.41c2.57-1.19,4.46-3.82,4.46-6.87,0-4.15-3.43-7.55-7.63-7.55s-7.63,3.39-7.63,7.55c0,3.05,1.8,5.68,4.46,6.87C3.77,15.6,0,19.59,0,24.33v9.16c0,.59.51,1.1,1.11,1.1h4.37v16.19c0,.59.51,1.1,1.11,1.1s1.12-.51,1.12-1.1v-20.52c0-.59-.51-1.1-1.12-1.1s-1.11.51-1.11,1.1v2.12h-3.26v-8.14c0-4.49,4.37-8.14,9.86-8.14s9.86,3.65,9.86,8.14v8.14h-3.26v-2.12c0-.59-.51-1.1-1.11-1.1s-1.12.51-1.12,1.1v20.52c0,.59.51,1.1,1.12,1.1s1.11-.51,1.11-1.1v-16.19h4.37c.6,0,1.11-.51,1.11-1.1v-9.16c-.17-4.75-3.95-8.73-9.01-9.92ZM6.52,7.55c0-2.97,2.49-5.43,5.49-5.43s5.49,2.46,5.49,5.43-2.49,5.43-5.49,5.43-5.49-2.46-5.49-5.43Z"/>
        <path class="cls-1" d="M11.92,37.81c-.6,0-1.11.51-1.11,1.1v11.87c0,.59.51,1.1,1.11,1.1s1.11-.51,1.11-1.1v-11.87c0-.59-.51-1.1-1.11-1.1Z"/>
        <rect class="cls-1" x="10.89" y="23.82" width="2.14" height="2.12"/>
        <path class="cls-1" d="M39.28,25.94c-7.2,0-13.12,5.85-13.12,12.97s5.92,12.97,13.12,12.97,13.12-5.85,13.12-12.97-5.92-12.97-13.12-12.97ZM50.17,37.81h-9.78v-9.67c5.15.51,9.26,4.58,9.78,9.67ZM28.3,38.92c0-5.6,4.29-10.17,9.86-10.77v10.77c0,.17,0,.25.09.42,0,.08-.34-.51,5.32,9.5-1.29.59-2.83.85-4.29.85-6,0-10.98-4.83-10.98-10.77ZM45.54,47.82l-4.37-7.8h9.01c-.34,3.22-2.14,6.02-4.63,7.8Z"/>
        <path class="cls-1" d="M31.65,7.55h15.27c.6,0,1.11-.51,1.11-1.1s-.51-1.1-1.11-1.1h-15.27c-.6,0-1.11.51-1.11,1.1,0,.68.51,1.1,1.11,1.1Z"/>
        <path class="cls-1" d="M31.65,14.07h10.89c.6,0,1.11-.51,1.11-1.1s-.51-1.1-1.11-1.1h-10.89c-.6,0-1.11.51-1.11,1.1s.51,1.1,1.11,1.1Z"/>
        <path class="cls-1" d="M31.65,20.52h15.27c.6,0,1.11-.51,1.11-1.1s-.51-1.1-1.11-1.1h-15.27c-.6,0-1.11.51-1.11,1.1,0,.68.51,1.1,1.11,1.1Z"/>
      </g>
    </g>
  </g>
</svg>