<svg width="60" height="60" viewBox="0 0 60 60" fill="none" xmlns="http://www.w3.org/2000/svg">
<g clip-path="url(#clip0_862_8714)">
<path d="M41.7152 48.5294H7.95579C5.80884 48.5294 4 46.6867 4 44.5229V25.2849C4 23.1379 5.80884 21.3291 7.95579 21.3291H41.7152C43.8622 21.3291 45.671 23.1379 45.671 25.2849V44.5229C45.671 46.7036 43.8622 48.5294 41.7152 48.5294ZM7.95579 23.3408C6.92458 23.3408 6.0117 24.2537 6.0117 25.2849V44.5229C6.0117 45.6048 6.90767 46.5346 7.95579 46.5346H41.7152C42.7633 46.5346 43.6593 45.6217 43.6593 44.5229V25.2849C43.6593 24.2537 42.7464 23.3408 41.7152 23.3408H7.95579Z" fill="#023F87"/>
<path d="M25.4189 39.6879H9.61263C9.05477 39.6879 8.61523 39.2484 8.61523 38.6905C8.61523 38.1326 9.07167 37.6931 9.61263 37.6931H25.4358C25.9937 37.6931 26.4332 38.1326 26.4332 38.6905C26.4332 39.2484 25.9767 39.6879 25.4358 39.6879H25.4189Z" fill="#023F87"/>
<path d="M18.9949 43.8127H9.61263C9.05477 43.8127 8.61523 43.3731 8.61523 42.8153C8.61523 42.2574 9.07167 41.8179 9.61263 41.8179H18.9949C19.5528 41.8179 19.9923 42.2574 19.9923 42.8153C19.9923 43.3731 19.5359 43.8127 18.9949 43.8127Z" fill="#023F87"/>
<path d="M9.54476 34.4813C8.98689 34.4813 8.54736 34.0417 8.54736 33.4839V31.7088C8.54736 31.151 9.0038 30.7114 9.54476 30.7114C10.0857 30.7114 10.5422 31.151 10.5422 31.7088V33.4839C10.5422 34.0417 10.0857 34.4813 9.54476 34.4813Z" fill="#023F87"/>
<path d="M13.974 34.4813C13.4161 34.4813 12.9766 34.0417 12.9766 33.4839V31.7088C12.9766 31.151 13.433 30.7114 13.974 30.7114C14.5149 30.7114 14.9714 31.151 14.9714 31.7088V33.4839C14.9714 34.0417 14.5149 34.4813 13.974 34.4813Z" fill="#023F87"/>
<path d="M18.4032 34.4813C17.8453 34.4813 17.4058 34.0417 17.4058 33.4839V31.7088C17.4058 31.151 17.8622 30.7114 18.4032 30.7114C18.9441 30.7114 19.4006 31.151 19.4006 31.7088V33.4839C19.4006 34.0417 18.9441 34.4813 18.4032 34.4813Z" fill="#023F87"/>
<path d="M22.8324 34.4813C22.2745 34.4813 21.835 34.0417 21.835 33.4839V31.7088C21.835 31.151 22.2914 30.7114 22.8324 30.7114C23.3733 30.7114 23.8298 31.151 23.8298 31.7088V33.4839C23.8298 34.0417 23.3733 34.4813 22.8324 34.4813Z" fill="#023F87"/>
<path d="M27.2616 34.4813C26.7037 34.4813 26.2642 34.0417 26.2642 33.4839V31.7088C26.2642 31.151 26.7206 30.7114 27.2616 30.7114C27.8025 30.7114 28.259 31.151 28.259 31.7088V33.4839C28.259 34.0417 27.8025 34.4813 27.2616 34.4813Z" fill="#023F87"/>
<path d="M40.5995 34.4813C40.0416 34.4813 39.6021 34.0417 39.6021 33.4839V31.7088C39.6021 31.151 40.0585 30.7114 40.5995 30.7114C41.1404 30.7114 41.5968 31.151 41.5968 31.7088V33.4839C41.5968 34.0417 41.1404 34.4813 40.5995 34.4813Z" fill="#023F87"/>
<path d="M31.6737 34.4813C31.1158 34.4813 30.6763 34.0417 30.6763 33.4839V31.7088C30.6763 31.151 31.1327 30.7114 31.6737 30.7114C32.2146 30.7114 32.6711 31.151 32.6711 31.7088V33.4839C32.6711 34.0417 32.2146 34.4813 31.6737 34.4813Z" fill="#023F87"/>
<path d="M36.1029 34.4813C35.545 34.4813 35.1055 34.0417 35.1055 33.4839V31.7088C35.1055 31.151 35.5619 30.7114 36.1029 30.7114C36.6438 30.7114 37.1003 31.151 37.1003 31.7088V33.4839C37.1003 34.0417 36.6438 34.4813 36.1029 34.4813Z" fill="#023F87"/>
<path d="M51.9764 38.2003H49.204C48.6461 38.2003 48.2066 37.7607 48.2066 37.2029C48.2066 36.645 48.663 36.2055 49.204 36.2055H51.9764C53.0583 36.2055 53.9881 35.3095 53.9881 34.2614V15.0065C53.9881 13.9077 53.0921 12.9948 51.9764 12.9948H18.2846C17.2027 12.9948 16.3405 13.8908 16.3405 15.0065V17.7789C16.3405 18.3368 15.8841 18.7763 15.3431 18.7763C14.8021 18.7763 14.3457 18.3368 14.3457 17.7789V15.0065C14.3457 12.7919 16.1207 11 18.3015 11H52.0102C54.2248 11 56.0167 12.7919 56.0167 15.0065V34.2445C56.0167 36.3914 54.174 38.2003 52.0102 38.2003H51.9764Z" fill="#023F87"/>
<path d="M38.3511 43.8128C36.6944 43.8128 35.2744 42.4097 35.2744 40.753C35.2744 39.0963 36.6775 37.6763 38.3511 37.6763C40.0247 37.6763 41.4279 39.0456 41.4279 40.753C41.4279 42.4604 40.0585 43.8128 38.3511 43.8128ZM38.3511 39.688C37.7933 39.688 37.2861 40.1782 37.2861 40.753C37.2861 41.3278 37.7764 41.818 38.3511 41.818C38.9428 41.818 39.4162 41.3447 39.4162 40.753C39.4162 40.1613 38.9428 39.688 38.3511 39.688Z" fill="#023F87"/>
<path d="M34.2261 43.8128C32.5694 43.8128 31.1494 42.4097 31.1494 40.753C31.1494 39.0963 32.5525 37.6763 34.2261 37.6763C35.8997 37.6763 37.3029 39.0456 37.3029 40.753C37.3029 42.4604 35.9335 43.8128 34.2261 43.8128ZM34.2261 39.688C33.6683 39.688 33.1611 40.1782 33.1611 40.753C33.1611 41.3278 33.6514 41.818 34.2261 41.818C34.8178 41.818 35.2912 41.3447 35.2912 40.753C35.2912 40.1613 34.8178 39.688 34.2261 39.688Z" fill="#023F87"/>
<path d="M50.1 18.7931H20.1781C19.6202 18.7931 19.1807 18.3536 19.1807 17.7957C19.1807 17.2379 19.6371 16.7983 20.1781 16.7983H50.1C50.6579 16.7983 51.0974 17.2379 51.0974 17.7957C51.0974 18.3536 50.641 18.7931 50.1 18.7931Z" fill="#023F87"/>
<path d="M50.0999 23.3407H48.0882C47.5304 23.3407 47.0908 22.9012 47.0908 22.3433C47.0908 21.7855 47.5473 21.3459 48.0882 21.3459H50.0999C50.6578 21.3459 51.0973 21.7855 51.0973 22.3433C51.0973 22.9012 50.6409 23.3407 50.0999 23.3407Z" fill="#023F87"/>
</g>
<defs>
<clipPath id="clip0_862_8714">
<rect width="52" height="37.5293" fill="white" transform="translate(4 11)"/>
</clipPath>
</defs>
</svg>
