<svg width="60" height="60" viewBox="0 0 60 60" fill="none" xmlns="http://www.w3.org/2000/svg">
<path fill-rule="evenodd" clip-rule="evenodd" d="M9 54.6999C9 53.9819 9.58204 53.3999 10.3 53.3999H49.3C50.018 53.3999 50.6 53.9819 50.6 54.6999C50.6 55.4179 50.018 55.9999 49.3 55.9999H10.3C9.58204 55.9999 9 55.4179 9 54.6999Z" fill="#1D4580"/>
<path fill-rule="evenodd" clip-rule="evenodd" d="M14.2001 27.4V53.4001H20.7001V27.4H14.2001ZM12.9001 24.8C12.1821 24.8 11.6001 25.3821 11.6001 26.1V54.7001C11.6001 55.418 12.1821 56.0001 12.9001 56.0001H22.0001C22.7181 56.0001 23.3001 55.418 23.3001 54.7001V26.1C23.3001 25.3821 22.7181 24.8 22.0001 24.8H12.9001Z" fill="#1D4580"/>
<path fill-rule="evenodd" clip-rule="evenodd" d="M20.7002 4L41.5002 11.8V30H38.9002V13.6018L23.3002 7.7518V53.4H33.7002C33.7002 54.118 34.2822 54.7 35.0002 54.7H41.5002V56H20.7002V53.4V4Z" fill="#1D4580"/>
<path d="M24.6001 15.7H27.2001V18.3H24.6001V15.7Z" fill="#1D4580"/>
<path d="M29.7998 15.7H32.3998V18.3H29.7998V15.7Z" fill="#1D4580"/>
<path d="M35 15.7H37.6V18.3H35V15.7Z" fill="#1D4580"/>
<path d="M24.6001 20.8999H27.2001V23.4999H24.6001V20.8999Z" fill="#1D4580"/>
<path d="M29.7998 20.8999H32.3998V23.4999H29.7998V20.8999Z" fill="#1D4580"/>
<path d="M35 20.8999H37.6V23.4999H35V20.8999Z" fill="#1D4580"/>
<path d="M24.6001 26.1001H27.2001V28.7001H24.6001V26.1001Z" fill="#1D4580"/>
<path d="M29.7998 26.1001H32.3998V28.7001H29.7998V26.1001Z" fill="#1D4580"/>
<path d="M35 26.1001H37.6V28.7001H35V26.1001Z" fill="#1D4580"/>
<path d="M24.6001 31.3H27.2001V33.9H24.6001V31.3Z" fill="#1D4580"/>
<path d="M29.7998 31.3H32.3998V33.9H29.7998V31.3Z" fill="#1D4580"/>
<path d="M24.6001 36.5H27.2001V39.1H24.6001V36.5Z" fill="#1D4580"/>
<path d="M29.7998 36.5H32.3998V39.1H29.7998V36.5Z" fill="#1D4580"/>
<path d="M24.6001 41.7H27.2001V44.3H24.6001V41.7Z" fill="#1D4580"/>
<path d="M29.7998 41.7H32.3998V44.3H29.7998V41.7Z" fill="#1D4580"/>
<path d="M24.6001 46.8999H27.2001V49.4999H24.6001V46.8999Z" fill="#1D4580"/>
<path d="M29.7998 46.8999H32.3998V49.4999H29.7998V46.8999Z" fill="#1D4580"/>
<path fill-rule="evenodd" clip-rule="evenodd" d="M36.3002 32.6V53.4H45.4002V32.6H36.3002ZM35.0002 30C34.2822 30 33.7002 30.582 33.7002 31.3V54.7C33.7002 55.418 34.2822 56 35.0002 56H46.7002C47.4182 56 48.0002 55.418 48.0002 54.7V31.3C48.0002 30.582 47.4182 30 46.7002 30H35.0002Z" fill="#1D4580"/>
<path fill-rule="evenodd" clip-rule="evenodd" d="M42.7999 37.8H38.8999V35.2H42.7999V37.8Z" fill="#1D4580"/>
<path fill-rule="evenodd" clip-rule="evenodd" d="M42.7999 42.9999H38.8999V40.3999H42.7999V42.9999Z" fill="#1D4580"/>
<path fill-rule="evenodd" clip-rule="evenodd" d="M42.7999 48.2001H38.8999V45.6001H42.7999V48.2001Z" fill="#1D4580"/>
<path fill-rule="evenodd" clip-rule="evenodd" d="M42.7999 53.4H38.8999V50.8H42.7999V53.4Z" fill="#1D4580"/>
<path fill-rule="evenodd" clip-rule="evenodd" d="M18.1 15.7V27.4H15.5V15.7H18.1Z" fill="#1D4580"/>
</svg>
