<?xml version="1.0" encoding="UTF-8"?>
<svg id="Layer_2" data-name="Layer 2" xmlns="http://www.w3.org/2000/svg" viewBox="0 0 634.51 155.91">
  <defs>
    <style>
      .cls-1 {
        fill: #fff;
      }
    </style>
  </defs>
  <g id="ROUNDEL">
    <g>
      <path class="cls-1" d="m399.97,155.91h-165.44v-3.54h165.44c37.12,0,67.32-30.2,67.32-67.32s-30.2-67.32-67.32-67.32h-165.44v-3.54h165.44c39.08,0,70.87,31.79,70.87,70.87s-31.79,70.87-70.87,70.87Z"/>
      <path class="cls-1" d="m236.3,155.91H70.86c-.98,0-1.77-.79-1.77-1.77s.79-1.77,1.77-1.77h165.44c37.12,0,67.32-30.2,67.32-67.32s-30.2-67.32-67.32-67.32H106.3c-.98,0-1.77-.79-1.77-1.77s.79-1.77,1.77-1.77h130.01c39.08,0,70.87,31.79,70.87,70.87s-31.79,70.87-70.87,70.87Z"/>
      <path class="cls-1" d="m563.64,155.91h-165.44v-3.54h165.44c37.12,0,67.32-30.2,67.32-67.32s-30.2-67.32-67.32-67.32h-165.44v-3.54h165.44c39.08,0,70.87,31.79,70.87,70.87s-31.79,70.87-70.87,70.87Z"/>
      <g>
        <path class="cls-1" d="m162.53,128.08c-.99.45-2.38.76-3.67.76-1.53,0-2.97-.43-3.87-1.64-.76-1.01-1.1-2.47-1.1-4.34,0-2.16.49-3.75,1.48-4.75.97-.97,2.3-1.22,3.76-1.22,1.03,0,2.07.13,2.97.31l-.16,1.89c-.7-.11-1.69-.18-2.59-.18s-1.82.14-2.34.76c-.61.7-.79,1.82-.79,3.21,0,1.17.13,2.16.54,2.86.5.83,1.37,1.1,2.32,1.1s2-.27,2.86-.54l.59,1.8Z"/>
        <path class="cls-1" d="m163.61,128.66v-11.6h7.2v1.98h-4.93v2.7h4.09v1.94h-4.09v2.99h4.93v1.98h-7.2Z"/>
        <path class="cls-1" d="m178.17,128.66c-.83-1.53-1.55-2.97-2.23-4.48-.5,0-1.19-.02-1.62-.05v4.54h-2.27v-11.52c1.1-.13,2.54-.23,3.65-.23,2.38,0,4.59.58,4.59,3.58,0,1.62-.67,2.81-2.21,3.39.67,1.37,1.69,3.13,2.7,4.79h-2.61Zm-3.85-6.18c1.03,0,1.85,0,2.45-.18.83-.23,1.22-.74,1.22-1.78,0-1.39-.99-1.64-2.11-1.64-.52,0-1.08.02-1.57.05v3.55Z"/>
        <path class="cls-1" d="m183.79,128.66v-9.62h-3.13v-1.98h8.53v1.98h-3.13v9.62h-2.27Z"/>
        <path class="cls-1" d="m190.03,128.66v-11.6h2.27v11.6h-2.27Z"/>
        <path class="cls-1" d="m194.17,128.66v-11.6h7.36v1.98h-5.1v2.9h4.21v1.94h-4.21v4.77h-2.27Z"/>
        <path class="cls-1" d="m202.61,128.66v-11.6h2.27v11.6h-2.27Z"/>
        <path class="cls-1" d="m206.75,128.66v-11.6h7.2v1.98h-4.93v2.7h4.09v1.94h-4.09v2.99h4.93v1.98h-7.2Z"/>
        <path class="cls-1" d="m215.2,117.21c1.19-.18,2.54-.31,3.62-.31,3.92,0,5.29,2.05,5.29,5.94s-1.37,5.96-5.29,5.96c-1.08,0-2.43-.05-3.62-.18v-11.42Zm2.27,9.58c.49.04.74.04,1.15.04,2.56,0,3.19-1.1,3.19-3.98,0-2.72-.63-3.96-3.19-3.96-.41,0-.77.02-1.15.05v7.85Z"/>
      </g>
      <g>
        <path class="cls-1" d="m154.99,43.87v-14.81h2.21v14.81h-2.21Z"/>
        <path class="cls-1" d="m159.54,41.8c.85.14,2.21.32,3.5.32s2.48-.18,3.15-.83c.39-.37.62-.87.62-1.52,0-1.45-.9-1.93-3.45-2.69-2.55-.74-4.18-1.79-4.18-4.3,0-1.24.53-2.25,1.43-2.94,1.01-.78,2.3-1.01,3.66-1.01s2.8.21,4.09.46l-.28,1.84c-.87-.16-2.21-.32-3.43-.32-1.01,0-1.98.11-2.55.53-.46.34-.69.78-.69,1.38,0,1.52,1.17,1.95,3.61,2.69,2.39.74,4.02,1.75,4.02,4.35,0,1.38-.53,2.51-1.49,3.27-1.04.83-2.51,1.08-4.07,1.08-1.45,0-2.94-.21-4.21-.44l.28-1.86Z"/>
        <path class="cls-1" d="m170.08,36.46c0-5.01,1.91-7.63,6.39-7.63s6.39,2.62,6.39,7.63-1.91,7.63-6.39,7.63-6.39-2.62-6.39-7.63Zm10.53,0c0-3.91-1.17-5.66-4.14-5.66s-4.14,1.75-4.14,5.66,1.17,5.66,4.14,5.66,4.14-1.75,4.14-5.66Z"/>
        <path class="cls-1" d="m196.34,37.82c-.78.53-2.02.92-3.33.92-1.45,0-2.78-.39-3.61-1.29-.76-.78-1.15-1.98-1.15-3.66,0-1.59.39-2.78,1.17-3.59.87-.94,2.37-1.38,4.05-1.38,1.47,0,2.81.34,3.68,1.08.92.8,1.4,2.05,1.4,3.75v5.5c0,1.7-.48,2.94-1.43,3.77-.94.83-2.34,1.17-4.02,1.17-1.38,0-2.85-.21-4.09-.46l.28-1.84c.78.16,2.14.37,3.45.37,1.2,0,2.3-.16,2.9-.78.48-.48.71-1.26.71-2.39v-1.17Zm0-4.05c0-2.02-.76-3.01-2.92-3.01s-2.92.99-2.92,3.01c0,1.03.18,1.82.67,2.32.51.55,1.31.71,2.25.71,1.1,0,2.16-.25,2.92-.53v-2.51Z"/>
        <path class="cls-1" d="m200.16,36.46c0-4.97,1.04-7.63,5.36-7.63s5.33,2.67,5.33,7.63-1.04,7.63-5.33,7.63-5.36-2.69-5.36-7.63Zm8.49,0c0-3.52-.21-5.7-3.13-5.7s-3.15,2.18-3.15,5.7.18,5.73,3.15,5.73,3.13-2.23,3.13-5.73Z"/>
        <path class="cls-1" d="m212.44,36.46c0-4.97,1.04-7.63,5.36-7.63s5.33,2.67,5.33,7.63-1.04,7.63-5.33,7.63-5.36-2.69-5.36-7.63Zm8.49,0c0-3.52-.21-5.7-3.13-5.7s-3.15,2.18-3.15,5.7.18,5.73,3.15,5.73,3.13-2.23,3.13-5.73Z"/>
        <path class="cls-1" d="m227,43.87v-12.58l-3.08,1.17-.67-1.5,3.96-1.91h2v14.81h-2.21Z"/>
        <path class="cls-1" d="m162.01,65.41c-2.43-1.42-4.39-1.94-5.91-3.01-1.21-.85-2.14-2.16-2.14-5.33,0-3.92,1.5-5.98,5.02-5.98s5,2.05,5,5.98c0,1.91-.41,3.37-1.24,4.34-.81.95-2.18,1.31-3.38,1.35v.04c1.15.2,2.34.59,3.38,1.08l-.74,1.53Zm.22-8.34c0-3.06-.92-4.43-3.24-4.43s-3.26,1.37-3.26,4.43.92,4.43,3.26,4.43,3.24-1.37,3.24-4.43Z"/>
        <path class="cls-1" d="m170.49,62.87l-.13-.7c-.65.49-1.53.9-2.52.9-1.87,0-2.81-1.13-2.81-2.9v-5.62h1.64v5.46c0,1.13.49,1.57,1.46,1.57.67,0,1.31-.18,1.93-.47v-6.55h1.64v8.32h-1.21Z"/>
        <path class="cls-1" d="m178.21,62.87l-.18-.7c-.63.56-1.5.88-2.43.88-1.71,0-2.75-1.13-2.75-2.61,0-.74.29-1.48.88-1.94.56-.45,1.35-.63,2.23-.63.58,0,1.24.04,1.82.07v-.7c0-.5-.13-.83-.34-1.04-.31-.29-.81-.36-1.48-.36-.81,0-1.8.14-2.34.27l-.25-1.37c.72-.22,1.78-.36,2.74-.36,1.04,0,1.91.14,2.5.65.52.43.81,1.12.81,2.12v5.73h-1.21Zm-.43-3.73c-.41-.04-.97-.05-1.48-.05-1.21,0-1.78.43-1.78,1.35,0,.79.52,1.31,1.42,1.31.67,0,1.35-.23,1.84-.61v-2Z"/>
        <path class="cls-1" d="m180.98,62.87v-11.6h1.64v11.6h-1.64Z"/>
        <path class="cls-1" d="m185.07,51.22c.5,0,.92.41.92.92s-.41.9-.92.9-.9-.4-.9-.9.4-.92.9-.92Zm-.81,11.65v-8.32h1.64v8.32h-1.64Z"/>
        <path class="cls-1" d="m191.92,62.51c-.56.29-1.28.5-2,.5-1.35,0-2.12-.76-2.12-2.27v-4.84h-1.24v-1.21l1.3-.07.13-2.45h1.46v2.38h2.32v1.35h-2.32v4.59c0,.61.11,1.04.74,1.04.4,0,.77-.11,1.21-.31l.54,1.28Z"/>
        <path class="cls-1" d="m194.19,66.14c.49-1.28.88-2.41,1.17-3.28h-.88c-.85-2.3-1.71-5.33-2.47-8.32h1.71c.56,2.45,1.17,4.79,1.89,7.02h.13c.67-2.02,1.37-4.63,1.91-7.02h1.67c-.92,3.85-2.23,8.23-3.53,11.6h-1.6Z"/>
        <path class="cls-1" d="m164.13,81.87c-.09-3.1-.23-6.28-.38-9.34h-.09l-2.63,7.38h-1.85l-2.63-7.38h-.09c-.14,3.06-.29,6.25-.38,9.34h-1.75c.13-3.85.32-7.72.54-11.6h2.52l2.67,7.69h.09l2.67-7.69h2.52c.22,3.87.41,7.74.54,11.6h-1.75Z"/>
        <path class="cls-1" d="m172.32,81.87l-.18-.7c-.63.56-1.5.88-2.43.88-1.71,0-2.75-1.13-2.75-2.61,0-.74.29-1.48.88-1.94.56-.45,1.35-.63,2.23-.63.58,0,1.24.04,1.82.07v-.7c0-.5-.13-.83-.34-1.04-.31-.29-.81-.36-1.48-.36-.81,0-1.8.14-2.34.27l-.25-1.37c.72-.22,1.78-.36,2.74-.36,1.04,0,1.91.14,2.5.65.52.43.81,1.12.81,2.12v5.73h-1.21Zm-.43-3.73c-.41-.04-.97-.05-1.48-.05-1.21,0-1.78.43-1.78,1.35,0,.79.52,1.31,1.42,1.31.67,0,1.35-.23,1.84-.61v-2Z"/>
        <path class="cls-1" d="m180.15,81.87v-5.46c0-1.06-.49-1.57-1.4-1.57-.77,0-1.46.25-2.02.52v6.5h-1.64v-8.32h1.21l.14.76c.65-.5,1.55-.94,2.52-.94,1.89,0,2.83,1.13,2.83,2.9v5.6h-1.64Z"/>
        <path class="cls-1" d="m188.16,81.87l-.18-.7c-.63.56-1.5.88-2.43.88-1.71,0-2.75-1.13-2.75-2.61,0-.74.29-1.48.88-1.94.56-.45,1.35-.63,2.23-.63.58,0,1.24.04,1.82.07v-.7c0-.5-.13-.83-.34-1.04-.31-.29-.81-.36-1.48-.36-.81,0-1.8.14-2.34.27l-.25-1.37c.72-.22,1.78-.36,2.74-.36,1.04,0,1.91.14,2.5.65.52.43.81,1.12.81,2.12v5.73h-1.21Zm-.43-3.73c-.41-.04-.97-.05-1.48-.05-1.21,0-1.78.43-1.78,1.35,0,.79.52,1.31,1.42,1.31.67,0,1.35-.23,1.84-.61v-2Z"/>
        <path class="cls-1" d="m195.74,81.4c-.58.4-1.28.65-1.98.65-2.36,0-3.22-1.53-3.22-4.27,0-3.11.97-4.41,3.28-4.41,1.24,0,2.67.27,3.57.58v8.68c0,.9-.29,1.53-.76,1.98-.61.56-1.57.72-2.56.72-.94,0-1.91-.14-2.68-.29l.22-1.4c.59.09,1.46.22,2.23.22.67,0,1.28-.07,1.58-.38.22-.23.32-.58.32-1.03v-1.04Zm0-6.41c-.49-.09-1.17-.16-1.76-.16-1.42,0-1.78.97-1.78,2.97,0,1.87.38,2.9,1.76,2.9.61,0,1.24-.13,1.78-.4v-5.31Z"/>
        <path class="cls-1" d="m204.96,81.38c-.74.34-1.8.67-2.88.67-2.45,0-3.76-1.53-3.76-4.29,0-2.29,1.04-4.39,3.58-4.39,2.02,0,3.19,1.44,3.19,3.67,0,.45-.05.9-.13,1.26h-4.99c.04.74.22,1.33.56,1.71.38.41.97.58,1.66.58.86,0,1.71-.23,2.39-.52l.38,1.31Zm-1.42-4.38c0-1.24-.36-2.23-1.69-2.23-1.21,0-1.78,1.08-1.85,2.23h3.55Z"/>
        <path class="cls-1" d="m215.95,81.87v-5.51c0-1.04-.5-1.51-1.42-1.51-.63,0-1.3.22-1.93.58.05.32.09.7.09,1.03v5.42h-1.64v-5.51c0-1.04-.49-1.51-1.4-1.51-.67,0-1.24.18-1.85.5v6.52h-1.64v-8.32h1.21l.14.76c.59-.45,1.44-.94,2.5-.94.99,0,1.73.38,2.16,1.06.72-.59,1.6-1.06,2.59-1.06,1.85,0,2.83,1.03,2.83,3.06v5.44h-1.64Z"/>
        <path class="cls-1" d="m225.12,81.38c-.74.34-1.8.67-2.88.67-2.45,0-3.76-1.53-3.76-4.29,0-2.29,1.04-4.39,3.58-4.39,2.02,0,3.19,1.44,3.19,3.67,0,.45-.05.9-.13,1.26h-4.99c.04.74.22,1.33.56,1.71.38.41.97.58,1.66.58.86,0,1.71-.23,2.39-.52l.38,1.31Zm-1.42-4.38c0-1.24-.36-2.23-1.69-2.23-1.21,0-1.78,1.08-1.85,2.23h3.55Z"/>
        <path class="cls-1" d="m231.38,81.87v-5.46c0-1.06-.49-1.57-1.4-1.57-.77,0-1.46.25-2.02.52v6.5h-1.64v-8.32h1.21l.14.76c.65-.5,1.55-.94,2.52-.94,1.89,0,2.83,1.13,2.83,2.9v5.6h-1.64Z"/>
        <path class="cls-1" d="m238.9,81.51c-.56.29-1.28.5-2,.5-1.35,0-2.12-.76-2.12-2.27v-4.84h-1.24v-1.21l1.3-.07.13-2.45h1.46v2.38h2.32v1.35h-2.32v4.59c0,.61.11,1.04.74,1.04.4,0,.77-.11,1.21-.31l.54,1.28Z"/>
        <path class="cls-1" d="m154.45,99.25c.67.11,1.73.25,2.74.25s1.94-.14,2.47-.65c.31-.29.49-.68.49-1.19,0-1.13-.7-1.51-2.7-2.11-2-.58-3.28-1.4-3.28-3.37,0-.97.41-1.76,1.12-2.3.79-.61,1.8-.79,2.86-.79s2.2.16,3.21.36l-.22,1.44c-.68-.13-1.73-.25-2.68-.25-.79,0-1.55.09-2,.41-.36.27-.54.61-.54,1.08,0,1.19.92,1.53,2.83,2.11,1.87.58,3.15,1.37,3.15,3.4,0,1.08-.41,1.96-1.17,2.56-.81.65-1.96.85-3.19.85-1.13,0-2.3-.16-3.29-.34l.22-1.46Z"/>
        <path class="cls-1" d="m164.56,104.14c.49-1.28.88-2.41,1.17-3.28h-.88c-.85-2.3-1.71-5.33-2.47-8.32h1.71c.56,2.45,1.17,4.79,1.89,7.02h.13c.67-2.02,1.37-4.63,1.91-7.02h1.67c-.92,3.85-2.23,8.23-3.53,11.6h-1.6Z"/>
        <path class="cls-1" d="m170.27,99.34c.77.13,1.6.25,2.45.25.61,0,1.19-.05,1.55-.31.25-.16.4-.4.4-.74,0-.67-.5-.88-2.02-1.28-1.33-.34-2.56-.88-2.56-2.47,0-.9.41-1.55,1.08-1.95.61-.38,1.4-.49,2.25-.49s1.69.11,2.38.25l-.14,1.37c-.63-.09-1.33-.16-2.05-.16s-1.21.07-1.51.29c-.22.14-.34.36-.34.63,0,.67.67.81,2.32,1.3,1.46.43,2.27,1.08,2.27,2.41,0,.9-.36,1.55-.92,1.96-.67.49-1.58.63-2.54.63s-1.94-.13-2.77-.32l.16-1.39Z"/>
        <path class="cls-1" d="m181.61,100.51c-.56.29-1.28.5-2,.5-1.35,0-2.12-.76-2.12-2.27v-4.84h-1.24v-1.21l1.3-.07.13-2.45h1.46v2.38h2.32v1.35h-2.32v4.59c0,.61.11,1.04.74,1.04.4,0,.77-.11,1.21-.31l.54,1.28Z"/>
        <path class="cls-1" d="m188.49,100.38c-.74.34-1.8.67-2.88.67-2.45,0-3.76-1.53-3.76-4.29,0-2.29,1.04-4.39,3.58-4.39,2.02,0,3.19,1.44,3.19,3.67,0,.45-.05.9-.13,1.26h-4.99c.04.74.22,1.33.56,1.71.38.41.97.58,1.66.58.86,0,1.71-.23,2.39-.52l.38,1.31Zm-1.42-4.38c0-1.24-.36-2.23-1.69-2.23-1.21,0-1.78,1.08-1.85,2.23h3.55Z"/>
        <path class="cls-1" d="m199.48,100.87v-5.51c0-1.04-.5-1.51-1.42-1.51-.63,0-1.3.22-1.93.58.05.32.09.7.09,1.03v5.42h-1.64v-5.51c0-1.04-.49-1.51-1.4-1.51-.67,0-1.24.18-1.85.5v6.52h-1.64v-8.32h1.21l.14.76c.59-.45,1.44-.94,2.5-.94.99,0,1.73.38,2.16,1.06.72-.59,1.6-1.06,2.59-1.06,1.86,0,2.83,1.03,2.83,3.06v5.44h-1.64Z"/>
        <path class="cls-1" d="m202.33,99.34c.77.13,1.6.25,2.45.25.61,0,1.19-.05,1.55-.31.25-.16.4-.4.4-.74,0-.67-.5-.88-2.02-1.28-1.33-.34-2.56-.88-2.56-2.47,0-.9.41-1.55,1.08-1.95.61-.38,1.4-.49,2.25-.49s1.69.11,2.38.25l-.14,1.37c-.63-.09-1.33-.16-2.05-.16s-1.21.07-1.51.29c-.22.14-.34.36-.34.63,0,.67.67.81,2.32,1.3,1.46.43,2.27,1.08,2.27,2.41,0,.9-.36,1.55-.92,1.96-.67.49-1.58.63-2.54.63s-1.94-.13-2.77-.32l.16-1.39Z"/>
      </g>
      <g>
        <path class="cls-1" d="m326.95,128.08c-.99.45-2.38.76-3.67.76-1.53,0-2.97-.43-3.87-1.64-.76-1.01-1.1-2.47-1.1-4.34,0-2.16.49-3.75,1.48-4.75.97-.97,2.3-1.22,3.76-1.22,1.03,0,2.07.13,2.97.31l-.16,1.89c-.7-.11-1.69-.18-2.59-.18s-1.82.14-2.34.76c-.61.7-.79,1.82-.79,3.21,0,1.17.13,2.16.54,2.86.5.83,1.37,1.1,2.32,1.1s2-.27,2.86-.54l.59,1.8Z"/>
        <path class="cls-1" d="m328.03,128.66v-11.6h7.2v1.98h-4.93v2.7h4.09v1.94h-4.09v2.99h4.93v1.98h-7.2Z"/>
        <path class="cls-1" d="m342.59,128.66c-.83-1.53-1.55-2.97-2.23-4.48-.5,0-1.19-.02-1.62-.05v4.54h-2.27v-11.52c1.1-.13,2.54-.23,3.65-.23,2.38,0,4.59.58,4.59,3.58,0,1.62-.67,2.81-2.21,3.39.67,1.37,1.69,3.13,2.7,4.79h-2.61Zm-3.85-6.18c1.03,0,1.85,0,2.45-.18.83-.23,1.22-.74,1.22-1.78,0-1.39-.99-1.64-2.11-1.64-.52,0-1.08.02-1.57.05v3.55Z"/>
        <path class="cls-1" d="m348.21,128.66v-9.62h-3.13v-1.98h8.53v1.98h-3.13v9.62h-2.27Z"/>
        <path class="cls-1" d="m354.45,128.66v-11.6h2.27v11.6h-2.27Z"/>
        <path class="cls-1" d="m358.59,128.66v-11.6h7.36v1.98h-5.1v2.9h4.21v1.94h-4.21v4.77h-2.27Z"/>
        <path class="cls-1" d="m367.03,128.66v-11.6h2.27v11.6h-2.27Z"/>
        <path class="cls-1" d="m371.17,128.66v-11.6h7.2v1.98h-4.93v2.7h4.09v1.94h-4.09v2.99h4.93v1.98h-7.2Z"/>
        <path class="cls-1" d="m379.62,117.21c1.19-.18,2.54-.31,3.62-.31,3.92,0,5.29,2.05,5.29,5.94s-1.37,5.96-5.29,5.96c-1.08,0-2.43-.05-3.62-.18v-11.42Zm2.27,9.58c.49.04.74.04,1.15.04,2.56,0,3.19-1.1,3.19-3.98,0-2.72-.63-3.96-3.19-3.96-.41,0-.77.02-1.15.05v7.85Z"/>
      </g>
      <g>
        <path class="cls-1" d="m490.08,128.08c-.99.45-2.38.76-3.67.76-1.53,0-2.97-.43-3.87-1.64-.76-1.01-1.1-2.47-1.1-4.34,0-2.16.49-3.75,1.48-4.75.97-.97,2.3-1.22,3.76-1.22,1.03,0,2.07.13,2.97.31l-.16,1.89c-.7-.11-1.69-.18-2.59-.18s-1.82.14-2.34.76c-.61.7-.79,1.82-.79,3.21,0,1.17.13,2.16.54,2.86.5.83,1.37,1.1,2.32,1.1s2-.27,2.86-.54l.59,1.8Z"/>
        <path class="cls-1" d="m491.16,128.66v-11.6h7.2v1.98h-4.93v2.7h4.09v1.94h-4.09v2.99h4.93v1.98h-7.2Z"/>
        <path class="cls-1" d="m505.72,128.66c-.83-1.53-1.55-2.97-2.23-4.48-.5,0-1.19-.02-1.62-.05v4.54h-2.27v-11.52c1.1-.13,2.54-.23,3.65-.23,2.38,0,4.59.58,4.59,3.58,0,1.62-.67,2.81-2.21,3.39.67,1.37,1.69,3.13,2.7,4.79h-2.61Zm-3.85-6.18c1.03,0,1.85,0,2.45-.18.83-.23,1.22-.74,1.22-1.78,0-1.39-.99-1.64-2.11-1.64-.52,0-1.08.02-1.57.05v3.55Z"/>
        <path class="cls-1" d="m511.34,128.66v-9.62h-3.13v-1.98h8.53v1.98h-3.13v9.62h-2.27Z"/>
        <path class="cls-1" d="m517.58,128.66v-11.6h2.27v11.6h-2.27Z"/>
        <path class="cls-1" d="m521.72,128.66v-11.6h7.36v1.98h-5.1v2.9h4.21v1.94h-4.21v4.77h-2.27Z"/>
        <path class="cls-1" d="m530.16,128.66v-11.6h2.27v11.6h-2.27Z"/>
        <path class="cls-1" d="m534.31,128.66v-11.6h7.2v1.98h-4.93v2.7h4.09v1.94h-4.09v2.99h4.93v1.98h-7.2Z"/>
        <path class="cls-1" d="m542.75,117.21c1.19-.18,2.54-.31,3.62-.31,3.92,0,5.29,2.05,5.29,5.94s-1.37,5.96-5.29,5.96c-1.08,0-2.43-.05-3.62-.18v-11.42Zm2.27,9.58c.49.04.74.04,1.15.04,2.56,0,3.19-1.1,3.19-3.98,0-2.72-.63-3.96-3.19-3.96-.41,0-.77.02-1.15.05v7.85Z"/>
      </g>
      <g>
        <path class="cls-1" d="m482.34,43.87v-14.81h2.21v14.81h-2.21Z"/>
        <path class="cls-1" d="m486.89,41.8c.85.14,2.21.32,3.5.32s2.48-.18,3.15-.83c.39-.37.62-.87.62-1.52,0-1.45-.9-1.93-3.45-2.69-2.55-.74-4.18-1.79-4.18-4.3,0-1.24.53-2.25,1.43-2.94,1.01-.78,2.3-1.01,3.66-1.01s2.8.21,4.09.46l-.28,1.84c-.87-.16-2.21-.32-3.43-.32-1.01,0-1.98.11-2.55.53-.46.34-.69.78-.69,1.38,0,1.52,1.17,1.95,3.61,2.69,2.39.74,4.02,1.75,4.02,4.35,0,1.38-.53,2.51-1.49,3.27-1.04.83-2.51,1.08-4.07,1.08-1.45,0-2.94-.21-4.21-.44l.28-1.86Z"/>
        <path class="cls-1" d="m497.43,36.46c0-5.01,1.91-7.63,6.39-7.63s6.39,2.62,6.39,7.63-1.91,7.63-6.39,7.63-6.39-2.62-6.39-7.63Zm10.53,0c0-3.91-1.17-5.66-4.14-5.66s-4.14,1.75-4.14,5.66,1.17,5.66,4.14,5.66,4.14-1.75,4.14-5.66Z"/>
        <path class="cls-1" d="m510.74,43.87l5.75-14.81h1.79l-5.7,14.81h-1.84Z"/>
        <path class="cls-1" d="m519.6,43.87v-14.81h2.21v14.81h-2.21Z"/>
        <path class="cls-1" d="m524.31,43.87v-14.81h8.81v1.95h-6.6v4.25h5.4v1.93h-5.4v4.71h6.6v1.95h-8.81Z"/>
        <path class="cls-1" d="m544.9,42.97c-1.27.64-3.06,1.13-4.74,1.13-1.91,0-3.73-.57-4.83-2.12-.92-1.26-1.38-3.1-1.38-5.52,0-2.58.58-4.46,1.63-5.75,1.22-1.45,3.01-1.89,4.97-1.89,1.31,0,2.69.18,3.84.44l-.21,1.86c-.92-.18-2.3-.32-3.5-.32-1.4,0-2.69.3-3.47,1.33-.71.97-1.01,2.39-1.01,4.32,0,1.79.23,3.17.85,4.14.71,1.13,1.91,1.52,3.2,1.52,1.43,0,2.81-.41,4.02-.9l.62,1.75Z"/>
        <path class="cls-1" d="m482.06,67.87v-1.75c4.09-3.56,7.01-6.35,7.01-8.81,0-1.84-1.38-2.51-2.92-2.51-1.29,0-2.78.41-3.75.8l-.62-1.75c1.15-.55,2.88-1.03,4.53-1.03,2.97,0,5.01,1.49,5.01,4.42,0,3.22-3.24,6-6.39,8.67h6.6v1.95h-9.47Z"/>
        <path class="cls-1" d="m494.87,67.87c1.29-4.97,2.87-8.65,5.22-12.88h-7.4v-1.93h9.68v1.82c-2.34,4.21-3.93,7.89-5.13,12.99h-2.37Z"/>
        <path class="cls-1" d="m503.54,60.46c0-4.97,1.04-7.63,5.36-7.63s5.33,2.67,5.33,7.63-1.04,7.63-5.33,7.63-5.36-2.69-5.36-7.63Zm8.49,0c0-3.52-.21-5.7-3.13-5.7s-3.15,2.18-3.15,5.7.18,5.73,3.15,5.73,3.13-2.23,3.13-5.73Z"/>
        <path class="cls-1" d="m515.83,60.46c0-4.97,1.04-7.63,5.36-7.63s5.33,2.67,5.33,7.63-1.04,7.63-5.33,7.63-5.36-2.69-5.36-7.63Zm8.49,0c0-3.52-.21-5.7-3.13-5.7s-3.15,2.18-3.15,5.7.18,5.73,3.15,5.73,3.13-2.23,3.13-5.73Z"/>
        <path class="cls-1" d="m530.38,67.87v-12.58l-3.08,1.17-.67-1.5,3.96-1.91h2v14.81h-2.21Z"/>
        <path class="cls-1" d="m481.92,86.87v-11.6h1.73v11.6h-1.73Z"/>
        <path class="cls-1" d="m490.51,86.87v-5.46c0-1.06-.49-1.57-1.4-1.57-.77,0-1.46.25-2.02.52v6.5h-1.64v-8.32h1.21l.14.76c.65-.5,1.55-.94,2.52-.94,1.89,0,2.83,1.13,2.83,2.9v5.6h-1.64Z"/>
        <path class="cls-1" d="m494.15,86.87v-6.97h-1.22v-1.21l1.22-.07v-.9c0-.94.23-1.58.65-2,.5-.49,1.24-.63,2.13-.63.4,0,.83.04,1.22.07l-.09,1.37c-.42-.04-.79-.04-1.12-.04-.43,0-.74.05-.9.29-.2.22-.25.56-.25,1.08v.68h1.82v1.35h-1.82v6.97h-1.64Z"/>
        <path class="cls-1" d="m501.65,87.05c-1.17,0-2.02-.32-2.63-.92-.77-.74-1.1-1.94-1.1-3.42s.32-2.68,1.1-3.42c.61-.59,1.46-.92,2.63-.92s2.02.32,2.63.92c.77.74,1.1,1.94,1.1,3.42s-.32,2.68-1.1,3.42c-.61.59-1.46.92-2.63.92Zm2.07-4.34c0-1.01-.16-1.84-.59-2.32-.32-.38-.83-.58-1.48-.58s-1.15.2-1.48.58c-.43.49-.59,1.31-.59,2.32s.16,1.85.59,2.32c.32.38.83.58,1.48.58s1.13-.22,1.48-.58c.43-.47.59-1.3.59-2.32Z"/>
        <path class="cls-1" d="m506.48,86.87v-8.32h1.22l.22,1.03h.07c.65-.94,1.42-1.19,2.47-1.19.2,0,.4,0,.72.04l-.11,1.49c-.32-.05-.65-.07-.99-.07-.7,0-1.4.16-1.96.63v6.39h-1.64Z"/>
        <path class="cls-1" d="m521.58,86.87v-5.51c0-1.04-.5-1.51-1.42-1.51-.63,0-1.3.22-1.93.58.05.32.09.7.09,1.03v5.42h-1.64v-5.51c0-1.04-.49-1.51-1.4-1.51-.67,0-1.24.18-1.85.5v6.52h-1.64v-8.32h1.21l.14.76c.59-.45,1.44-.94,2.5-.94.99,0,1.73.38,2.16,1.06.72-.59,1.6-1.06,2.59-1.06,1.85,0,2.83,1.03,2.83,3.06v5.44h-1.64Z"/>
        <path class="cls-1" d="m529.59,86.87l-.18-.7c-.63.56-1.5.88-2.43.88-1.71,0-2.75-1.13-2.75-2.61,0-.74.29-1.48.88-1.94.56-.45,1.35-.63,2.23-.63.58,0,1.24.04,1.82.07v-.7c0-.5-.13-.83-.34-1.04-.31-.29-.81-.36-1.48-.36-.81,0-1.8.14-2.34.27l-.25-1.37c.72-.22,1.78-.36,2.74-.36,1.04,0,1.91.14,2.5.65.52.43.81,1.12.81,2.13v5.73h-1.21Zm-.43-3.73c-.41-.04-.97-.05-1.48-.05-1.21,0-1.78.43-1.78,1.35,0,.79.52,1.31,1.42,1.31.67,0,1.35-.23,1.84-.61v-2Z"/>
        <path class="cls-1" d="m536.75,86.51c-.56.29-1.28.5-2,.5-1.35,0-2.13-.76-2.13-2.27v-4.84h-1.24v-1.21l1.3-.07.13-2.45h1.46v2.38h2.32v1.35h-2.32v4.59c0,.61.11,1.04.74,1.04.4,0,.77-.11,1.21-.31l.54,1.28Z"/>
        <path class="cls-1" d="m538.41,75.22c.5,0,.92.41.92.92s-.41.9-.92.9-.9-.4-.9-.9.4-.92.9-.92Zm-.81,11.65v-8.32h1.64v8.32h-1.64Z"/>
        <path class="cls-1" d="m544.06,87.05c-1.17,0-2.02-.32-2.63-.92-.77-.74-1.1-1.94-1.1-3.42s.32-2.68,1.1-3.42c.61-.59,1.46-.92,2.63-.92s2.02.32,2.63.92c.77.74,1.1,1.94,1.1,3.42s-.32,2.68-1.1,3.42c-.61.59-1.46.92-2.63.92Zm2.07-4.34c0-1.01-.16-1.84-.59-2.32-.32-.38-.83-.58-1.48-.58s-1.15.2-1.48.58c-.43.49-.59,1.31-.59,2.32s.16,1.85.59,2.32c.32.38.83.58,1.48.58s1.13-.22,1.48-.58c.43-.47.59-1.3.59-2.32Z"/>
        <path class="cls-1" d="m553.94,86.87v-5.46c0-1.06-.49-1.57-1.4-1.57-.77,0-1.46.25-2.02.52v6.5h-1.64v-8.32h1.21l.14.76c.65-.5,1.55-.94,2.52-.94,1.89,0,2.83,1.13,2.83,2.9v5.6h-1.64Z"/>
        <path class="cls-1" d="m560.57,85.25c.67.11,1.73.25,2.74.25s1.94-.14,2.47-.65c.31-.29.49-.68.49-1.19,0-1.13-.7-1.51-2.7-2.11-2-.58-3.28-1.4-3.28-3.37,0-.97.41-1.76,1.12-2.3.79-.61,1.8-.79,2.86-.79s2.2.16,3.21.36l-.22,1.44c-.68-.13-1.73-.25-2.68-.25-.79,0-1.55.09-2,.41-.36.27-.54.61-.54,1.08,0,1.19.92,1.53,2.83,2.11,1.87.58,3.15,1.37,3.15,3.4,0,1.08-.41,1.96-1.17,2.56-.81.65-1.96.85-3.19.85-1.13,0-2.3-.16-3.29-.34l.22-1.46Z"/>
        <path class="cls-1" d="m575.29,86.38c-.74.34-1.8.67-2.88.67-2.45,0-3.76-1.53-3.76-4.29,0-2.29,1.04-4.39,3.58-4.39,2.02,0,3.19,1.44,3.19,3.67,0,.45-.05.9-.13,1.26h-4.99c.04.74.22,1.33.56,1.71.38.41.97.58,1.66.58.86,0,1.71-.23,2.39-.52l.38,1.31Zm-1.42-4.38c0-1.24-.36-2.23-1.69-2.23-1.21,0-1.78,1.08-1.85,2.23h3.55Z"/>
        <path class="cls-1" d="m582.4,86.38c-.76.36-1.82.67-2.84.67-2.18,0-3.58-1.22-3.58-4.3,0-3.53,1.78-4.38,3.82-4.38.81,0,1.62.09,2.3.25l-.14,1.37c-.59-.09-1.26-.16-1.89-.16-1.6,0-2.43.63-2.43,2.88,0,2.02.68,2.88,2.09,2.88.81,0,1.57-.23,2.23-.52l.45,1.31Z"/>
        <path class="cls-1" d="m588.7,86.87l-.13-.7c-.65.49-1.53.9-2.52.9-1.87,0-2.81-1.13-2.81-2.9v-5.62h1.64v5.46c0,1.13.49,1.57,1.46,1.57.67,0,1.31-.18,1.93-.47v-6.55h1.64v8.32h-1.21Z"/>
        <path class="cls-1" d="m591.54,86.87v-8.32h1.22l.22,1.03h.07c.65-.94,1.42-1.19,2.47-1.19.2,0,.4,0,.72.04l-.11,1.49c-.32-.05-.65-.07-.99-.07-.7,0-1.4.16-1.96.63v6.39h-1.64Z"/>
        <path class="cls-1" d="m597.66,75.22c.5,0,.92.41.92.92s-.41.9-.92.9-.9-.4-.9-.9.4-.92.9-.92Zm-.81,11.65v-8.32h1.64v8.32h-1.64Z"/>
        <path class="cls-1" d="m604.52,86.51c-.56.29-1.28.5-2,.5-1.35,0-2.13-.76-2.13-2.27v-4.84h-1.24v-1.21l1.3-.07.13-2.45h1.46v2.38h2.32v1.35h-2.32v4.59c0,.61.11,1.04.74,1.04.4,0,.77-.11,1.21-.31l.54,1.28Z"/>
        <path class="cls-1" d="m606.79,90.14c.49-1.28.88-2.41,1.17-3.28h-.88c-.85-2.3-1.71-5.33-2.47-8.32h1.71c.56,2.45,1.17,4.79,1.89,7.02h.13c.67-2.02,1.37-4.63,1.91-7.02h1.67c-.92,3.85-2.23,8.23-3.53,11.6h-1.6Z"/>
        <path class="cls-1" d="m491.49,105.87c-.09-3.1-.23-6.28-.38-9.34h-.09l-2.63,7.38h-1.85l-2.63-7.38h-.09c-.14,3.06-.29,6.25-.38,9.34h-1.75c.13-3.85.32-7.72.54-11.6h2.52l2.67,7.69h.09l2.67-7.69h2.52c.22,3.87.41,7.74.54,11.6h-1.75Z"/>
        <path class="cls-1" d="m499.67,105.87l-.18-.7c-.63.56-1.5.88-2.43.88-1.71,0-2.75-1.13-2.75-2.61,0-.74.29-1.48.88-1.94.56-.45,1.35-.63,2.23-.63.58,0,1.24.04,1.82.07v-.7c0-.5-.13-.83-.34-1.04-.31-.29-.81-.36-1.48-.36-.81,0-1.8.14-2.34.27l-.25-1.37c.72-.22,1.78-.36,2.74-.36,1.04,0,1.91.14,2.5.65.52.43.81,1.12.81,2.13v5.73h-1.21Zm-.43-3.73c-.41-.04-.97-.05-1.48-.05-1.21,0-1.78.43-1.78,1.35,0,.79.52,1.31,1.42,1.31.67,0,1.35-.23,1.84-.61v-2Z"/>
        <path class="cls-1" d="m507.5,105.87v-5.46c0-1.06-.49-1.57-1.4-1.57-.77,0-1.46.25-2.02.52v6.5h-1.64v-8.32h1.21l.14.76c.65-.5,1.55-.94,2.52-.94,1.89,0,2.83,1.13,2.83,2.9v5.6h-1.64Z"/>
        <path class="cls-1" d="m515.51,105.87l-.18-.7c-.63.56-1.5.88-2.43.88-1.71,0-2.75-1.13-2.75-2.61,0-.74.29-1.48.88-1.94.56-.45,1.35-.63,2.23-.63.58,0,1.24.04,1.82.07v-.7c0-.5-.13-.83-.34-1.04-.31-.29-.81-.36-1.48-.36-.81,0-1.8.14-2.34.27l-.25-1.37c.72-.22,1.78-.36,2.74-.36,1.04,0,1.91.14,2.5.65.52.43.81,1.12.81,2.13v5.73h-1.21Zm-.43-3.73c-.41-.04-.97-.05-1.48-.05-1.21,0-1.78.43-1.78,1.35,0,.79.52,1.31,1.42,1.31.67,0,1.35-.23,1.84-.61v-2Z"/>
        <path class="cls-1" d="m523.09,105.4c-.58.4-1.28.65-1.98.65-2.36,0-3.22-1.53-3.22-4.27,0-3.12.97-4.41,3.28-4.41,1.24,0,2.67.27,3.57.58v8.68c0,.9-.29,1.53-.76,1.98-.61.56-1.57.72-2.56.72-.94,0-1.91-.14-2.68-.29l.22-1.4c.59.09,1.46.22,2.23.22.67,0,1.28-.07,1.58-.38.22-.23.32-.58.32-1.03v-1.04Zm0-6.41c-.49-.09-1.17-.16-1.76-.16-1.42,0-1.78.97-1.78,2.97,0,1.87.38,2.9,1.76,2.9.61,0,1.24-.13,1.78-.4v-5.31Z"/>
        <path class="cls-1" d="m532.31,105.38c-.74.34-1.8.67-2.88.67-2.45,0-3.76-1.53-3.76-4.29,0-2.29,1.04-4.39,3.58-4.39,2.02,0,3.19,1.44,3.19,3.67,0,.45-.05.9-.13,1.26h-4.99c.04.74.22,1.33.56,1.71.38.41.97.58,1.66.58.86,0,1.71-.23,2.39-.52l.38,1.31Zm-1.42-4.38c0-1.24-.36-2.23-1.69-2.23-1.21,0-1.78,1.08-1.85,2.23h3.55Z"/>
        <path class="cls-1" d="m543.31,105.87v-5.51c0-1.04-.5-1.51-1.42-1.51-.63,0-1.3.22-1.93.58.05.32.09.7.09,1.03v5.42h-1.64v-5.51c0-1.04-.49-1.51-1.4-1.51-.67,0-1.24.18-1.85.5v6.52h-1.64v-8.32h1.21l.14.76c.59-.45,1.44-.94,2.5-.94.99,0,1.73.38,2.16,1.06.72-.59,1.6-1.06,2.59-1.06,1.85,0,2.83,1.03,2.83,3.06v5.44h-1.64Z"/>
        <path class="cls-1" d="m552.47,105.38c-.74.34-1.8.67-2.88.67-2.45,0-3.76-1.53-3.76-4.29,0-2.29,1.04-4.39,3.58-4.39,2.02,0,3.19,1.44,3.19,3.67,0,.45-.05.9-.13,1.26h-4.99c.04.74.22,1.33.56,1.71.38.41.97.58,1.66.58.86,0,1.71-.23,2.39-.52l.38,1.31Zm-1.42-4.38c0-1.24-.36-2.23-1.69-2.23-1.21,0-1.78,1.08-1.85,2.23h3.55Z"/>
        <path class="cls-1" d="m558.73,105.87v-5.46c0-1.06-.49-1.57-1.4-1.57-.77,0-1.46.25-2.02.52v6.5h-1.64v-8.32h1.21l.14.76c.65-.5,1.55-.94,2.52-.94,1.89,0,2.83,1.13,2.83,2.9v5.6h-1.64Z"/>
        <path class="cls-1" d="m566.25,105.51c-.56.29-1.28.5-2,.5-1.35,0-2.13-.76-2.13-2.27v-4.84h-1.24v-1.21l1.3-.07.13-2.45h1.46v2.38h2.32v1.35h-2.32v4.59c0,.61.11,1.04.74,1.04.4,0,.77-.11,1.21-.31l.54,1.28Z"/>
      </g>
      <g>
        <path class="cls-1" d="m319.23,43.87v-14.81h2.21v14.81h-2.21Z"/>
        <path class="cls-1" d="m323.78,41.8c.85.14,2.21.32,3.5.32s2.48-.18,3.15-.83c.39-.37.62-.87.62-1.52,0-1.45-.9-1.93-3.45-2.69-2.55-.74-4.18-1.79-4.18-4.3,0-1.24.53-2.25,1.43-2.94,1.01-.78,2.3-1.01,3.66-1.01s2.8.21,4.09.46l-.28,1.84c-.87-.16-2.21-.32-3.43-.32-1.01,0-1.98.11-2.55.53-.46.34-.69.78-.69,1.38,0,1.52,1.17,1.95,3.61,2.69,2.39.74,4.02,1.75,4.02,4.35,0,1.38-.53,2.51-1.49,3.27-1.04.83-2.51,1.08-4.07,1.08-1.45,0-2.94-.21-4.21-.44l.28-1.86Z"/>
        <path class="cls-1" d="m334.32,36.46c0-5.01,1.91-7.63,6.39-7.63s6.39,2.62,6.39,7.63-1.91,7.63-6.39,7.63-6.39-2.62-6.39-7.63Zm10.53,0c0-3.91-1.17-5.66-4.14-5.66s-4.14,1.75-4.14,5.66,1.17,5.66,4.14,5.66,4.14-1.75,4.14-5.66Z"/>
        <path class="cls-1" d="m347.63,43.87l5.75-14.81h1.79l-5.7,14.81h-1.84Z"/>
        <path class="cls-1" d="m356.49,43.87v-14.81h2.21v14.81h-2.21Z"/>
        <path class="cls-1" d="m361.2,43.87v-14.81h8.81v1.95h-6.6v4.25h5.4v1.93h-5.4v4.71h6.6v1.95h-8.81Z"/>
        <path class="cls-1" d="m381.78,42.97c-1.27.64-3.06,1.13-4.74,1.13-1.91,0-3.73-.57-4.83-2.12-.92-1.26-1.38-3.1-1.38-5.52,0-2.58.58-4.46,1.63-5.75,1.22-1.45,3.01-1.89,4.97-1.89,1.31,0,2.69.18,3.84.44l-.21,1.86c-.92-.18-2.3-.32-3.5-.32-1.4,0-2.69.3-3.47,1.33-.71.97-1.01,2.39-1.01,4.32,0,1.79.23,3.17.85,4.14.71,1.13,1.91,1.52,3.2,1.52,1.43,0,2.81-.41,4.02-.9l.62,1.75Z"/>
        <path class="cls-1" d="m318.95,67.87v-1.75c4.09-3.56,7.01-6.35,7.01-8.81,0-1.84-1.38-2.51-2.92-2.51-1.29,0-2.78.41-3.75.8l-.62-1.75c1.15-.55,2.88-1.03,4.53-1.03,2.97,0,5.01,1.49,5.01,4.42,0,3.22-3.24,6-6.39,8.67h6.6v1.95h-9.47Z"/>
        <path class="cls-1" d="m330.01,60.46c0-4.97,1.04-7.63,5.36-7.63s5.33,2.67,5.33,7.63-1.04,7.63-5.33,7.63-5.36-2.69-5.36-7.63Zm8.49,0c0-3.52-.21-5.7-3.13-5.7s-3.15,2.18-3.15,5.7.18,5.73,3.15,5.73,3.13-2.23,3.13-5.73Z"/>
        <path class="cls-1" d="m342.3,60.46c0-4.97,1.04-7.63,5.36-7.63s5.33,2.67,5.33,7.63-1.04,7.63-5.33,7.63-5.36-2.69-5.36-7.63Zm8.49,0c0-3.52-.21-5.7-3.13-5.7s-3.15,2.18-3.15,5.7.18,5.73,3.15,5.73,3.13-2.23,3.13-5.73Z"/>
        <path class="cls-1" d="m354.58,60.46c0-4.97,1.04-7.63,5.36-7.63s5.33,2.67,5.33,7.63-1.04,7.63-5.33,7.63-5.36-2.69-5.36-7.63Zm8.49,0c0-3.52-.21-5.7-3.13-5.7s-3.15,2.18-3.15,5.7.18,5.73,3.15,5.73,3.13-2.23,3.13-5.73Z"/>
        <path class="cls-1" d="m366.86,60.46c0-4.97,1.04-7.63,5.36-7.63s5.33,2.67,5.33,7.63-1.04,7.63-5.33,7.63-5.36-2.69-5.36-7.63Zm8.49,0c0-3.52-.21-5.7-3.13-5.7s-3.15,2.18-3.15,5.7.18,5.73,3.15,5.73,3.13-2.23,3.13-5.73Z"/>
        <path class="cls-1" d="m378.64,62.97v-1.61h4.99v1.61h-4.99Z"/>
        <path class="cls-1" d="m386.98,67.87v-12.58l-3.08,1.17-.67-1.5,3.96-1.91h2v14.81h-2.21Z"/>
        <path class="cls-1" d="m318.81,86.87v-11.6h1.73v11.6h-1.73Z"/>
        <path class="cls-1" d="m324.59,86.87v-10.06h-3.26v-1.53h8.25v1.53h-3.26v10.06h-1.73Z"/>
        <path class="cls-1" d="m333.68,85.25c.67.11,1.73.25,2.74.25s1.94-.14,2.47-.65c.31-.29.49-.68.49-1.19,0-1.13-.7-1.51-2.7-2.11-2-.58-3.28-1.4-3.28-3.37,0-.97.41-1.76,1.12-2.3.79-.61,1.8-.79,2.86-.79s2.2.16,3.21.36l-.22,1.44c-.68-.13-1.73-.25-2.68-.25-.79,0-1.55.09-2,.41-.36.27-.54.61-.54,1.08,0,1.19.92,1.53,2.83,2.11,1.87.58,3.15,1.37,3.15,3.4,0,1.08-.41,1.96-1.17,2.56-.81.65-1.96.85-3.19.85-1.13,0-2.3-.16-3.29-.34l.22-1.46Z"/>
        <path class="cls-1" d="m348.41,86.38c-.74.34-1.8.67-2.88.67-2.45,0-3.76-1.53-3.76-4.29,0-2.29,1.04-4.39,3.58-4.39,2.02,0,3.19,1.44,3.19,3.67,0,.45-.05.9-.13,1.26h-4.99c.04.74.22,1.33.56,1.71.38.41.97.58,1.66.58.86,0,1.71-.23,2.39-.52l.38,1.31Zm-1.42-4.38c0-1.24-.36-2.23-1.69-2.23-1.21,0-1.78,1.08-1.85,2.23h3.55Z"/>
        <path class="cls-1" d="m349.61,86.87v-8.32h1.22l.22,1.03h.07c.65-.94,1.42-1.19,2.47-1.19.2,0,.4,0,.72.04l-.11,1.49c-.32-.05-.65-.07-.99-.07-.7,0-1.4.16-1.96.63v6.39h-1.64Z"/>
        <path class="cls-1" d="m356.63,86.87c-1.08-2.68-1.93-5.58-2.56-8.32h1.69c.56,2.48,1.21,5.01,1.96,7.02h.14c.76-2.02,1.4-4.54,1.96-7.02h1.69c-.63,2.74-1.48,5.64-2.56,8.32h-2.34Z"/>
        <path class="cls-1" d="m363.13,75.22c.5,0,.92.41.92.92s-.41.9-.92.9-.9-.4-.9-.9.4-.92.9-.92Zm-.81,11.65v-8.32h1.64v8.32h-1.64Z"/>
        <path class="cls-1" d="m371.5,86.38c-.76.36-1.82.67-2.84.67-2.18,0-3.58-1.22-3.58-4.3,0-3.53,1.78-4.38,3.82-4.38.81,0,1.62.09,2.3.25l-.14,1.37c-.59-.09-1.26-.16-1.89-.16-1.6,0-2.43.63-2.43,2.88,0,2.02.68,2.88,2.09,2.88.81,0,1.57-.23,2.23-.52l.45,1.31Z"/>
        <path class="cls-1" d="m378.52,86.38c-.74.34-1.8.67-2.88.67-2.45,0-3.76-1.53-3.76-4.29,0-2.29,1.04-4.39,3.58-4.39,2.02,0,3.19,1.44,3.19,3.67,0,.45-.05.9-.13,1.26h-4.99c.04.74.22,1.33.56,1.71.38.41.97.58,1.66.58.86,0,1.71-.23,2.39-.52l.38,1.31Zm-1.42-4.38c0-1.24-.36-2.23-1.69-2.23-1.21,0-1.78,1.08-1.85,2.23h3.55Z"/>
        <path class="cls-1" d="m328.37,105.87c-.09-3.1-.23-6.28-.38-9.34h-.09l-2.63,7.38h-1.85l-2.63-7.38h-.09c-.14,3.06-.29,6.25-.38,9.34h-1.75c.13-3.85.32-7.72.54-11.6h2.52l2.67,7.69h.09l2.67-7.69h2.52c.22,3.87.41,7.74.54,11.6h-1.75Z"/>
        <path class="cls-1" d="m336.56,105.87l-.18-.7c-.63.56-1.5.88-2.43.88-1.71,0-2.75-1.13-2.75-2.61,0-.74.29-1.48.88-1.94.56-.45,1.35-.63,2.23-.63.58,0,1.24.04,1.82.07v-.7c0-.5-.13-.83-.34-1.04-.31-.29-.81-.36-1.48-.36-.81,0-1.8.14-2.34.27l-.25-1.37c.72-.22,1.78-.36,2.74-.36,1.04,0,1.91.14,2.5.65.52.43.81,1.12.81,2.12v5.73h-1.21Zm-.43-3.73c-.41-.04-.97-.05-1.48-.05-1.21,0-1.78.43-1.78,1.35,0,.79.52,1.31,1.42,1.31.67,0,1.35-.23,1.84-.61v-2Z"/>
        <path class="cls-1" d="m344.39,105.87v-5.46c0-1.06-.49-1.57-1.4-1.57-.77,0-1.46.25-2.02.52v6.5h-1.64v-8.32h1.21l.14.76c.65-.5,1.55-.94,2.52-.94,1.89,0,2.83,1.13,2.83,2.9v5.6h-1.64Z"/>
        <path class="cls-1" d="m352.4,105.87l-.18-.7c-.63.56-1.5.88-2.43.88-1.71,0-2.75-1.13-2.75-2.61,0-.74.29-1.48.88-1.94.56-.45,1.35-.63,2.23-.63.58,0,1.24.04,1.82.07v-.7c0-.5-.13-.83-.34-1.04-.31-.29-.81-.36-1.48-.36-.81,0-1.8.14-2.34.27l-.25-1.37c.72-.22,1.78-.36,2.74-.36,1.04,0,1.91.14,2.5.65.52.43.81,1.12.81,2.12v5.73h-1.21Zm-.43-3.73c-.41-.04-.97-.05-1.48-.05-1.21,0-1.78.43-1.78,1.35,0,.79.52,1.31,1.42,1.31.67,0,1.35-.23,1.84-.61v-2Z"/>
        <path class="cls-1" d="m359.98,105.4c-.58.4-1.28.65-1.98.65-2.36,0-3.22-1.53-3.22-4.27,0-3.12.97-4.41,3.28-4.41,1.24,0,2.67.27,3.57.58v8.68c0,.9-.29,1.53-.76,1.98-.61.56-1.57.72-2.56.72-.94,0-1.91-.14-2.68-.29l.22-1.4c.59.09,1.46.22,2.23.22.67,0,1.28-.07,1.58-.38.22-.23.32-.58.32-1.03v-1.04Zm0-6.41c-.49-.09-1.17-.16-1.76-.16-1.42,0-1.78.97-1.78,2.97,0,1.87.38,2.9,1.76,2.9.61,0,1.24-.13,1.78-.4v-5.31Z"/>
        <path class="cls-1" d="m369.2,105.38c-.74.34-1.8.67-2.88.67-2.45,0-3.76-1.53-3.76-4.29,0-2.29,1.04-4.39,3.58-4.39,2.02,0,3.19,1.44,3.19,3.67,0,.45-.05.9-.13,1.26h-4.99c.04.74.22,1.33.56,1.71.38.41.97.58,1.66.58.86,0,1.71-.23,2.39-.52l.38,1.31Zm-1.42-4.38c0-1.24-.36-2.23-1.69-2.23-1.21,0-1.78,1.08-1.85,2.23h3.55Z"/>
        <path class="cls-1" d="m380.19,105.87v-5.51c0-1.04-.5-1.51-1.42-1.51-.63,0-1.3.22-1.93.58.05.32.09.7.09,1.03v5.42h-1.64v-5.51c0-1.04-.49-1.51-1.4-1.51-.67,0-1.24.18-1.85.5v6.52h-1.64v-8.32h1.21l.14.76c.59-.45,1.44-.94,2.5-.94.99,0,1.73.38,2.16,1.06.72-.59,1.6-1.06,2.59-1.06,1.85,0,2.83,1.03,2.83,3.06v5.44h-1.64Z"/>
        <path class="cls-1" d="m389.36,105.38c-.74.34-1.8.67-2.88.67-2.45,0-3.76-1.53-3.76-4.29,0-2.29,1.04-4.39,3.58-4.39,2.02,0,3.19,1.44,3.19,3.67,0,.45-.05.9-.13,1.26h-4.99c.04.74.22,1.33.56,1.71.38.41.97.58,1.66.58.86,0,1.71-.23,2.39-.52l.38,1.31Zm-1.42-4.38c0-1.24-.36-2.23-1.69-2.23-1.21,0-1.78,1.08-1.85,2.23h3.55Z"/>
        <path class="cls-1" d="m395.62,105.87v-5.46c0-1.06-.49-1.57-1.4-1.57-.77,0-1.46.25-2.02.52v6.5h-1.64v-8.32h1.21l.14.76c.65-.5,1.55-.94,2.52-.94,1.89,0,2.83,1.13,2.83,2.9v5.6h-1.64Z"/>
        <path class="cls-1" d="m403.14,105.51c-.56.29-1.28.5-2,.5-1.35,0-2.12-.76-2.12-2.27v-4.84h-1.24v-1.21l1.3-.07.13-2.45h1.46v2.38h2.32v1.35h-2.32v4.59c0,.61.11,1.04.74,1.04.4,0,.77-.11,1.21-.31l.54,1.28Z"/>
      </g>
      <path class="cls-1" d="m74.99,68.21c.51-7.99,7.06-14.33,15.04-14.33s14.52,6.34,15.04,14.33h-30.08Zm12.68,35.71c-2.13-6.27-7.19-9.57-11.45-12.35-4.73-3.08-6.71-4.68-6.8-7.64.03-4.05,3.25-7.37,7.21-7.37h26.27l-15.23,27.37Zm-20.33,23.82c.15.03,1.85.31,3.54.32,1.62,0,3.24-.25,3.53-.33l-3.53,6.34-3.54-6.33Zm-4.29-51.18c-1.12,2.14-1.77,4.58-1.82,7.17h0c0,.08,0,.17,0,.25v.02c.13,7.84,5.92,11.62,10.59,14.67,5.55,3.62,8.69,5.95,8.69,11.9s-4.64,9.26-10.34,9.26c-3.66,0-8.3-1.97-10.15-5.22l-1.64-2.84-19.72-35.2h24.38Zm-10.98-22.68c7.98,0,14.53,6.34,15.04,14.33h-30.06c.51-7.99,7.06-14.33,15.03-14.33m37.95-7.98c-7.74,0-14.72,3.85-18.97,10.37-4.25-6.52-11.23-10.37-18.97-10.37-12.82,0-23.25,10.47-23.25,23.33,0,0,0,.12,0,2.37s.26,4.26,2.04,7.33c1.78,3.07,40.02,69.02,40.02,69.02,0,0,37.97-65.55,39.85-69.02,1.88-3.48,2.18-4.97,2.18-7.33v-2.37c0-12.86-10.26-23.33-22.88-23.33"/>
      <path class="cls-1" d="m56.48,12.39c-2.54,0-4.98.83-6.8,2.04V0h-5.68v39.07h3.34l.92-2.1c2.23,1.67,4.82,2.71,8.23,2.71,7.4,0,10.14-5.1,10.14-13.65s-2.74-13.64-10.14-13.64m-1.33,4.95c4.98,0,5.74,3.9,5.74,8.69s-.76,8.71-5.74,8.71c-2.68,0-4.46-.95-5.48-1.52v-14.38c1.01-.58,2.79-1.51,5.48-1.51m18.66,3.17c0-2.35,1.88-3.23,4.88-3.23,3.19,0,5.59.62,7.76,1.46v-5.06c-1.98-.88-4.42-1.3-7.87-1.3-7.46,0-10.3,3.8-10.3,8.28s1.88,6.92,9.54,7.61c3.4.3,4.21,1.29,4.21,3.22,0,2.29-1.98,3.24-6.04,3.24-3.2,0-5.89-.84-7.56-1.46v4.99c1.72.72,4.87,1.4,8.38,1.4,8.12,0,10.81-3.9,10.81-8.38,0-4.84-1.98-7.19-9.59-7.86-3.3-.31-4.22-1.1-4.22-2.92m22.82,18.91c.61,0,1.12-.11,1.12-.11v-4.73c-1.63,0-2.13-.53-2.13-1.98V13.02h-5.68v19.64c0,4.47,2.09,6.77,6.7,6.77m-7.56-34.13c0,2.09,1.67,3.8,3.7,3.8s3.71-1.71,3.71-3.8-1.68-3.8-3.71-3.8-3.7,1.71-3.7,3.8"/>
      <path class="cls-1" d="m70.87,155.91C31.79,155.91,0,124.12,0,85.04c0-25.18,12.91-47.93,34.52-60.85.84-.5,1.93-.23,2.43.61.5.84.23,1.93-.61,2.43C15.8,39.51,3.54,61.12,3.54,85.04c0,37.12,30.2,67.32,67.32,67.32s67.32-30.2,67.32-67.32c0-23.92-12.26-45.53-32.8-57.81-.84-.5-1.11-1.59-.61-2.43.5-.84,1.59-1.11,2.43-.61,21.62,12.93,34.52,35.68,34.52,60.85,0,39.08-31.79,70.87-70.87,70.87Z"/>
    </g>
  </g>
</svg>