<svg width="60" height="60" viewBox="0 0 60 60" fill="none" xmlns="http://www.w3.org/2000/svg">
<g clip-path="url(#clip0_862_8750)">
<path d="M42.2442 54.4544H17.7441C17.3019 54.4544 16.9434 54.0959 16.9434 53.6537V9.33833C16.9434 8.89614 17.3019 8.5376 17.7441 8.5376H42.2442C42.6864 8.5376 43.0449 8.89614 43.0449 9.33833V53.6537C43.0449 54.0959 42.6864 54.4544 42.2442 54.4544ZM18.5448 52.8649H41.4554V10.1271H18.5448V52.8529V52.8649Z" fill="#1D4580"/>
<path d="M55.1993 50.869H42.2441C41.8019 50.869 41.4434 50.5105 41.4434 50.0683V22.3772C41.4434 21.935 41.8019 21.5764 42.2441 21.5764H55.1993C55.6415 21.5764 56 21.935 56 22.3772V50.0683C56 50.5105 55.6415 50.869 55.1993 50.869ZM43.0448 49.2795H54.3985V23.1779H43.0448V49.2795Z" fill="#1D4580"/>
<path d="M17.744 50.869H4.80074C4.35854 50.869 4 50.5105 4 50.0683V22.3772C4 21.935 4.35854 21.5764 4.80074 21.5764H17.744C18.1862 21.5764 18.5447 21.935 18.5447 22.3772V50.0683C18.5447 50.5105 18.1862 50.869 17.744 50.869ZM5.58952 49.2795H16.9432V23.1779H5.58952V49.2795Z" fill="#1D4580"/>
<path d="M35.0614 15.0152V18.242C35.0614 18.6723 34.7149 19.0308 34.2727 19.0308H32.4083V20.8952C32.4083 21.3374 32.0497 21.6959 31.6075 21.6959H28.3807C27.9385 21.6959 27.5799 21.3374 27.5799 20.8952V19.0308H25.7155C25.2853 19.0308 24.9268 18.6723 24.9268 18.242V15.0152C24.9268 14.573 25.2853 14.2145 25.7155 14.2145H27.5799V12.3501C27.5799 11.9079 27.9385 11.5493 28.3807 11.5493H31.6075C32.0497 11.5493 32.4083 11.9079 32.4083 12.3501V14.2145H34.2727C34.7149 14.2145 35.0614 14.573 35.0614 15.0152Z" fill="#1D4580"/>
<path d="M43.5349 10.1271H16.4653C16.0231 10.1271 15.6646 9.76856 15.6646 9.32636V5.80074C15.6646 5.35854 16.0231 5 16.4653 5H43.5349C43.9771 5 44.3357 5.35854 44.3357 5.80074V9.33831C44.3357 9.78051 43.9771 10.139 43.5349 10.139V10.1271ZM17.266 8.53758H42.7342V6.58952H17.266V8.52563V8.53758Z" fill="#1D4580"/>
<path d="M36.3762 54.4545H23.6123C23.1701 54.4545 22.8115 54.0959 22.8115 53.6537V40.3042C22.8115 39.862 23.1701 39.5034 23.6123 39.5034H36.3762C36.8184 39.5034 37.177 39.862 37.177 40.3042V53.6537C37.177 54.0959 36.8184 54.4545 36.3762 54.4545ZM24.413 52.8649H35.5755V41.1168H24.413V52.8649Z" fill="#1D4580"/>
<path d="M29.9941 46.0049C29.5519 46.0049 29.1934 45.6464 29.1934 45.2042V40.3161C29.1934 39.8739 29.5519 39.5154 29.9941 39.5154C30.4363 39.5154 30.7948 39.8739 30.7948 40.3161V45.2042C30.7948 45.6464 30.4363 46.0049 29.9941 46.0049Z" fill="#1D4580"/>
<path d="M29.9941 54.4543C29.5519 54.4543 29.1934 54.0957 29.1934 53.6535V48.6579C29.1934 48.2157 29.5519 47.8572 29.9941 47.8572C30.4363 47.8572 30.7948 48.2157 30.7948 48.6579V53.6535C30.7948 54.0957 30.4363 54.4543 29.9941 54.4543Z" fill="#1D4580"/>
<path d="M14.6723 33.1334H7.87202C7.42983 33.1334 7.07129 32.7748 7.07129 32.3326V27.7075C7.07129 27.2653 7.42983 26.9067 7.87202 26.9067H14.6843C15.1264 26.9067 15.485 27.2653 15.485 27.7075V32.3326C15.485 32.7748 15.1264 33.1334 14.6843 33.1334H14.6723ZM8.66081 31.5438H13.8716V28.5082H8.66081V31.5438Z" fill="#1D4580"/>
<path d="M14.6723 42.7064H7.87202C7.42983 42.7064 7.07129 42.3478 7.07129 41.9056V37.2805C7.07129 36.8383 7.42983 36.4797 7.87202 36.4797H14.6843C15.1264 36.4797 15.485 36.8383 15.485 37.2805V41.9056C15.485 42.3478 15.1264 42.7064 14.6843 42.7064H14.6723ZM8.66081 41.1049H13.8716V38.0693H8.66081V41.1049Z" fill="#1D4580"/>
<path d="M52.1276 33.1334H45.3154C44.8732 33.1334 44.5146 32.7748 44.5146 32.3326V27.7075C44.5146 27.2653 44.8732 26.9067 45.3154 26.9067H52.1276C52.5698 26.9067 52.9283 27.2653 52.9283 27.7075V32.3326C52.9283 32.7748 52.5698 33.1334 52.1276 33.1334ZM46.1161 31.5438H51.3269V28.5082H46.1161V31.5438Z" fill="#1D4580"/>
<path d="M52.1276 42.7064H45.3154C44.8732 42.7064 44.5146 42.3478 44.5146 41.9056V37.2805C44.5146 36.8383 44.8732 36.4797 45.3154 36.4797H52.1276C52.5698 36.4797 52.9283 36.8383 52.9283 37.2805V41.9056C52.9283 42.3478 52.5698 42.7064 52.1276 42.7064ZM46.1161 41.1049H51.3269V38.0693H46.1161V41.1049Z" fill="#1D4580"/>
<path d="M24.6518 37.4357H20.6601C20.2179 37.4357 19.8594 37.0772 19.8594 36.635V32.1174C19.8594 31.6752 20.2179 31.3167 20.6601 31.3167H24.6518C25.094 31.3167 25.4526 31.6752 25.4526 32.1174V36.635C25.4526 37.0772 25.094 37.4357 24.6518 37.4357ZM21.4608 35.8462H23.8511V32.9181H21.4608V35.8462Z" fill="#1D4580"/>
<path d="M31.9897 37.4357H27.998C27.5558 37.4357 27.1973 37.0772 27.1973 36.635V32.1174C27.1973 31.6752 27.5558 31.3167 27.998 31.3167H31.9897C32.4319 31.3167 32.7905 31.6752 32.7905 32.1174V36.635C32.7905 37.0772 32.4319 37.4357 31.9897 37.4357ZM28.7987 35.8462H31.189V32.9181H28.7987V35.8462Z" fill="#1D4580"/>
<path d="M39.3398 37.4357H35.3481C34.9059 37.4357 34.5474 37.0772 34.5474 36.635V32.1174C34.5474 31.6752 34.9059 31.3167 35.3481 31.3167H39.3398C39.782 31.3167 40.1406 31.6752 40.1406 32.1174V36.635C40.1406 37.0772 39.782 37.4357 39.3398 37.4357ZM36.1488 35.8462H38.5391V32.9181H36.1488V35.8462Z" fill="#1D4580"/>
<path d="M24.6518 29.7272H20.6601C20.2179 29.7272 19.8594 29.3687 19.8594 28.9265V24.4089C19.8594 23.9667 20.2179 23.6082 20.6601 23.6082H24.6518C25.094 23.6082 25.4526 23.9667 25.4526 24.4089V28.9265C25.4526 29.3687 25.094 29.7272 24.6518 29.7272ZM21.4608 28.1377H23.8511V25.2096H21.4608V28.1377Z" fill="#1D4580"/>
<path d="M31.9897 29.7272H27.998C27.5558 29.7272 27.1973 29.3687 27.1973 28.9265V24.4089C27.1973 23.9667 27.5558 23.6082 27.998 23.6082H31.9897C32.4319 23.6082 32.7905 23.9667 32.7905 24.4089V28.9265C32.7905 29.3687 32.4319 29.7272 31.9897 29.7272ZM28.7987 28.1377H31.189V25.2096H28.7987V28.1377Z" fill="#1D4580"/>
<path d="M39.3398 29.7272H35.3481C34.9059 29.7272 34.5474 29.3687 34.5474 28.9265V24.4089C34.5474 23.9667 34.9059 23.6082 35.3481 23.6082H39.3398C39.782 23.6082 40.1406 23.9667 40.1406 24.4089V28.9265C40.1406 29.3687 39.782 29.7272 39.3398 29.7272ZM36.1488 28.1377H38.5391V25.2096H36.1488V28.1377Z" fill="#1D4580"/>
<path d="M50.0006 54.4545H9.98775C9.54555 54.4545 9.18701 54.096 9.18701 53.6538C9.18701 53.2116 9.54555 52.853 9.98775 52.853H50.0006C50.4428 52.853 50.8014 53.2116 50.8014 53.6538C50.8014 54.096 50.4428 54.4545 50.0006 54.4545Z" fill="#1D4580"/>
</g>
<defs>
<clipPath id="clip0_862_8750">
<rect width="52" height="49.4544" fill="white" transform="translate(4 5)"/>
</clipPath>
</defs>
</svg>
