<svg width="60" height="60" viewBox="0 0 60 60" fill="none" xmlns="http://www.w3.org/2000/svg">
<g clip-path="url(#clip0_862_8792)">
<path fill-rule="evenodd" clip-rule="evenodd" d="M12.0203 35.3938C14.3267 42.1035 20.2676 47.1008 27.5014 48.0618C27.9732 47.1532 28.9168 46.5417 30.0176 46.5417C31.5902 46.5417 32.8482 47.8172 32.8482 49.3723C32.8482 50.9274 31.5727 52.203 30.0176 52.203C28.7945 52.203 27.7635 51.4341 27.3617 50.3508C18.9221 49.3024 12.0377 43.3266 9.62645 35.3938H6.72591C5.2407 35.3938 4.01758 34.1707 4.01758 32.6855V25.7487C4.01758 24.2634 5.2407 23.0403 6.72591 23.0403H8.66543C11.3213 13.7796 19.8657 7 30.0001 7C40.1345 7 48.6789 13.7796 51.3523 23.0403H53.2918C54.777 23.0403 56.0001 24.2634 56.0001 25.7487V32.6855C56.0001 34.1707 54.777 35.3938 53.2918 35.3938H47.9799C48.6439 33.4543 49.0109 31.375 49.0109 29.2083C49.0109 18.707 40.5014 10.1976 30.0001 10.1976C19.4988 10.1976 10.9894 18.7245 10.9894 29.2258C10.9894 31.3925 11.3563 33.4718 12.0203 35.4113" fill="#023F87"/>
<path fill-rule="evenodd" clip-rule="evenodd" d="M29.9999 42.3832C22.7311 42.3832 16.8252 36.4947 16.8252 29.2084C16.8252 21.9396 22.7136 16.0337 29.9999 16.0337C37.2862 16.0337 43.1746 21.9221 43.1746 29.2084C43.1746 29.3133 43.1746 29.4181 43.1746 29.5055V29.5928C43.1746 29.5928 43.1746 29.7501 43.1746 29.82V29.8899C43.1746 29.9947 43.1746 30.0821 43.1572 30.1869V30.2568C43.1572 30.2568 43.1397 30.4141 43.1222 30.484V30.5713C43.1222 30.5713 43.0873 30.7286 43.0873 30.7985V30.8684C43.0698 30.9557 43.0523 31.0606 43.0349 31.148V31.2353C43.0349 31.2353 42.9999 31.3751 42.9824 31.445V31.5324C42.9824 31.5324 42.93 31.6896 42.9125 31.7595V31.8119C42.8776 31.8993 42.8601 31.9867 42.8426 32.0915V32.1963C42.8426 32.1963 42.7902 32.3187 42.7728 32.3885L42.7378 32.4934C42.7203 32.5807 42.6854 32.6681 42.6679 32.7555V32.8254C42.6679 32.8254 42.6155 32.9652 42.5805 33.035L42.5456 33.1399C42.5456 33.1399 42.5107 33.2622 42.4932 33.3146L42.4582 33.4195C42.4582 33.4195 42.4058 33.5942 42.3709 33.6641L42.3359 33.7689C42.3359 33.7689 42.301 33.8738 42.266 33.9262L42.2136 34.0485C42.2136 34.0485 42.1787 34.1533 42.1437 34.2057L42.0913 34.3281C42.0913 34.3281 42.0214 34.4678 42.0039 34.5377L41.9515 34.66L41.8816 34.7998L41.8292 34.9221C41.8292 34.9221 41.7768 35.0095 41.7593 35.0619C41.7244 35.1318 41.6894 35.1842 41.6545 35.2541C41.637 35.2891 41.6021 35.3415 41.5846 35.3764C41.5671 35.4289 41.5322 35.4638 41.5147 35.5162L41.4623 35.6211C41.4623 35.6211 41.4099 35.7084 41.3749 35.7609L41.34 35.8307C41.2875 35.9181 41.2351 36.0055 41.1827 36.1103L41.1303 36.1977C41.1303 36.1977 41.0604 36.3025 41.0254 36.3549L40.973 36.4248C40.8682 36.5821 40.7633 36.7219 40.6585 36.8791L41.7593 40.9678L37.6706 39.867C36.9892 40.3563 36.2378 40.7931 35.469 41.16C33.7916 41.9289 31.9394 42.3482 29.9824 42.3482M45.516 44.7071L43.5241 37.281L43.594 37.1412C43.6289 37.0713 43.6814 36.984 43.7163 36.9141L43.7687 36.8092C43.7687 36.8092 43.8386 36.6695 43.8736 36.5996L43.9435 36.4598C43.9435 36.4598 44.0133 36.32 44.0483 36.2501C44.0658 36.1977 44.1007 36.1453 44.1182 36.0928C44.1531 36.023 44.1706 35.9705 44.2056 35.9006C44.2405 35.8482 44.258 35.7958 44.2929 35.7259C44.3104 35.6735 44.3453 35.6211 44.3628 35.5687C44.3978 35.4988 44.4152 35.4463 44.4502 35.3764C44.4676 35.324 44.5026 35.2716 44.5201 35.2017C44.5375 35.1318 44.5725 35.0794 44.59 35.0095C44.6074 34.9571 44.6249 34.9047 44.6599 34.8523C44.6948 34.7824 44.7123 34.7125 44.7472 34.6426L44.7996 34.5028C44.7996 34.5028 44.8521 34.3455 44.887 34.2582L44.9219 34.1533C44.9219 34.1533 44.9744 33.9786 45.0093 33.8912L45.0443 33.7864C45.0792 33.699 45.0967 33.6117 45.1316 33.5068V33.4195C45.184 33.3146 45.2015 33.2273 45.2365 33.1224V33.035C45.2889 32.9302 45.3064 32.8428 45.3238 32.738V32.6681C45.3588 32.5633 45.3937 32.4584 45.4112 32.3536V32.2837C45.4461 32.1789 45.4636 32.074 45.4811 31.9517V31.8993C45.516 31.777 45.5335 31.6721 45.551 31.5498V31.5149C45.5685 31.3926 45.5859 31.2877 45.6034 31.1654V31.1305C45.6209 31.0082 45.6383 30.9033 45.6558 30.781V30.7461C45.6558 30.6238 45.6908 30.5014 45.6908 30.3791C45.6908 30.2219 45.6908 30.0996 45.7082 29.9773C45.7082 29.8375 45.7082 29.6977 45.7082 29.5754C45.7082 29.4356 45.7082 29.3133 45.7082 29.1735C45.7082 20.4544 38.6491 13.3953 29.93 13.3953C21.2109 13.3953 14.2217 20.5068 14.2217 29.2259C14.2217 37.945 21.2808 45.0041 29.9999 45.0041C31.9219 45.0041 33.7741 44.6547 35.4865 44.0256C35.5564 43.9907 35.6437 43.9732 35.7136 43.9383L35.8709 43.8859C35.8709 43.8859 36.0107 43.8334 36.0806 43.7985L36.2203 43.7461C36.2203 43.7461 36.3601 43.6937 36.4125 43.6587C36.465 43.6412 36.5174 43.6063 36.5698 43.5888C36.6397 43.5539 36.6921 43.5364 36.762 43.5014L36.9193 43.4316C36.9193 43.4316 37.0416 43.3791 37.094 43.3442C37.1464 43.3092 37.2163 43.2918 37.2687 43.2568C37.3211 43.2219 37.3736 43.2044 37.426 43.1695C37.4784 43.1345 37.5483 43.0996 37.6007 43.0646L37.758 42.9773C37.758 42.9773 37.8803 42.9074 37.9502 42.8724C38.0026 42.8549 38.0375 42.82 38.0725 42.8025H38.09L45.516 44.777V44.7071Z" fill="#023F87"/>
<path fill-rule="evenodd" clip-rule="evenodd" d="M22.7662 26.4824C24.2689 26.4824 25.492 27.7055 25.492 29.2082C25.492 30.7109 24.2689 31.9515 22.7662 31.9515C21.2635 31.9515 20.0229 30.7284 20.0229 29.2082C20.0229 27.6881 21.2461 26.4824 22.7662 26.4824ZM37.2514 26.4824C38.7541 26.4824 39.9773 27.7055 39.9773 29.2082C39.9773 30.7109 38.7541 31.9515 37.2514 31.9515C35.7488 31.9515 34.5082 30.7284 34.5082 29.2082C34.5082 27.6881 35.7313 26.4824 37.2514 26.4824ZM30.0176 26.4824C31.5203 26.4824 32.7609 27.7055 32.7609 29.2257C32.7609 30.7459 31.5377 31.9515 30.0176 31.9515C28.4974 31.9515 27.2918 30.7284 27.2918 29.2257C27.2918 27.723 28.5149 26.4824 30.0176 26.4824Z" fill="#023F87"/>
</g>
<defs>
<clipPath id="clip0_862_8792">
<rect width="52" height="45.2204" fill="white" transform="translate(4 7)"/>
</clipPath>
</defs>
</svg>
