<svg width="60" height="60" viewBox="0 0 60 60" fill="none" xmlns="http://www.w3.org/2000/svg">
<g clip-path="url(#clip0_862_8820)">
<path d="M8.27657 39.8873L4.05727 35.8201C3.94324 35.706 4.00026 35.516 4.1523 35.478C6.87014 34.7938 24.5646 30.6505 33.0982 36.1242C33.3073 36.2572 33.1362 36.5803 32.9081 36.4853C24.2795 33.3113 9.54996 36.2952 7.21224 36.8084C7.0602 36.8464 7.00318 37.0174 7.09821 37.1315L8.86575 39.3172C9.18885 39.7163 8.63768 40.2294 8.25756 39.8683L8.27657 39.8873Z" fill="#00A651"/>
<path d="M33.6686 33.9194C31.2548 32.0758 24.4508 28.0086 11.6028 28.5027C11.4698 28.5027 11.3747 28.6358 11.4127 28.7688L12.5721 32.1518C12.6101 32.2469 12.7051 32.3039 12.8002 32.2849C14.2066 31.9998 23.8426 30.3273 33.4595 34.2615C33.6876 34.3565 33.8586 34.0524 33.6686 33.9194Z" fill="#023F87"/>
<path d="M33.2127 31.6769C31.3311 29.5672 26.5987 25.3479 18.0841 24.1696C17.932 24.1506 17.818 24.3026 17.856 24.4357C18.4072 26.0892 18.7113 27.0965 18.8063 27.4386C18.8253 27.5146 18.9013 27.5716 18.9773 27.5906C21.163 27.7617 27.739 28.4649 32.9086 31.981C33.1177 32.114 33.3458 31.867 33.1747 31.6769H33.2127Z" fill="#00A651"/>
<path d="M40.701 36.0481C40.4729 29.149 53.5489 21.5087 55.8867 20.1973C56.0387 20.1212 56.0197 19.8932 55.8677 19.8361C54.9934 19.494 52.5226 18.7528 47.9802 19.0949C47.9612 19.0949 47.9422 19.0949 47.9232 19.0949C33.3647 24.4166 34.9042 35.8961 34.9612 36.3522C34.9612 36.3522 34.9612 36.3522 34.9612 36.3712C34.9612 36.4282 35.0563 36.7323 35.1133 37.1125C35.1133 37.2455 35.2653 37.3215 35.3984 37.2645C37.2989 36.4282 37.9451 36.3902 40.1118 36.0861" fill="#023F87"/>
<path d="M35.7402 34.8697C35.7402 34.8697 34.7899 25.8799 45.8323 20.7864C43.0195 22.2688 36.7285 26.4501 35.7402 34.8697Z" fill="white"/>
<path d="M36.7094 34.7938C36.7094 34.7938 36.5574 32.0949 38.2489 28.864C39.6553 26.1841 42.3352 23.1432 47.4287 20.9575C44.5398 22.364 38.0779 26.3932 36.6904 34.7938H36.7094Z" fill="white"/>
<path d="M37.9258 34.6607C37.9258 34.6607 38.1729 25.2338 49.5954 20.6724C46.6495 22.0218 39.6553 26.2981 37.9258 34.6607Z" fill="white"/>
<path d="M38.6104 34.8318C38.6104 34.8318 40.2829 25.2528 51.7054 20.6914C48.7595 22.0408 41.7653 26.2031 38.6104 34.8318Z" fill="white"/>
<path d="M39.085 35.6111C39.085 35.6111 40.4724 25.7851 54.5747 20.2354C51.1917 21.5468 42.506 26.2602 39.085 35.6111Z" fill="white"/>
<path d="M22.1125 38.823C22.0174 38.5189 21.9034 38.2338 21.8084 37.9297L21.5803 38.2148V38.823C21.5803 38.9751 21.5043 39.0701 21.3142 39.0701H21.2002C21.2002 38.3669 21.2002 37.6637 21.2002 36.9795H21.2762C21.2762 36.9795 21.3522 36.9795 21.3903 36.9795C21.5233 36.9985 21.5803 37.0935 21.5803 37.2075V37.8537L22.2265 37.0745C22.3215 36.9605 22.3786 36.9604 22.5116 36.9604H22.5686C22.3976 37.1885 22.2265 37.3976 22.0555 37.6257C22.2265 38.1008 22.4166 38.5759 22.5876 39.0701H22.5306C22.5306 39.0701 22.3596 39.0701 22.2835 39.0321C22.2265 39.0131 22.1885 38.9751 22.1505 38.9181C22.1315 38.88 22.1125 38.861 22.0935 38.823H22.1125Z" fill="#00A551"/>
<path d="M23.9754 38.785C23.8804 38.975 23.6713 39.0511 23.4242 39.0511C23.0631 39.0511 22.873 38.861 22.778 38.5949C22.721 38.4239 22.702 38.1958 22.721 37.9867C22.778 37.6636 22.9681 37.3215 23.3672 37.3215C23.9564 37.3215 24.0134 37.7777 24.0324 38.1768H23.0441C23.0441 38.4239 23.0821 38.861 23.4432 38.861C23.5382 38.861 23.6143 38.861 23.6713 38.804C23.7663 38.747 23.8233 38.709 23.9374 38.766L23.9754 38.785ZM23.7283 38.0438C23.7283 37.9487 23.7283 37.8537 23.6903 37.7967C23.5953 37.4166 23.1961 37.4546 23.1011 37.7967C23.1011 37.8727 23.0631 37.9487 23.0631 38.0438H23.7093H23.7283Z" fill="#00A551"/>
<path d="M24.5829 38.804C24.5829 38.804 24.7349 38.861 24.8109 38.861C24.887 38.861 24.982 38.842 25.02 38.785C25.058 38.747 25.096 38.69 25.096 38.6139C25.096 38.5569 25.096 38.5189 25.077 38.4999C25.077 38.4619 25.039 38.4429 25.02 38.4239C25.001 38.4049 24.963 38.3859 24.925 38.3669C24.887 38.3669 24.868 38.3288 24.8299 38.3288C24.7539 38.3098 24.6779 38.2718 24.6209 38.2338C24.5639 38.1958 24.5068 38.1578 24.4498 38.1198C24.4118 38.0818 24.3738 38.0438 24.3358 37.9867C24.3168 37.9297 24.2978 37.8727 24.2978 37.8157C24.2978 37.7397 24.2978 37.6636 24.3358 37.6066C24.3738 37.5496 24.4118 37.4926 24.4498 37.4546C24.5068 37.4166 24.5639 37.3785 24.6399 37.3595C24.7159 37.3405 24.7919 37.3215 24.868 37.3215C24.963 37.3215 25.058 37.3215 25.153 37.3786C25.2481 37.4166 25.3051 37.4736 25.3431 37.5686C25.2291 37.6446 25.153 37.5876 25.077 37.5686C25.077 37.5686 25.058 37.5686 25.039 37.5496C25.001 37.5496 24.944 37.5306 24.906 37.5306C24.868 37.5306 24.8299 37.5306 24.7919 37.5306C24.7539 37.5306 24.7159 37.5496 24.6969 37.5686C24.6779 37.5686 24.6399 37.6066 24.6399 37.6446C24.6399 37.6826 24.6209 37.7016 24.6209 37.7587C24.6209 37.8347 24.6399 37.8727 24.6779 37.9107C24.7159 37.9487 24.7729 37.9867 24.8299 38.0057C24.887 38.0247 24.963 38.0628 25.039 38.0818C25.115 38.1008 25.172 38.1388 25.2481 38.1768C25.3051 38.2148 25.3621 38.2718 25.4001 38.3288C25.4381 38.3859 25.4571 38.4809 25.4571 38.5759C25.4571 38.6519 25.4571 38.728 25.4191 38.785C25.3811 38.842 25.3431 38.899 25.2861 38.937C25.2291 38.975 25.172 39.0131 25.096 39.0321C25.02 39.0511 24.944 39.0701 24.8489 39.0701C24.6969 39.0701 24.5829 39.0511 24.4878 38.994C24.3928 38.937 24.3168 38.861 24.2598 38.747C24.2978 38.728 24.3548 38.69 24.4498 38.709C24.5068 38.728 24.5449 38.766 24.5829 38.804Z" fill="#00A551"/>
<path d="M28.2511 37.7967C28.2511 37.7967 28.2321 37.6447 28.1941 37.6257C28.1561 37.5876 28.0991 37.5876 28.0041 37.5876C27.928 37.5876 27.871 37.5876 27.814 37.6257C27.757 37.6637 27.7 37.6827 27.681 37.7207V38.823C27.681 38.9371 27.624 39.0321 27.5099 39.0511C27.4719 39.0511 27.4529 39.0511 27.4149 39.0511H27.3389V36.9604H27.4149C27.4149 36.9604 27.4719 36.9604 27.5099 36.9604C27.624 36.9795 27.681 37.0745 27.681 37.1885V37.3406V37.5306C27.681 37.5306 27.795 37.4356 27.89 37.3786C27.9851 37.3406 28.0801 37.3216 28.1941 37.3216C28.3462 37.3216 28.4412 37.3596 28.5172 37.4356C28.5933 37.5116 28.6123 37.6066 28.6123 37.7587V39.0511H28.5362C28.5362 39.0511 28.4792 39.0511 28.4412 39.0511C28.3272 39.0321 28.2702 38.9371 28.2702 38.823V37.7777L28.2511 37.7967Z" fill="#00A551"/>
<path d="M29.7336 38.1008C29.7336 38.1008 29.6385 38.1388 29.6005 38.1388C29.5435 38.1388 29.4865 38.1578 29.4485 38.1768C29.3535 38.2148 29.2774 38.2529 29.2394 38.3099C29.2014 38.3669 29.1824 38.4429 29.1824 38.5379C29.1824 38.652 29.2014 38.728 29.2394 38.766C29.2774 38.823 29.3535 38.842 29.4485 38.842C29.5245 38.842 29.5815 38.842 29.6385 38.785C29.6956 38.747 29.7336 38.709 29.7716 38.652V38.0818L29.7336 38.1008ZM29.7526 38.823C29.7526 38.823 29.6575 38.9561 29.5815 38.9941C29.5055 39.0321 29.4105 39.0511 29.2964 39.0511C29.1254 39.0511 29.0113 39.0131 28.9353 38.9371C28.8593 38.861 28.8213 38.747 28.8213 38.595C28.8213 38.4429 28.8593 38.3479 28.9163 38.2529C28.9733 38.1768 29.0684 38.1198 29.2014 38.0818C29.2394 38.0818 29.2964 38.0628 29.3344 38.0438C29.3915 38.0438 29.4295 38.0438 29.4865 38.0248C29.5245 38.0248 29.5815 38.0248 29.6195 37.9868C29.7146 37.9678 29.7336 37.9298 29.7336 37.8727C29.7336 37.8347 29.7336 37.8157 29.7336 37.7777C29.7336 37.6827 29.7146 37.6257 29.6766 37.5877C29.6385 37.5496 29.5625 37.5116 29.4485 37.5116C29.3725 37.5116 29.2964 37.5116 29.2394 37.5686C29.1254 37.6257 29.0684 37.6827 28.9163 37.6067C28.9733 37.5116 29.0494 37.4356 29.1444 37.3976C29.2394 37.3596 29.3535 37.3406 29.4675 37.3406C29.5435 37.3406 29.6385 37.3406 29.6956 37.3406C29.7716 37.3406 29.8286 37.3786 29.8856 37.4166C29.9426 37.4546 29.9806 37.4926 30.0187 37.5496C30.0567 37.6067 30.0757 37.6827 30.0757 37.7777V38.766V39.0511C30.0757 39.0511 30.0187 39.0511 29.9806 39.0511C29.8096 39.0511 29.7526 38.9561 29.7526 38.823Z" fill="#00A551"/>
<path d="M31.3299 38.9561C31.3299 38.9561 31.2158 39.0321 31.1588 39.0511C31.1018 39.0511 31.0258 39.0701 30.9308 39.0701C30.7787 39.0701 30.6647 39.0321 30.5696 38.9371C30.4936 38.861 30.4366 38.728 30.4366 38.5759V37.4926H30.3796C30.2846 37.4926 30.2275 37.4926 30.2275 37.3216H30.4366V36.9604H30.5126C30.5126 36.9604 30.5696 36.9604 30.6077 36.9604C30.7217 36.9795 30.7787 37.0745 30.7787 37.1885V37.3216H30.9878C31.0828 37.3216 31.1398 37.3216 31.1398 37.4926H30.7787V38.5759C30.7787 38.5759 30.7977 38.747 30.8357 38.785C30.8737 38.842 30.9498 38.861 31.0258 38.861C31.0638 38.861 31.0828 38.861 31.1208 38.861C31.2158 38.861 31.2729 38.861 31.3109 38.9371L31.3299 38.9561Z" fill="#00A551"/>
<path d="M33.9152 37.7967C33.9152 37.7967 33.8962 37.6446 33.8582 37.6256C33.8202 37.5876 33.7442 37.5876 33.6681 37.5876C33.5921 37.5876 33.5351 37.5876 33.4781 37.6256C33.4211 37.6636 33.364 37.6826 33.345 37.7207V38.823C33.345 38.937 33.288 39.0321 33.174 39.0511C33.136 39.0511 33.117 39.0511 33.079 39.0511H33.0029V37.3215H33.079C33.079 37.3215 33.136 37.3215 33.174 37.3215C33.288 37.3405 33.345 37.4166 33.345 37.5306C33.345 37.5306 33.4591 37.4356 33.5541 37.3786C33.6491 37.3405 33.7442 37.3215 33.8582 37.3215C34.0102 37.3215 34.1053 37.3595 34.1813 37.4356C34.2573 37.5116 34.2763 37.6066 34.2763 37.7587V39.0511H34.2003C34.2003 39.0511 34.1433 39.0511 34.1053 39.0511C33.9912 39.0321 33.9342 38.937 33.9342 38.823V37.7777L33.9152 37.7967Z" fill="#00A551"/>
<path d="M26.9402 38.785C26.8452 38.975 26.6361 39.0511 26.3891 39.0511C26.0279 39.0511 25.8379 38.861 25.7429 38.5949C25.6858 38.4239 25.6668 38.1958 25.6858 37.9867C25.7429 37.6636 25.9329 37.3215 26.332 37.3215C26.9212 37.3215 26.9782 37.7777 26.9972 38.1768H26.0089C26.0089 38.4239 26.0469 38.861 26.4081 38.861C26.5031 38.861 26.5791 38.861 26.6361 38.804C26.7312 38.747 26.7882 38.709 26.9022 38.766L26.9402 38.785ZM26.6931 38.0438C26.6931 37.9487 26.6931 37.8537 26.6551 37.7967C26.5601 37.4166 26.161 37.4546 26.066 37.7967C26.066 37.8727 26.0279 37.9487 26.0279 38.0438H26.6741H26.6931Z" fill="#00A551"/>
<path d="M32.3752 38.1008C32.3752 38.1008 32.2801 38.1388 32.2421 38.1388C32.1851 38.1388 32.1281 38.1578 32.0901 38.1768C31.9951 38.2148 31.919 38.2529 31.881 38.3099C31.843 38.3669 31.824 38.4429 31.824 38.5379C31.824 38.652 31.843 38.728 31.881 38.766C31.919 38.823 31.9951 38.842 32.0901 38.842C32.1661 38.842 32.2231 38.842 32.2801 38.785C32.3372 38.747 32.3752 38.709 32.4132 38.652V38.0818L32.3752 38.1008ZM32.3942 38.823C32.3942 38.823 32.2991 38.9561 32.2231 38.9941C32.1471 39.0321 32.0521 39.0511 31.938 39.0511C31.767 39.0511 31.6529 39.0131 31.5769 38.9371C31.5009 38.861 31.4629 38.747 31.4629 38.595C31.4629 38.4429 31.5009 38.3479 31.5579 38.2529C31.6149 38.1768 31.71 38.1198 31.843 38.0818C31.881 38.0818 31.938 38.0628 31.976 38.0438C32.0331 38.0438 32.0711 38.0438 32.1281 38.0248C32.1661 38.0248 32.2231 38.0248 32.2611 37.9868C32.3562 37.9678 32.3752 37.9298 32.3752 37.8727C32.3752 37.8347 32.3752 37.8157 32.3752 37.7777C32.3752 37.6827 32.3562 37.6257 32.3182 37.5877C32.2801 37.5496 32.2041 37.5116 32.0901 37.5116C32.0141 37.5116 31.938 37.5116 31.881 37.5686C31.767 37.6257 31.71 37.6827 31.5579 37.6067C31.6149 37.5116 31.691 37.4356 31.786 37.3976C31.881 37.3596 31.9951 37.3406 32.1091 37.3406C32.1851 37.3406 32.2801 37.3406 32.3372 37.3406C32.4132 37.3406 32.4702 37.3786 32.5272 37.4166C32.5842 37.4546 32.6222 37.4926 32.6603 37.5496C32.6983 37.6067 32.7173 37.6827 32.7173 37.7777V38.766V39.0511C32.7173 39.0511 32.6603 39.0511 32.6222 39.0511C32.4512 39.0511 32.3942 38.9561 32.3942 38.823Z" fill="#00A551"/>
<path d="M15.8215 37.9108C16.0496 37.9108 16.1256 37.7017 16.1256 37.5307C16.1256 37.3596 16.1256 37.1505 15.8595 37.1505H15.5554V37.9108H15.8215ZM15.8215 38.8801C15.9356 38.8801 16.0116 38.8421 16.0686 38.785C16.1256 38.728 16.1446 38.614 16.1446 38.481C16.1446 38.2909 16.1256 38.1198 15.8785 38.0818H15.5554V38.8991H15.8215V38.8801ZM15.1943 39.0701V36.9795H15.9166C16.3157 36.9795 16.5057 37.2456 16.4677 37.5877C16.4677 37.7397 16.3917 37.9108 16.2397 37.9868C16.6198 38.1008 16.6198 38.671 16.3917 38.9181C16.2967 39.0321 16.1446 39.0701 15.9166 39.0701H15.1943Z" fill="#023F87"/>
<path d="M16.9238 36.9604H17.646C17.7601 36.9604 17.8361 36.9605 17.9121 36.9985C17.9882 37.0175 18.0452 37.0555 18.1022 37.0935C18.1402 37.1315 18.1782 37.1885 18.1972 37.2645C18.2162 37.3406 18.2352 37.4166 18.2352 37.4926C18.2352 37.6257 18.2352 37.7587 18.1972 37.8537C18.1782 37.9488 18.1402 38.0248 18.0832 38.0818C18.0262 38.1388 17.9691 38.1768 17.8741 38.2148C17.7981 38.2338 17.6841 38.2528 17.57 38.2528H17.3039V38.823C17.3039 38.9751 17.2279 39.0701 17.0379 39.0701H16.9238C16.9238 38.3669 16.9238 37.6637 16.9238 36.9795V36.9604ZM17.532 38.0628C17.532 38.0628 17.646 38.0628 17.6841 38.0438C17.7221 38.0438 17.7601 38.0058 17.7791 37.9678C17.7981 37.9297 17.8171 37.8917 17.8361 37.8157C17.8361 37.7587 17.8361 37.6827 17.8361 37.5876C17.8361 37.4926 17.8361 37.4356 17.8361 37.3786C17.8361 37.3216 17.8171 37.2835 17.7981 37.2455C17.7791 37.2075 17.7411 37.1885 17.7221 37.1695C17.6841 37.1695 17.6461 37.1505 17.589 37.1505H17.3039V38.0628H17.532Z" fill="#023F87"/>
<path d="M18.615 36.9604H18.691C18.691 36.9604 18.767 36.9604 18.805 36.9604C18.9381 36.9795 18.9951 37.0745 18.9951 37.1885V38.5189C18.9951 38.861 18.786 39.0511 18.3679 39.0511C18.3489 39.0511 18.3299 39.0511 18.3109 39.0511C18.1778 39.0511 18.0638 39.0131 17.9498 38.9561C17.8357 38.899 17.7597 38.804 17.7217 38.69C17.8167 38.652 17.8737 38.633 17.9688 38.69C18.0068 38.709 18.0258 38.747 18.0638 38.766C18.1018 38.785 18.1398 38.804 18.1968 38.823C18.2919 38.842 18.4439 38.842 18.5389 38.804C18.634 38.747 18.653 38.652 18.653 38.5569V36.9604H18.615Z" fill="#023F87"/>
<path d="M19.623 38.785C19.623 38.785 19.775 38.861 19.8701 38.861C19.9081 38.861 19.9651 38.861 20.0031 38.842C20.0411 38.842 20.0791 38.804 20.1171 38.785C20.1551 38.766 20.1741 38.728 20.1932 38.69C20.1932 38.652 20.2122 38.614 20.2122 38.5569C20.2122 38.5189 20.2122 38.4809 20.1932 38.4429C20.1932 38.4049 20.1551 38.3859 20.1361 38.3479C20.1171 38.3289 20.0791 38.2909 20.0601 38.2719C20.0221 38.2528 19.9841 38.2338 19.9461 38.1958C19.8701 38.1388 19.775 38.1008 19.718 38.0438C19.642 38.0058 19.585 37.9488 19.5279 37.8917C19.4709 37.8347 19.4329 37.7777 19.3949 37.7207C19.3569 37.6637 19.3569 37.5876 19.3569 37.4926C19.3569 37.4166 19.3569 37.3406 19.3949 37.2835C19.4139 37.2265 19.4519 37.1695 19.5089 37.1125C19.566 37.0745 19.623 37.0365 19.699 36.9985C19.775 36.9795 19.851 36.9604 19.9651 36.9604C20.0981 36.9604 20.1932 36.9795 20.2882 37.0365C20.3832 37.0935 20.4402 37.1695 20.4782 37.2455C20.3642 37.2835 20.2882 37.2645 20.2122 37.2075C20.1551 37.1695 20.0981 37.1505 20.0221 37.1505C19.9081 37.1505 19.832 37.1695 19.775 37.2265C19.718 37.2835 19.68 37.3406 19.68 37.4356C19.68 37.5116 19.699 37.5686 19.756 37.6257C19.794 37.6827 19.851 37.7207 19.9271 37.7587C19.9841 37.7967 20.0601 37.8347 20.1361 37.8727C20.2122 37.9107 20.2882 37.9488 20.3452 38.0058C20.4022 38.0628 20.4592 38.1198 20.5163 38.1958C20.5543 38.2719 20.5923 38.3479 20.5923 38.4619C20.5923 38.5379 20.5923 38.614 20.5543 38.69C20.5163 38.766 20.4782 38.823 20.4212 38.88C20.3642 38.9371 20.2882 38.9751 20.2122 38.9941C20.1171 39.0321 20.0221 39.0321 19.9271 39.0321C19.794 39.0321 19.661 38.9941 19.566 38.9371C19.4519 38.88 19.3759 38.785 19.3379 38.671C19.4329 38.633 19.4899 38.614 19.585 38.671C19.623 38.69 19.642 38.728 19.68 38.747L19.623 38.785Z" fill="#023F87"/>
<path d="M23.3671 40.5525V40.1153C23.3671 40.1153 23.3671 40.0773 23.3671 40.0583C23.3671 40.0393 23.3671 40.0203 23.3671 40.0013C23.3671 40.0013 23.3671 39.9633 23.3481 39.9443C23.3481 39.9253 23.3101 39.9063 23.291 39.8872C23.272 39.8872 23.234 39.8872 23.196 39.8872C23.177 39.8872 23.139 39.8872 23.12 39.8872C23.101 39.8872 23.082 39.8873 23.063 39.9253C23.063 39.9253 23.044 39.9443 23.025 39.9633V39.9823V39.8872H22.8919V40.5525H23.025V40.1533V40.1153C23.025 40.1153 23.025 40.0773 23.025 40.0583C23.025 40.0583 23.025 40.0203 23.063 40.0203C23.063 40.0203 23.082 40.0203 23.101 40.0013C23.101 40.0013 23.139 40.0013 23.158 40.0013C23.196 40.0013 23.215 40.0013 23.234 40.0013C23.234 40.0013 23.253 40.0203 23.272 40.0393C23.272 40.0393 23.272 40.0773 23.272 40.0963C23.272 40.0963 23.272 40.1343 23.272 40.1533V40.5715H23.4051L23.3671 40.5525ZM22.6068 40.1723H22.3218C22.3218 40.1723 22.3218 40.1533 22.3218 40.1343V40.0963C22.3218 40.0963 22.3218 40.0583 22.3408 40.0583C22.3408 40.0583 22.3598 40.0393 22.3788 40.0203C22.3788 40.0203 22.4168 40.0203 22.4358 40.0203C22.4548 40.0203 22.4738 40.0203 22.4928 40.0203C22.4928 40.0203 22.5118 40.0393 22.5308 40.0583C22.5308 40.0583 22.5308 40.0963 22.5498 40.0963V40.1343C22.5498 40.1343 22.5498 40.1533 22.5498 40.1723H22.6068ZM22.7399 40.2674V40.2294C22.7399 40.2294 22.7399 40.1913 22.7399 40.1723C22.7399 40.1533 22.7399 40.1153 22.7399 40.0963C22.7399 40.0773 22.7399 40.0393 22.7209 40.0203C22.7209 40.0013 22.7019 39.9823 22.6829 39.9443C22.6829 39.9253 22.6449 39.9063 22.6068 39.9063C22.5688 39.9063 22.5498 39.9063 22.5118 39.9063C22.4738 39.9063 22.4358 39.9063 22.3978 39.9063C22.3598 39.9063 22.3408 39.9253 22.3218 39.9443C22.3027 39.9633 22.2837 39.9823 22.2647 40.0013C22.2647 40.0203 22.2457 40.0583 22.2267 40.0773C22.2267 40.0963 22.2267 40.1343 22.2267 40.1533C22.2267 40.1723 22.2267 40.1913 22.2267 40.2103C22.2267 40.2103 22.2267 40.2484 22.2267 40.2674C22.2267 40.2864 22.2267 40.3054 22.2267 40.3434C22.2267 40.3624 22.2267 40.4004 22.2647 40.4194C22.2647 40.4384 22.3027 40.4574 22.3218 40.4764C22.3408 40.4764 22.3788 40.5144 22.4168 40.5144C22.4548 40.5144 22.4928 40.5144 22.5308 40.5144C22.5688 40.5144 22.5878 40.5144 22.6068 40.5144C22.6258 40.5144 22.6449 40.5144 22.6639 40.5144C22.6639 40.5144 22.6829 40.5144 22.7019 40.5144V40.4004C22.7019 40.4004 22.6829 40.4004 22.6639 40.4194C22.6639 40.4194 22.6258 40.4194 22.6068 40.4194C22.5878 40.4194 22.5498 40.4194 22.5308 40.4194C22.4928 40.4194 22.4548 40.4194 22.4358 40.4194C22.4168 40.4194 22.3978 40.4004 22.3788 40.3814C22.3788 40.3814 22.3598 40.3434 22.3408 40.3434V40.3054C22.3408 40.3054 22.3408 40.2864 22.3408 40.2674H22.7399ZM22.0557 40.5525V39.6592H21.9226V40.5525H22.0557ZM21.6565 40.1723H21.3715C21.3715 40.1723 21.3715 40.1533 21.3715 40.1343V40.0963C21.3715 40.0963 21.3715 40.0583 21.3905 40.0583C21.3905 40.0583 21.4095 40.0393 21.4285 40.0203C21.4285 40.0203 21.4665 40.0203 21.4855 40.0203C21.5045 40.0203 21.5235 40.0203 21.5425 40.0203C21.5425 40.0203 21.5615 40.0393 21.5805 40.0583C21.5805 40.0583 21.5805 40.0963 21.5995 40.0963V40.1343C21.5995 40.1343 21.5995 40.1533 21.5995 40.1723H21.6565ZM21.7896 40.2674V40.2294C21.7896 40.2294 21.7896 40.1913 21.7896 40.1723C21.7896 40.1533 21.7896 40.1153 21.7896 40.0963C21.7896 40.0773 21.7896 40.0393 21.7706 40.0203C21.7706 40.0013 21.7516 39.9823 21.7326 39.9443C21.7326 39.9253 21.6946 39.9063 21.6565 39.9063C21.6185 39.9063 21.5995 39.9063 21.5615 39.9063C21.5235 39.9063 21.4855 39.9063 21.4475 39.9063C21.4095 39.9063 21.3905 39.9253 21.3715 39.9443C21.3525 39.9633 21.3334 39.9823 21.3144 40.0013C21.3144 40.0203 21.2954 40.0583 21.2764 40.0773C21.2764 40.0963 21.2764 40.1343 21.2764 40.1533C21.2764 40.1723 21.2764 40.1913 21.2764 40.2103C21.2764 40.2103 21.2764 40.2484 21.2764 40.2674C21.2764 40.2864 21.2764 40.3054 21.2764 40.3434C21.2764 40.3624 21.2764 40.4004 21.3144 40.4194C21.3144 40.4384 21.3525 40.4574 21.3715 40.4764C21.3905 40.4764 21.4285 40.5144 21.4665 40.5144C21.5045 40.5144 21.5425 40.5144 21.5805 40.5144C21.6185 40.5144 21.6375 40.5144 21.6565 40.5144C21.6756 40.5144 21.6946 40.5144 21.7136 40.5144C21.7136 40.5144 21.7326 40.5144 21.7516 40.5144V40.4004C21.7516 40.4004 21.7326 40.4004 21.7136 40.4194C21.7136 40.4194 21.6756 40.4194 21.6565 40.4194C21.6375 40.4194 21.5995 40.4194 21.5805 40.4194C21.5425 40.4194 21.5045 40.4194 21.4855 40.4194C21.4665 40.4194 21.4475 40.4004 21.4285 40.3814C21.4285 40.3814 21.4095 40.3434 21.3905 40.3434V40.3054C21.3905 40.3054 21.3905 40.2864 21.3905 40.2674H21.7896ZM21.2194 39.9063H21.0864L20.9343 40.4194L20.7823 39.9063H20.6492L20.8583 40.5525V40.5905C20.8583 40.5905 20.8583 40.6095 20.8393 40.6285C20.8393 40.6285 20.8393 40.6475 20.8203 40.6475C20.8203 40.6475 20.8013 40.6475 20.7823 40.6475H20.7443C20.7443 40.6475 20.7253 40.6475 20.7063 40.6475V40.7615C20.7063 40.7615 20.7063 40.7615 20.7253 40.7615C20.7253 40.7615 20.7443 40.7615 20.7633 40.7615C20.7633 40.7615 20.8013 40.7615 20.8203 40.7615C20.8393 40.7615 20.8773 40.7615 20.8963 40.7615C20.8963 40.7615 20.9343 40.7425 20.9343 40.7235C20.9343 40.7235 20.9533 40.6855 20.9723 40.6665C20.9723 40.6475 20.9723 40.6285 20.9913 40.5905L21.2004 39.9063H21.2194ZM20.5922 40.5715V40.1343C20.5922 40.1343 20.5922 40.0963 20.5922 40.0773C20.5922 40.0583 20.5922 40.0393 20.5922 40.0203C20.5922 40.0203 20.5922 39.9823 20.5732 39.9633C20.5732 39.9443 20.5352 39.9253 20.5162 39.9063C20.4972 39.9063 20.4592 39.9063 20.4212 39.9063C20.4022 39.9063 20.3642 39.9063 20.3451 39.9063C20.3261 39.9063 20.3071 39.9063 20.2881 39.9443C20.2881 39.9443 20.2691 39.9633 20.2501 39.9823V40.0013V39.9063H20.1171V40.5715H20.2501V40.1723V40.1343C20.2501 40.1343 20.2501 40.0963 20.2501 40.0773C20.2501 40.0773 20.2501 40.0393 20.2881 40.0393C20.2881 40.0393 20.3071 40.0393 20.3261 40.0203C20.3261 40.0203 20.3641 40.0203 20.3832 40.0203C20.4212 40.0203 20.4402 40.0203 20.4592 40.0203C20.4592 40.0203 20.4782 40.0393 20.4972 40.0583C20.4972 40.0583 20.4972 40.0963 20.4972 40.1153C20.4972 40.1153 20.4972 40.1533 20.4972 40.1723V40.5905H20.6302L20.5922 40.5715ZM19.832 40.1913H19.5469C19.5469 40.1913 19.5469 40.1723 19.5469 40.1533V40.1153C19.5469 40.1153 19.5469 40.0773 19.5659 40.0773C19.5659 40.0773 19.5849 40.0583 19.6039 40.0393C19.6039 40.0393 19.6419 40.0393 19.6609 40.0393C19.6799 40.0393 19.6989 40.0393 19.718 40.0393C19.718 40.0393 19.737 40.0583 19.756 40.0773C19.756 40.0773 19.756 40.1153 19.775 40.1153V40.1533C19.775 40.1533 19.775 40.1723 19.775 40.1913H19.832ZM19.965 40.2864V40.2484C19.965 40.2484 19.965 40.2103 19.965 40.1913C19.965 40.1723 19.965 40.1343 19.965 40.1153C19.965 40.0963 19.965 40.0583 19.946 40.0393C19.946 40.0203 19.927 40.0013 19.908 39.9633C19.908 39.9443 19.87 39.9253 19.832 39.9253C19.794 39.9253 19.775 39.9253 19.737 39.9253C19.6989 39.9253 19.6609 39.9253 19.6229 39.9253C19.5849 39.9253 19.5659 39.9443 19.5469 39.9633C19.5279 39.9823 19.5089 40.0013 19.4899 40.0203C19.4899 40.0393 19.4709 40.0773 19.4519 40.0963C19.4519 40.1153 19.4519 40.1533 19.4519 40.1723C19.4519 40.1913 19.4519 40.2103 19.4519 40.2294C19.4519 40.2294 19.4519 40.2674 19.4519 40.2864C19.4519 40.3054 19.4519 40.3244 19.4519 40.3624C19.4519 40.3814 19.4519 40.4194 19.4899 40.4384C19.4899 40.4574 19.5279 40.4764 19.5469 40.4954C19.5659 40.4954 19.6039 40.5334 19.6419 40.5334C19.6799 40.5334 19.718 40.5334 19.756 40.5334C19.794 40.5334 19.813 40.5334 19.832 40.5334C19.851 40.5334 19.87 40.5334 19.889 40.5334C19.889 40.5334 19.908 40.5334 19.927 40.5334V40.4194C19.927 40.4194 19.908 40.4194 19.889 40.4384C19.889 40.4384 19.851 40.4384 19.832 40.4384C19.813 40.4384 19.775 40.4384 19.756 40.4384C19.718 40.4384 19.6799 40.4384 19.6609 40.4384C19.6419 40.4384 19.6229 40.4194 19.6039 40.4004C19.6039 40.4004 19.5849 40.3624 19.5659 40.3624V40.3244C19.5659 40.3244 19.5659 40.3054 19.5659 40.2864H19.965ZM19.1858 40.0013C19.1858 40.0013 19.1858 40.0583 19.1858 40.0773C19.1858 40.0963 19.1858 40.1153 19.1668 40.1343C19.1668 40.1343 19.1478 40.1533 19.1288 40.1723C19.1288 40.1723 19.1098 40.1723 19.0908 40.1723C19.0908 40.1723 19.0718 40.1723 19.0527 40.1723H18.9197V39.8112H19.0527C19.0527 39.8112 19.0718 39.8112 19.0908 39.8112C19.0908 39.8112 19.1098 39.8112 19.1288 39.8112C19.1288 39.8112 19.1478 39.8112 19.1668 39.8492C19.1668 39.8492 19.1858 39.8873 19.2048 39.9063C19.2048 39.9253 19.2048 39.9633 19.2048 40.0013H19.1858ZM19.3378 40.0013C19.3378 40.0013 19.3378 39.9063 19.3378 39.8682C19.3378 39.8302 19.3188 39.8112 19.2998 39.7732C19.2808 39.7542 19.2618 39.7352 19.2238 39.7162C19.2048 39.7162 19.1668 39.6972 19.1478 39.6782C19.1098 39.6782 19.0908 39.6782 19.0527 39.6782H18.7867V40.5715H18.9387V40.2864H19.0718C19.0718 40.2864 19.1288 40.2864 19.1478 40.2864C19.1668 40.2864 19.2048 40.2864 19.2238 40.2674C19.2428 40.2674 19.2808 40.2294 19.2998 40.2103C19.3188 40.1913 19.3378 40.1533 19.3568 40.1153C19.3568 40.0773 19.3758 40.0393 19.3758 39.9823L19.3378 40.0013ZM26.1799 40.3814V40.4194C26.1799 40.4194 26.1799 40.4384 26.1419 40.4574C26.1419 40.4574 26.1229 40.4574 26.1039 40.4764C26.1039 40.4764 26.1039 40.4764 26.0849 40.4764C26.0849 40.4764 26.0849 40.4764 26.0659 40.4764C26.0469 40.4764 26.0279 40.4764 26.0089 40.4764C26.0089 40.4764 25.9709 40.4574 25.9709 40.4384C25.9709 40.4384 25.9709 40.4004 25.9709 40.3814C25.9709 40.3814 25.9709 40.3814 25.9709 40.3624C25.9709 40.3624 25.9709 40.3624 25.9709 40.3434C25.9709 40.3244 25.9709 40.3054 26.0089 40.2864C26.0089 40.2864 26.0469 40.2674 26.0659 40.2674C26.0849 40.2674 26.1229 40.2674 26.1419 40.2674C26.1419 40.2674 26.1609 40.2674 26.1799 40.2674H26.1989V40.3814H26.1799ZM26.313 40.5715V40.1343C26.313 40.1343 26.313 40.0773 26.313 40.0583C26.313 40.0393 26.313 40.0203 26.313 40.0013C26.313 40.0013 26.294 39.9633 26.275 39.9633C26.256 39.9443 26.237 39.9253 26.1989 39.9063C26.1609 39.9063 26.1229 39.9063 26.0849 39.9063C26.0659 39.9063 26.0279 39.9063 26.0089 39.9063C25.9899 39.9063 25.9709 39.9063 25.9519 39.9063C25.9519 39.9063 25.9329 39.9063 25.9139 39.9063V40.0203C25.9139 40.0203 25.9139 40.0203 25.9519 40.0013C25.9519 40.0013 25.9899 40.0013 26.0089 39.9823C26.0279 39.9823 26.0469 39.9823 26.0849 39.9823C26.1229 39.9823 26.1419 39.9823 26.1609 39.9823C26.1799 39.9823 26.1989 39.9823 26.1989 40.0203C26.1989 40.0203 26.1989 40.0393 26.1989 40.0583C26.1989 40.0583 26.1989 40.0773 26.1989 40.0963V40.1153V40.1533C26.1989 40.1533 26.1989 40.1533 26.1799 40.1533C26.1799 40.1533 26.1609 40.1533 26.1419 40.1533C26.1229 40.1533 26.0849 40.1533 26.0659 40.1533C26.0469 40.1533 26.0089 40.1533 25.9899 40.1533C25.9709 40.1533 25.9519 40.1533 25.9329 40.1913C25.9139 40.1913 25.8949 40.2294 25.8758 40.2484C25.8758 40.2484 25.8568 40.2864 25.8568 40.3054V40.3434C25.8568 40.3434 25.8568 40.3624 25.8568 40.3814V40.4194C25.8568 40.4194 25.8568 40.4574 25.8568 40.4764C25.8568 40.4764 25.8568 40.5144 25.8949 40.5144C25.8949 40.5144 25.9329 40.5334 25.9519 40.5525C25.9709 40.5525 25.9899 40.5525 26.0279 40.5525C26.0659 40.5525 26.0849 40.5525 26.1229 40.5525C26.1419 40.5525 26.1799 40.5525 26.1799 40.5144C26.1799 40.5144 26.2179 40.4764 26.2179 40.4574V40.4954H26.294L26.313 40.5715ZM25.7998 40.0583V39.9443H25.7618C25.7618 39.9443 25.7428 39.9443 25.7238 39.9443C25.7238 39.9443 25.7048 39.9443 25.6858 39.9443C25.6858 39.9443 25.6858 39.9443 25.6668 39.9443C25.6668 39.9443 25.6668 39.9443 25.6478 39.9633C25.6478 39.9633 25.6478 39.9633 25.6478 39.9823V39.8872H25.5147V40.5525H25.6478V40.1723C25.6478 40.1723 25.6478 40.1533 25.6478 40.1343C25.6478 40.1343 25.6478 40.1153 25.6478 40.0963V40.0583C25.6478 40.0583 25.6478 40.0393 25.6668 40.0203C25.6668 40.0203 25.6858 40.0203 25.7048 40.0013H25.7428C25.7618 40.0013 25.7808 40.0013 25.7998 40.0013C25.7998 40.0013 25.8378 40.0013 25.8378 40.0203L25.7998 40.0583ZM25.1726 40.3814V40.4194C25.1726 40.4194 25.1726 40.4384 25.1346 40.4574C25.1346 40.4574 25.1156 40.4574 25.0966 40.4764C25.0966 40.4764 25.0966 40.4764 25.0776 40.4764C25.0776 40.4764 25.0776 40.4764 25.0586 40.4764C25.0396 40.4764 25.0206 40.4764 25.0016 40.4764C25.0016 40.4764 24.9636 40.4574 24.9636 40.4384C24.9636 40.4384 24.9636 40.4004 24.9636 40.3814C24.9636 40.3814 24.9636 40.3814 24.9636 40.3624C24.9636 40.3624 24.9636 40.3624 24.9636 40.3434C24.9636 40.3244 24.9636 40.3054 25.0016 40.2864C25.0016 40.2864 25.0396 40.2674 25.0586 40.2674C25.0776 40.2674 25.1156 40.2674 25.1346 40.2674C25.1346 40.2674 25.1536 40.2674 25.1726 40.2674H25.1916V40.3814H25.1726ZM25.3057 40.5715V40.1343C25.3057 40.1343 25.3057 40.0773 25.3057 40.0583C25.3057 40.0393 25.3057 40.0203 25.3057 40.0013C25.3057 40.0013 25.2867 39.9633 25.2677 39.9633C25.2487 39.9443 25.2296 39.9253 25.1916 39.9063C25.1536 39.9063 25.1156 39.9063 25.0776 39.9063C25.0586 39.9063 25.0206 39.9063 25.0016 39.9063C24.9826 39.9063 24.9636 39.9063 24.9446 39.9063C24.9446 39.9063 24.9256 39.9063 24.9065 39.9063V40.0203C24.9065 40.0203 24.9065 40.0203 24.9446 40.0013C24.9446 40.0013 24.9826 40.0013 25.0016 39.9823C25.0206 39.9823 25.0396 39.9823 25.0776 39.9823C25.1156 39.9823 25.1346 39.9823 25.1536 39.9823C25.1726 39.9823 25.1916 39.9823 25.1916 40.0203C25.1916 40.0203 25.1916 40.0393 25.1916 40.0583C25.1916 40.0583 25.1916 40.0773 25.1916 40.0963V40.1153V40.1533C25.1916 40.1533 25.1916 40.1533 25.1726 40.1533C25.1726 40.1533 25.1536 40.1533 25.1346 40.1533C25.1156 40.1533 25.0776 40.1533 25.0586 40.1533C25.0396 40.1533 25.0016 40.1533 24.9826 40.1533C24.9636 40.1533 24.9446 40.1533 24.9256 40.1913C24.9065 40.1913 24.8875 40.2294 24.8685 40.2484C24.8685 40.2484 24.8495 40.2864 24.8495 40.3054V40.3434C24.8495 40.3434 24.8495 40.3624 24.8495 40.3814V40.4194C24.8495 40.4194 24.8495 40.4574 24.8495 40.4764C24.8495 40.4764 24.8495 40.5144 24.8875 40.5144C24.8875 40.5144 24.9256 40.5334 24.9446 40.5525C24.9636 40.5525 24.9826 40.5525 25.0206 40.5525C25.0586 40.5525 25.0776 40.5525 25.1156 40.5525C25.1346 40.5525 25.1726 40.5525 25.1726 40.5144C25.1726 40.5144 25.2106 40.4764 25.2106 40.4574V40.4954H25.2867L25.3057 40.5715ZM24.5834 40.6285C24.5834 40.6285 24.5834 40.6475 24.5834 40.6665C24.5834 40.6665 24.5644 40.6855 24.5454 40.6855H24.5074C24.5074 40.6855 24.4694 40.6855 24.4504 40.6855C24.4124 40.6855 24.3934 40.6855 24.3744 40.6855C24.3554 40.6855 24.3364 40.6855 24.3174 40.6475V40.6095C24.3174 40.6095 24.3174 40.5905 24.3174 40.5715C24.3174 40.5715 24.3174 40.5715 24.3174 40.5525H24.4314C24.4314 40.5525 24.4884 40.5525 24.5074 40.5525C24.5074 40.5525 24.5454 40.5525 24.5454 40.5715C24.5454 40.5715 24.5454 40.5715 24.5644 40.5905C24.5644 40.5905 24.5644 40.6095 24.5644 40.6285H24.5834ZM24.5834 40.1343C24.5834 40.1343 24.5834 40.1913 24.5834 40.2103C24.5834 40.2294 24.5644 40.2484 24.5454 40.2674C24.5264 40.2674 24.5074 40.2674 24.4694 40.2674C24.4504 40.2674 24.4314 40.2674 24.4124 40.2674C24.4124 40.2674 24.3744 40.2484 24.3744 40.2103C24.3744 40.1913 24.3744 40.1723 24.3744 40.1343C24.3744 40.0963 24.3744 40.0773 24.3744 40.0583C24.3744 40.0393 24.3934 40.0203 24.4124 40.0203C24.4124 40.0203 24.4504 40.0203 24.4884 40.0203C24.5074 40.0203 24.5264 40.0203 24.5454 40.0203C24.5454 40.0203 24.5834 40.0203 24.5834 40.0583C24.5834 40.0583 24.5834 40.0773 24.6025 40.0963C24.6025 40.0963 24.6025 40.1343 24.6025 40.1533L24.5834 40.1343ZM24.7355 40.6285C24.7355 40.6285 24.7165 40.5144 24.6785 40.4954C24.6405 40.4574 24.5644 40.4574 24.4884 40.4574C24.4884 40.4574 24.4694 40.4574 24.4504 40.4574C24.4504 40.4574 24.4314 40.4574 24.4124 40.4574C24.4124 40.4574 24.3934 40.4574 24.3744 40.4574C24.3744 40.4574 24.3554 40.4574 24.3364 40.4574C24.3364 40.4574 24.3364 40.4574 24.3364 40.4384V40.4194C24.3364 40.4194 24.3364 40.4194 24.3744 40.4194H24.4124C24.4124 40.4194 24.4504 40.4194 24.4694 40.4194C24.5264 40.4194 24.5644 40.4194 24.6025 40.4004C24.6405 40.4004 24.6785 40.3624 24.6975 40.3244C24.7165 40.2864 24.7355 40.2484 24.7355 40.1913V39.9823H24.6785C24.6785 39.9823 24.6785 39.9823 24.6785 40.0013C24.6785 40.0013 24.6785 40.0013 24.6785 39.9823C24.6785 39.9823 24.6785 39.9823 24.6405 39.9633C24.6405 39.9633 24.6025 39.9633 24.5834 39.9443C24.5644 39.9443 24.5454 39.9443 24.5074 39.9443C24.5074 39.9443 24.4694 39.9443 24.4504 39.9443C24.4504 39.9443 24.4124 39.9443 24.3934 39.9633C24.3934 39.9633 24.3554 39.9823 24.3364 40.0013C24.3364 40.0013 24.3174 40.0393 24.2984 40.0583C24.2984 40.0773 24.2984 40.1153 24.2984 40.1533C24.2984 40.1723 24.2984 40.1913 24.2984 40.2103C24.2984 40.2294 24.2984 40.2484 24.3174 40.2674C24.3174 40.2674 24.3174 40.2864 24.3364 40.3054C24.3364 40.3054 24.3364 40.3054 24.3554 40.3244C24.3554 40.3244 24.3554 40.3244 24.3174 40.3244C24.3174 40.3244 24.2984 40.3244 24.2794 40.3244C24.2794 40.3244 24.2603 40.3434 24.2413 40.3624C24.2413 40.3624 24.2413 40.4004 24.2413 40.4194V40.4574V40.4764C24.2413 40.4764 24.2413 40.4764 24.2603 40.4764C24.2603 40.4764 24.2603 40.4764 24.2794 40.4764C24.2794 40.4764 24.2794 40.4764 24.2603 40.4954C24.2603 40.4954 24.2603 40.5144 24.2603 40.5334C24.2603 40.5334 24.2603 40.5715 24.2603 40.5905C24.2603 40.6285 24.2603 40.6475 24.2984 40.6665C24.3174 40.6855 24.3554 40.7045 24.3934 40.7235C24.4314 40.7235 24.4884 40.7425 24.5454 40.7425C24.5834 40.7425 24.6215 40.7425 24.6405 40.7425C24.6785 40.7425 24.6975 40.7425 24.7165 40.7045C24.7355 40.7045 24.7545 40.6665 24.7735 40.6475C24.7735 40.6285 24.7925 40.5905 24.7925 40.5715L24.7355 40.6285ZM23.9753 40.6285C23.9753 40.6285 23.9753 40.6475 23.9753 40.6665C23.9753 40.6665 23.9563 40.6855 23.9372 40.6855H23.8992C23.8992 40.6855 23.8612 40.6855 23.8422 40.6855C23.8042 40.6855 23.7852 40.6855 23.7662 40.6855C23.7472 40.6855 23.7282 40.6855 23.7092 40.6475V40.6095C23.7092 40.6095 23.7092 40.5905 23.7092 40.5715C23.7092 40.5715 23.7092 40.5715 23.7092 40.5525H23.8232C23.8232 40.5525 23.8802 40.5525 23.8992 40.5525C23.8992 40.5525 23.9372 40.5525 23.9372 40.5715C23.9372 40.5715 23.9372 40.5715 23.9563 40.5905C23.9563 40.5905 23.9563 40.6095 23.9563 40.6285H23.9753ZM23.9753 40.1343C23.9753 40.1343 23.9753 40.1913 23.9753 40.2103C23.9753 40.2294 23.9563 40.2484 23.9372 40.2674C23.9182 40.2674 23.8992 40.2674 23.8612 40.2674C23.8422 40.2674 23.8232 40.2674 23.8042 40.2674C23.8042 40.2674 23.7662 40.2484 23.7662 40.2103C23.7662 40.1913 23.7662 40.1723 23.7662 40.1343C23.7662 40.0963 23.7662 40.0773 23.7662 40.0583C23.7662 40.0393 23.7852 40.0203 23.8042 40.0203C23.8042 40.0203 23.8422 40.0203 23.8802 40.0203C23.8992 40.0203 23.9182 40.0203 23.9372 40.0203C23.9372 40.0203 23.9753 40.0203 23.9753 40.0583C23.9753 40.0583 23.9753 40.0773 23.9943 40.0963C23.9943 40.0963 23.9943 40.1343 23.9943 40.1533L23.9753 40.1343ZM24.1273 40.6285C24.1273 40.6285 24.1083 40.5144 24.0703 40.4954C24.0323 40.4574 23.9563 40.4574 23.8802 40.4574C23.8802 40.4574 23.8612 40.4574 23.8422 40.4574C23.8422 40.4574 23.8232 40.4574 23.8042 40.4574C23.8042 40.4574 23.7852 40.4574 23.7662 40.4574C23.7662 40.4574 23.7472 40.4574 23.7282 40.4574C23.7282 40.4574 23.7282 40.4574 23.7282 40.4384V40.4194C23.7282 40.4194 23.7282 40.4194 23.7662 40.4194H23.8042C23.8042 40.4194 23.8422 40.4194 23.8612 40.4194C23.9182 40.4194 23.9563 40.4194 23.9943 40.4004C24.0323 40.4004 24.0703 40.3624 24.0893 40.3244C24.1083 40.2864 24.1273 40.2484 24.1273 40.1913V39.9823H24.0703C24.0703 39.9823 24.0703 39.9823 24.0703 40.0013C24.0703 40.0013 24.0703 40.0013 24.0703 39.9823C24.0703 39.9823 24.0703 39.9823 24.0323 39.9633C24.0323 39.9633 23.9943 39.9633 23.9753 39.9443C23.9563 39.9443 23.9372 39.9443 23.8992 39.9443C23.8992 39.9443 23.8612 39.9443 23.8422 39.9443C23.8422 39.9443 23.8042 39.9443 23.7852 39.9633C23.7852 39.9633 23.7472 39.9823 23.7282 40.0013C23.7282 40.0013 23.7092 40.0393 23.6902 40.0583C23.6902 40.0773 23.6902 40.1153 23.6902 40.1533C23.6902 40.1723 23.6902 40.1913 23.6902 40.2103C23.6902 40.2294 23.6902 40.2484 23.7092 40.2674C23.7092 40.2674 23.7282 40.2864 23.7282 40.3054C23.7282 40.3054 23.7282 40.3054 23.7472 40.3244C23.7472 40.3244 23.7472 40.3244 23.7092 40.3244C23.7092 40.3244 23.6902 40.3244 23.6712 40.3244C23.6712 40.3244 23.6522 40.3434 23.6332 40.3624C23.6332 40.3624 23.6332 40.4004 23.6332 40.4194V40.4574V40.4764C23.6332 40.4764 23.6332 40.4764 23.6522 40.4764C23.6522 40.4764 23.6522 40.4764 23.6712 40.4764C23.6712 40.4764 23.6712 40.4764 23.6522 40.4954C23.6522 40.4954 23.6522 40.5144 23.6522 40.5334C23.6522 40.5334 23.6522 40.5715 23.6522 40.5905C23.6522 40.6285 23.6522 40.6475 23.6902 40.6665C23.7282 40.6855 23.7472 40.7045 23.7852 40.7235C23.8232 40.7235 23.8802 40.7425 23.9372 40.7425C23.9753 40.7425 24.0133 40.7425 24.0323 40.7425C24.0703 40.7425 24.0893 40.7425 24.1083 40.7045C24.1273 40.7045 24.1463 40.6665 24.1653 40.6475C24.1653 40.6285 24.1843 40.5905 24.1843 40.5715L24.1273 40.6285ZM18.4446 40.5715V40.1343C18.4446 40.1343 18.4446 40.0963 18.4446 40.0773C18.4446 40.0583 18.4446 40.0393 18.4446 40.0203C18.4446 40.0203 18.4446 39.9823 18.4256 39.9633C18.4256 39.9443 18.3875 39.9253 18.3685 39.9063C18.3495 39.9063 18.3115 39.9063 18.2735 39.9063C18.2545 39.9063 18.2165 39.9063 18.1975 39.9063C18.1785 39.9063 18.1595 39.9063 18.1405 39.9443C18.1405 39.9443 18.1215 39.9633 18.1025 39.9823V40.0013V39.9063H17.9694V40.5715H18.1025V40.1723V40.1343C18.1025 40.1343 18.1025 40.0963 18.1025 40.0773C18.1025 40.0773 18.1025 40.0393 18.1405 40.0393C18.1405 40.0393 18.1595 40.0393 18.1785 40.0203C18.1785 40.0203 18.2165 40.0203 18.2355 40.0203C18.2735 40.0203 18.2925 40.0203 18.3115 40.0203C18.3115 40.0203 18.3305 40.0393 18.3495 40.0583C18.3495 40.0583 18.3495 40.0963 18.3495 40.1153C18.3495 40.1153 18.3495 40.1533 18.3495 40.1723V40.5905H18.4826L18.4446 40.5715ZM17.6653 40.3814V40.4194C17.6653 40.4194 17.6653 40.4384 17.6273 40.4574C17.6273 40.4574 17.6083 40.4574 17.5893 40.4764C17.5893 40.4764 17.5893 40.4764 17.5703 40.4764C17.5703 40.4764 17.5703 40.4764 17.5513 40.4764C17.5323 40.4764 17.5133 40.4764 17.4943 40.4764C17.4943 40.4764 17.4563 40.4574 17.4563 40.4384C17.4563 40.4384 17.4563 40.4004 17.4563 40.3814C17.4563 40.3814 17.4563 40.3814 17.4563 40.3624C17.4563 40.3624 17.4563 40.3624 17.4563 40.3434C17.4563 40.3244 17.4563 40.3054 17.4943 40.2864C17.4943 40.2864 17.5323 40.2674 17.5513 40.2674C17.5703 40.2674 17.6083 40.2674 17.6273 40.2674C17.6273 40.2674 17.6463 40.2674 17.6653 40.2674H17.6843V40.3814H17.6653ZM17.7984 40.5715V40.1343C17.7984 40.1343 17.7984 40.0773 17.7984 40.0583C17.7984 40.0393 17.7984 40.0203 17.7984 40.0013C17.7984 40.0013 17.7794 39.9633 17.7603 39.9633C17.7413 39.9443 17.7223 39.9253 17.6843 39.9063C17.6463 39.9063 17.6083 39.9063 17.5703 39.9063C17.5513 39.9063 17.5133 39.9063 17.4943 39.9063C17.4753 39.9063 17.4563 39.9063 17.4372 39.9063C17.4372 39.9063 17.4182 39.9063 17.3992 39.9063V40.0203C17.3992 40.0203 17.3992 40.0203 17.4372 40.0013C17.4372 40.0013 17.4753 40.0013 17.4943 39.9823C17.5133 39.9823 17.5323 39.9823 17.5703 39.9823C17.6083 39.9823 17.6273 39.9823 17.6463 39.9823C17.6653 39.9823 17.6843 39.9823 17.6843 40.0203C17.6843 40.0203 17.6843 40.0393 17.6843 40.0583C17.6843 40.0583 17.6843 40.0773 17.6843 40.0963V40.1153V40.1533C17.6843 40.1533 17.6843 40.1533 17.6653 40.1533C17.6653 40.1533 17.6463 40.1533 17.6273 40.1533C17.6083 40.1533 17.5703 40.1533 17.5513 40.1533C17.5323 40.1533 17.4943 40.1533 17.4753 40.1533C17.4563 40.1533 17.4372 40.1533 17.4182 40.1913C17.3992 40.1913 17.3802 40.2294 17.3612 40.2484C17.3612 40.2484 17.3422 40.2864 17.3422 40.3054V40.3434C17.3422 40.3434 17.3422 40.3624 17.3422 40.3814V40.4194C17.3422 40.4194 17.3422 40.4574 17.3422 40.4764C17.3422 40.4764 17.3422 40.5144 17.3802 40.5144C17.3802 40.5144 17.4182 40.5334 17.4372 40.5525C17.4563 40.5525 17.4753 40.5525 17.5133 40.5525C17.5513 40.5525 17.5703 40.5525 17.6083 40.5525C17.6273 40.5525 17.6653 40.5525 17.6653 40.5144C17.6653 40.5144 17.7033 40.4764 17.7033 40.4574V40.4954H17.7794L17.7984 40.5715ZM17.0381 40.4194C17.0381 40.4194 17.0381 40.4194 17.0191 40.4384C17.0191 40.4384 17.0191 40.4384 16.9811 40.4574C16.9811 40.4574 16.9621 40.4574 16.9431 40.4574C16.9431 40.4574 16.9241 40.4574 16.9051 40.4574C16.8861 40.4574 16.8481 40.4574 16.8481 40.4574C16.8481 40.4574 16.8101 40.4384 16.8101 40.4004C16.8101 40.3814 16.8101 40.3624 16.7911 40.3244C16.7911 40.3054 16.7911 40.2674 16.7911 40.2294C16.7911 40.2294 16.7911 40.1913 16.7911 40.1723C16.7911 40.1533 16.7911 40.1343 16.7911 40.1153C16.7911 40.0963 16.791 40.0773 16.8101 40.0583C16.8101 40.0583 16.8291 40.0203 16.8481 40.0203C16.8481 40.0203 16.8861 40.0203 16.9051 40.0203C16.9241 40.0203 16.9431 40.0203 16.9621 40.0203C16.9621 40.0203 17.0001 40.0203 17.0001 40.0393C17.0001 40.0393 17.0001 40.0583 17.0191 40.0773C17.0191 40.0773 17.0191 40.0963 17.0191 40.1153C17.0191 40.1153 17.0191 40.1343 17.0191 40.1533V40.4194H17.0381ZM17.1712 40.5715V39.6782H17.0381V39.9823C17.0381 39.9823 17.0381 39.9823 17.0001 39.9633C17.0001 39.9633 16.9811 39.9633 16.9621 39.9633C16.9621 39.9633 16.9241 39.9633 16.9051 39.9633C16.8671 39.9633 16.8481 39.9633 16.8101 39.9633C16.791 39.9633 16.753 39.9823 16.734 40.0013C16.734 40.0013 16.696 40.0393 16.696 40.0583C16.696 40.0773 16.677 40.1153 16.658 40.1343C16.658 40.1533 16.658 40.1913 16.658 40.2103C16.658 40.2294 16.658 40.2674 16.658 40.2864C16.658 40.3244 16.658 40.3624 16.658 40.3814C16.658 40.4194 16.658 40.4384 16.677 40.4764C16.677 40.4954 16.696 40.5334 16.715 40.5525C16.734 40.5715 16.753 40.5905 16.7911 40.6095C16.8101 40.6095 16.8481 40.6095 16.8861 40.6095C16.9051 40.6095 16.9241 40.6095 16.9431 40.6095C16.9431 40.6095 16.9811 40.6095 17.0001 40.5905C17.0001 40.5905 17.0381 40.5715 17.0571 40.5525V40.6095H17.1712V40.5715ZM16.3729 40.3814V40.4194C16.3729 40.4194 16.3729 40.4384 16.3349 40.4574C16.3349 40.4574 16.3159 40.4574 16.2969 40.4764C16.2969 40.4764 16.2969 40.4764 16.2779 40.4764C16.2779 40.4764 16.2779 40.4764 16.2589 40.4764C16.2399 40.4764 16.2209 40.4764 16.2019 40.4764C16.2019 40.4764 16.1639 40.4574 16.1639 40.4384C16.1639 40.4384 16.1639 40.4004 16.1639 40.3814C16.1639 40.3814 16.1639 40.3814 16.1639 40.3624C16.1639 40.3624 16.1639 40.3624 16.1639 40.3434C16.1639 40.3244 16.1639 40.3054 16.2019 40.2864C16.2019 40.2864 16.2399 40.2674 16.2589 40.2674C16.2779 40.2674 16.3159 40.2674 16.3349 40.2674C16.3349 40.2674 16.3539 40.2674 16.3729 40.2674H16.3919V40.3814H16.3729ZM16.506 40.5715V40.1343C16.506 40.1343 16.506 40.0773 16.506 40.0583C16.506 40.0393 16.506 40.0203 16.506 40.0013C16.506 40.0013 16.487 39.9633 16.468 39.9633C16.4489 39.9443 16.4299 39.9253 16.3919 39.9063C16.3539 39.9063 16.3159 39.9063 16.2779 39.9063C16.2589 39.9063 16.2209 39.9063 16.2019 39.9063C16.1829 39.9063 16.1639 39.9063 16.1449 39.9063C16.1449 39.9063 16.1258 39.9063 16.1068 39.9063V40.0203C16.1068 40.0203 16.1068 40.0203 16.1449 40.0013C16.1449 40.0013 16.1829 40.0013 16.2019 39.9823C16.2209 39.9823 16.2399 39.9823 16.2779 39.9823C16.3159 39.9823 16.3349 39.9823 16.3539 39.9823C16.3729 39.9823 16.3919 39.9823 16.3919 40.0203C16.3919 40.0203 16.3919 40.0393 16.3919 40.0583C16.3919 40.0583 16.3919 40.0773 16.3919 40.0963V40.1153V40.1533C16.3919 40.1533 16.3919 40.1533 16.3729 40.1533C16.3729 40.1533 16.3539 40.1533 16.3349 40.1533C16.3159 40.1533 16.2779 40.1533 16.2589 40.1533C16.2399 40.1533 16.2019 40.1533 16.1829 40.1533C16.1639 40.1533 16.1449 40.1533 16.1258 40.1913C16.1068 40.1913 16.0878 40.2294 16.0688 40.2484C16.0688 40.2484 16.0498 40.2864 16.0498 40.3054V40.3434C16.0498 40.3434 16.0498 40.3624 16.0498 40.3814V40.4194C16.0498 40.4194 16.0498 40.4574 16.0498 40.4764C16.0498 40.4764 16.0498 40.5144 16.0878 40.5144C16.0878 40.5144 16.1258 40.5334 16.1449 40.5525C16.1639 40.5525 16.1829 40.5525 16.2209 40.5525C16.2589 40.5525 16.2779 40.5525 16.3159 40.5525C16.3349 40.5525 16.3729 40.5525 16.3729 40.5144C16.3729 40.5144 16.4109 40.4764 16.4109 40.4574V40.4954H16.487L16.506 40.5715ZM15.7457 40.3054C15.7457 40.3054 15.7457 40.3434 15.7457 40.3624C15.7457 40.3624 15.7457 40.4004 15.7267 40.4004L15.6887 40.4194C15.6887 40.4194 15.6507 40.4194 15.6317 40.4194C15.6317 40.4194 15.5937 40.4194 15.5747 40.4194H15.4416V40.1533H15.5747C15.5747 40.1533 15.6127 40.1533 15.6317 40.1533C15.6507 40.1533 15.6697 40.1533 15.6887 40.1533C15.6887 40.1533 15.7267 40.1533 15.7267 40.1723C15.7267 40.1723 15.7267 40.1913 15.7457 40.2103C15.7457 40.2103 15.7457 40.2484 15.7457 40.2674V40.3054ZM15.7077 39.9253C15.7077 39.9253 15.7077 39.9633 15.7077 39.9823C15.7077 39.9823 15.7077 40.0013 15.6697 40.0203C15.6697 40.0203 15.6507 40.0203 15.6317 40.0393C15.6317 40.0393 15.6127 40.0393 15.5937 40.0393H15.5747H15.4416V39.7922H15.5747C15.5747 39.7922 15.5747 39.7922 15.5937 39.7922C15.5937 39.7922 15.5937 39.7922 15.6317 39.7922C15.6317 39.7922 15.6507 39.7922 15.6697 39.7922C15.6697 39.7922 15.6697 39.7922 15.6887 39.7922C15.6887 39.7922 15.7077 39.8112 15.7267 39.8302C15.7267 39.8302 15.7267 39.8682 15.7267 39.8872L15.7077 39.9253ZM15.8978 40.3054C15.8978 40.3054 15.8978 40.2674 15.8978 40.2484C15.8978 40.2484 15.8978 40.2103 15.8978 40.1913C15.8978 40.1913 15.8788 40.1533 15.8598 40.1533C15.8598 40.1533 15.8218 40.1343 15.8027 40.1153C15.7837 40.1153 15.7647 40.1153 15.7457 40.1153H15.7837C15.7837 40.1153 15.8027 40.1153 15.8218 40.0963C15.8218 40.0963 15.8408 40.0773 15.8598 40.0583C15.8598 40.0583 15.8598 40.0203 15.8788 40.0013C15.8788 39.9823 15.8788 39.9633 15.8788 39.9253C15.8788 39.8873 15.8788 39.8682 15.8788 39.8302C15.8788 39.8112 15.8598 39.7922 15.8408 39.7732C15.8408 39.7732 15.8027 39.7352 15.7837 39.7352C15.7647 39.7352 15.7267 39.7162 15.6887 39.7162C15.6507 39.7162 15.6317 39.7162 15.5937 39.7162H15.3086V40.6095H15.5937C15.5937 40.6095 15.6317 40.6095 15.6697 40.6095C15.6887 40.6095 15.7077 40.6095 15.7457 40.6095C15.7647 40.6095 15.7837 40.6095 15.8218 40.5905C15.8408 40.5905 15.8598 40.5715 15.8788 40.5525C15.8788 40.5334 15.9168 40.5144 15.9168 40.4954C15.9168 40.4764 15.9168 40.4574 15.9358 40.4194C15.9358 40.4004 15.9358 40.3814 15.9358 40.3434L15.8978 40.3054ZM29.734 40.5715V40.1343C29.734 40.1343 29.734 40.0963 29.734 40.0773C29.734 40.0583 29.734 40.0393 29.734 40.0203C29.734 40.0203 29.734 39.9823 29.715 39.9633C29.715 39.9443 29.677 39.9253 29.658 39.9063C29.639 39.9063 29.601 39.9063 29.563 39.9063C29.544 39.9063 29.506 39.9063 29.487 39.9063C29.4679 39.9063 29.4489 39.9063 29.4299 39.9443C29.4299 39.9443 29.4109 39.9633 29.3919 39.9823V40.0013V39.9063H29.2589V40.5715H29.3919V40.1723V40.1343C29.3919 40.1343 29.3919 40.0963 29.3919 40.0773C29.3919 40.0773 29.3919 40.0393 29.4299 40.0393C29.4299 40.0393 29.4489 40.0393 29.4679 40.0203C29.4679 40.0203 29.506 40.0203 29.525 40.0203C29.563 40.0203 29.582 40.0203 29.601 40.0203C29.601 40.0203 29.62 40.0393 29.639 40.0583C29.639 40.0583 29.639 40.0963 29.639 40.1153C29.639 40.1153 29.639 40.1533 29.639 40.1723V40.5905H29.772L29.734 40.5715ZM29.0688 40.5715V39.9063H28.9358V40.5715H29.0688ZM29.0688 39.7542C29.0688 39.7542 29.0688 39.7352 29.0688 39.7162C29.0688 39.7162 29.0688 39.7162 29.0498 39.6972C29.0498 39.6972 29.0308 39.6972 29.0118 39.6972C29.0118 39.6972 28.9928 39.6972 28.9738 39.6972C28.9738 39.6972 28.9548 39.6972 28.9548 39.7162C28.9548 39.7162 28.9548 39.7352 28.9548 39.7542C28.9548 39.7542 28.9548 39.7732 28.9548 39.7922C28.9548 39.7922 28.9548 39.7922 28.9738 39.8112C28.9738 39.8112 28.9928 39.8112 29.0118 39.8112C29.0118 39.8112 29.0308 39.8112 29.0498 39.8112C29.0498 39.8112 29.0688 39.8112 29.0688 39.7922C29.0688 39.7922 29.0688 39.7732 29.0688 39.7542ZM28.7837 40.5715V40.1343C28.7837 40.1343 28.7837 40.0963 28.7837 40.0773C28.7837 40.0773 28.7837 40.0393 28.7837 40.0203C28.7837 40.0203 28.7837 39.9823 28.7647 39.9633C28.7647 39.9633 28.7457 39.9253 28.7267 39.9253C28.7267 39.9253 28.6887 39.9063 28.6697 39.9063C28.6507 39.9063 28.6317 39.9063 28.6127 39.9063C28.5937 39.9063 28.5557 39.9063 28.5367 39.9063C28.5177 39.9063 28.4987 39.9063 28.4796 39.9253C28.4796 39.9253 28.4606 39.9443 28.4416 39.9633C28.4416 39.9633 28.4416 39.9823 28.4226 39.9823C28.4226 39.9823 28.4226 39.9823 28.4226 39.9443C28.4226 39.9443 28.4226 39.9253 28.3846 39.9063C28.3846 39.9063 28.3656 39.9063 28.3466 39.9063C28.3466 39.9063 28.3276 39.9063 28.3086 39.9063C28.3086 39.9063 28.2896 39.9063 28.2706 39.9063C28.2516 39.9063 28.2136 39.9063 28.1946 39.9063C28.1756 39.9063 28.1565 39.9063 28.1375 39.9253C28.1375 39.9253 28.1185 39.9443 28.0995 39.9633C28.0995 39.9633 28.0995 39.9823 28.0995 40.0013V39.9063H27.9665V40.5715H28.0995V40.1723C28.0995 40.1723 28.0995 40.1153 28.0995 40.0963V40.0583C28.0995 40.0583 28.0995 40.0393 28.1185 40.0393C28.1185 40.0393 28.1375 40.0393 28.1565 40.0203C28.1565 40.0203 28.1756 40.0203 28.1946 40.0203C28.2136 40.0203 28.2326 40.0203 28.2326 40.0203C28.2326 40.0203 28.2516 40.0203 28.2706 40.0203C28.2706 40.0203 28.2706 40.0203 28.2896 40.0583C28.2896 40.0583 28.2896 40.0773 28.2896 40.0963C28.2896 40.0963 28.2896 40.1343 28.2896 40.1533V40.5715H28.4226V40.1723V40.1343V40.0963C28.4226 40.0963 28.4226 40.0583 28.4606 40.0583C28.4606 40.0583 28.4796 40.0583 28.4987 40.0393C28.4987 40.0393 28.5177 40.0393 28.5367 40.0393H28.5747C28.5747 40.0393 28.5937 40.0393 28.6127 40.0583C28.6127 40.0583 28.6127 40.0583 28.6317 40.0773C28.6317 40.0773 28.6317 40.0773 28.6317 40.0963C28.6317 40.0963 28.6317 40.0963 28.6317 40.1153C28.6317 40.1153 28.6317 40.1343 28.6317 40.1533C28.6317 40.1533 28.6317 40.1723 28.6317 40.1913V40.6095H28.7647L28.7837 40.5715ZM27.6624 40.3814V40.4194C27.6624 40.4194 27.6624 40.4384 27.6244 40.4574C27.6244 40.4574 27.6054 40.4574 27.5864 40.4764C27.5864 40.4764 27.5864 40.4764 27.5674 40.4764C27.5674 40.4764 27.5674 40.4764 27.5484 40.4764C27.5294 40.4764 27.5103 40.4764 27.4913 40.4764C27.4913 40.4764 27.4533 40.4574 27.4533 40.4384C27.4533 40.4384 27.4533 40.4004 27.4533 40.3814C27.4533 40.3814 27.4533 40.3814 27.4533 40.3624C27.4533 40.3624 27.4533 40.3624 27.4533 40.3434C27.4533 40.3244 27.4533 40.3054 27.4913 40.2864C27.4913 40.2864 27.5294 40.2674 27.5484 40.2674C27.5674 40.2674 27.6054 40.2674 27.6244 40.2674C27.6244 40.2674 27.6434 40.2674 27.6624 40.2674H27.6814V40.3814H27.6624ZM27.7954 40.5715V40.1343C27.7954 40.1343 27.7954 40.0773 27.7954 40.0583C27.7954 40.0393 27.7954 40.0203 27.7954 40.0013C27.7954 40.0013 27.7764 39.9633 27.7574 39.9633C27.7384 39.9443 27.7194 39.9253 27.6814 39.9063C27.6434 39.9063 27.6054 39.9063 27.5674 39.9063C27.5484 39.9063 27.5103 39.9063 27.4913 39.9063C27.4723 39.9063 27.4533 39.9063 27.4343 39.9063C27.4343 39.9063 27.4153 39.9063 27.3963 39.9063V40.0203C27.3963 40.0203 27.3963 40.0203 27.4343 40.0013C27.4343 40.0013 27.4723 40.0013 27.4913 39.9823C27.5103 39.9823 27.5294 39.9823 27.5674 39.9823C27.6054 39.9823 27.6244 39.9823 27.6434 39.9823C27.6624 39.9823 27.6814 39.9823 27.6814 40.0203C27.6814 40.0203 27.6814 40.0393 27.6814 40.0583C27.6814 40.0583 27.6814 40.0773 27.6814 40.0963V40.1153V40.1533C27.6814 40.1533 27.6814 40.1533 27.6624 40.1533C27.6624 40.1533 27.6434 40.1533 27.6244 40.1533C27.6054 40.1533 27.5674 40.1533 27.5484 40.1533C27.5294 40.1533 27.4913 40.1533 27.4723 40.1533C27.4533 40.1533 27.4343 40.1533 27.4153 40.1913C27.3963 40.1913 27.3773 40.2294 27.3583 40.2484C27.3583 40.2484 27.3393 40.2864 27.3393 40.3054V40.3434C27.3393 40.3434 27.3393 40.3624 27.3393 40.3814V40.4194C27.3393 40.4194 27.3393 40.4574 27.3393 40.4764C27.3393 40.4764 27.3583 40.5144 27.3773 40.5144C27.3773 40.5144 27.4153 40.5334 27.4343 40.5525C27.4533 40.5525 27.4723 40.5525 27.5103 40.5525C27.5484 40.5525 27.5674 40.5525 27.6054 40.5525C27.6244 40.5525 27.6624 40.5525 27.6624 40.5144C27.6624 40.5144 27.7004 40.4764 27.7004 40.4574V40.4954H27.7764L27.7954 40.5715ZM27.1682 40.2484V39.6782H27.0162V40.2484C27.0162 40.2484 27.0162 40.2864 27.0162 40.3054C27.0162 40.3244 27.0162 40.3434 27.0162 40.3624C27.0162 40.3814 27.0162 40.4004 26.9972 40.4194C26.9972 40.4194 26.9592 40.4574 26.9402 40.4574C26.9212 40.4574 26.9022 40.4574 26.8641 40.4574C26.8451 40.4574 26.8261 40.4574 26.8071 40.4574H26.7691C26.7691 40.4574 26.7501 40.4574 26.7311 40.4574L26.7691 40.5905C26.7691 40.5905 26.7691 40.5905 26.7881 40.5905C26.7881 40.5905 26.8071 40.5905 26.8261 40.5905C26.8261 40.5905 26.8641 40.5905 26.8832 40.5905C26.8832 40.5905 26.9022 40.5905 26.9212 40.5905C26.9212 40.5905 26.9592 40.5905 26.9782 40.5905C26.9782 40.5905 27.0162 40.5905 27.0352 40.5905C27.0352 40.5905 27.0732 40.5715 27.0922 40.5525C27.0922 40.5525 27.1112 40.5144 27.1302 40.5144C27.1302 40.5144 27.1492 40.4764 27.1492 40.4574C27.1492 40.4384 27.1492 40.4004 27.1492 40.3814C27.1492 40.3434 27.1492 40.3244 27.1492 40.2674L27.1682 40.2484ZM31.0074 40.5715V40.1343C31.0074 40.1343 31.0074 40.0963 31.0074 40.0773C31.0074 40.0583 31.0074 40.0393 31.0074 40.0203C31.0074 40.0203 31.0074 39.9823 30.9884 39.9633C30.9884 39.9443 30.9504 39.9253 30.9314 39.9063C30.9124 39.9063 30.8744 39.9063 30.8364 39.9063C30.8174 39.9063 30.7794 39.9063 30.7603 39.9063C30.7413 39.9063 30.7223 39.9063 30.7033 39.9443C30.7033 39.9443 30.6843 39.9633 30.6653 39.9823V40.0013V39.9063H30.5323V40.5715H30.6653V40.1723V40.1343C30.6653 40.1343 30.6653 40.0963 30.6653 40.0773C30.6653 40.0773 30.6653 40.0393 30.7033 40.0393C30.7033 40.0393 30.7223 40.0393 30.7413 40.0203C30.7413 40.0203 30.7794 40.0203 30.7984 40.0203C30.8364 40.0203 30.8554 40.0203 30.8744 40.0203C30.8744 40.0203 30.8934 40.0393 30.9124 40.0583C30.9124 40.0583 30.9124 40.0963 30.9124 40.1153C30.9124 40.1153 30.9124 40.1533 30.9124 40.1723V40.5905H31.0454L31.0074 40.5715ZM30.2282 40.3814V40.4194C30.2282 40.4194 30.2282 40.4384 30.1902 40.4574C30.1902 40.4574 30.1712 40.4574 30.1522 40.4764C30.1522 40.4764 30.1522 40.4764 30.1332 40.4764C30.1332 40.4764 30.1332 40.4764 30.1141 40.4764C30.0951 40.4764 30.0761 40.4764 30.0571 40.4764C30.0571 40.4764 30.0191 40.4574 30.0191 40.4384C30.0191 40.4384 30.0191 40.4004 30.0191 40.3814C30.0191 40.3814 30.0191 40.3814 30.0191 40.3624C30.0191 40.3624 30.0191 40.3624 30.0191 40.3434C30.0191 40.3244 30.0191 40.3054 30.0571 40.2864C30.0571 40.2864 30.0951 40.2674 30.1141 40.2674C30.1332 40.2674 30.1712 40.2674 30.1902 40.2674C30.1902 40.2674 30.2092 40.2674 30.2282 40.2674H30.2472V40.3814H30.2282ZM30.3612 40.5715V40.1343C30.3612 40.1343 30.3612 40.0773 30.3612 40.0583C30.3612 40.0393 30.3612 40.0203 30.3612 40.0013C30.3612 40.0013 30.3422 39.9633 30.3232 39.9633C30.3042 39.9443 30.2852 39.9253 30.2472 39.9063C30.2092 39.9063 30.1712 39.9063 30.1332 39.9063C30.1141 39.9063 30.0761 39.9063 30.0571 39.9063C30.0381 39.9063 30.0191 39.9063 30.0001 39.9063C30.0001 39.9063 29.9811 39.9063 29.9621 39.9063V40.0203C29.9621 40.0203 29.9621 40.0203 30.0001 40.0013C30.0001 40.0013 30.0381 40.0013 30.0571 39.9823C30.0761 39.9823 30.0951 39.9823 30.1332 39.9823C30.1712 39.9823 30.1902 39.9823 30.2092 39.9823C30.2282 39.9823 30.2472 39.9823 30.2472 40.0203C30.2472 40.0203 30.2472 40.0393 30.2472 40.0583C30.2472 40.0583 30.2472 40.0773 30.2472 40.0963V40.1153V40.1533C30.2472 40.1533 30.2472 40.1533 30.2282 40.1533C30.2282 40.1533 30.2092 40.1533 30.1902 40.1533C30.1712 40.1533 30.1332 40.1533 30.1141 40.1533C30.0951 40.1533 30.0571 40.1533 30.0381 40.1533C30.0191 40.1533 30.0001 40.1533 29.9811 40.1913C29.9621 40.1913 29.9431 40.2294 29.9241 40.2484C29.9241 40.2484 29.9051 40.2864 29.9051 40.3054V40.3434C29.9051 40.3434 29.9051 40.3624 29.9051 40.3814V40.4194C29.9051 40.4194 29.9051 40.4574 29.9051 40.4764C29.9051 40.4764 29.9051 40.5144 29.9431 40.5144C29.9431 40.5144 29.9811 40.5334 30.0001 40.5525C30.0191 40.5525 30.0381 40.5525 30.0761 40.5525C30.1141 40.5525 30.1332 40.5525 30.1712 40.5525C30.1902 40.5525 30.2282 40.5525 30.2282 40.5144C30.2282 40.5144 30.2662 40.4764 30.2662 40.4574V40.4954H30.3422L30.3612 40.5715ZM34.3525 40.5715V39.6782H34.2194V40.5715H34.3525ZM33.9343 40.3814V40.4194C33.9343 40.4194 33.9343 40.4384 33.8963 40.4574C33.8963 40.4574 33.8773 40.4574 33.8583 40.4764C33.8583 40.4764 33.8583 40.4764 33.8393 40.4764C33.8393 40.4764 33.8393 40.4764 33.8203 40.4764C33.8013 40.4764 33.7823 40.4764 33.7633 40.4764C33.7633 40.4764 33.7253 40.4574 33.7253 40.4384C33.7253 40.4384 33.7253 40.4004 33.7253 40.3814C33.7253 40.3814 33.7253 40.3814 33.7253 40.3624C33.7253 40.3624 33.7253 40.3624 33.7253 40.3434C33.7253 40.3244 33.7253 40.3054 33.7633 40.2864C33.7633 40.2864 33.8013 40.2674 33.8203 40.2674C33.8393 40.2674 33.8773 40.2674 33.8963 40.2674C33.8963 40.2674 33.9153 40.2674 33.9343 40.2674H33.9533V40.3814H33.9343ZM34.0674 40.5715V40.1343C34.0674 40.1343 34.0674 40.0773 34.0674 40.0583C34.0674 40.0393 34.0674 40.0203 34.0674 40.0013C34.0674 40.0013 34.0484 39.9633 34.0294 39.9633C34.0103 39.9443 33.9913 39.9253 33.9533 39.9063C33.9153 39.9063 33.8773 39.9063 33.8393 39.9063C33.8203 39.9063 33.7823 39.9063 33.7633 39.9063C33.7443 39.9063 33.7253 39.9063 33.7063 39.9063C33.7063 39.9063 33.6872 39.9063 33.6682 39.9063V40.0203C33.6682 40.0203 33.6682 40.0203 33.7063 40.0013C33.7063 40.0013 33.7443 40.0013 33.7633 39.9823C33.7823 39.9823 33.8013 39.9823 33.8393 39.9823C33.8773 39.9823 33.8963 39.9823 33.9153 39.9823C33.9343 39.9823 33.9533 39.9823 33.9533 40.0203C33.9533 40.0203 33.9533 40.0393 33.9533 40.0583C33.9533 40.0583 33.9533 40.0773 33.9533 40.0963V40.1153V40.1533C33.9533 40.1533 33.9533 40.1533 33.9343 40.1533C33.9343 40.1533 33.9153 40.1533 33.8963 40.1533C33.8773 40.1533 33.8393 40.1533 33.8203 40.1533C33.8013 40.1533 33.7633 40.1533 33.7443 40.1533C33.7253 40.1533 33.7063 40.1533 33.6872 40.1913C33.6682 40.1913 33.6492 40.2294 33.6302 40.2484C33.6302 40.2484 33.6112 40.2864 33.6112 40.3054V40.3434C33.6112 40.3434 33.6112 40.3624 33.6112 40.3814V40.4194C33.6112 40.4194 33.6112 40.4574 33.6112 40.4764C33.6112 40.4764 33.6112 40.5144 33.6492 40.5144C33.6492 40.5144 33.6872 40.5334 33.7063 40.5525C33.7253 40.5525 33.7443 40.5525 33.7823 40.5525C33.8203 40.5525 33.8393 40.5525 33.8773 40.5525C33.8963 40.5525 33.9343 40.5525 33.9343 40.5144C33.9343 40.5144 33.9723 40.4764 33.9723 40.4574V40.4954H34.0484L34.0674 40.5715ZM33.4402 40.5715V39.9063H33.3071V40.5715H33.4402ZM33.4402 39.7542C33.4402 39.7542 33.4402 39.7352 33.4402 39.7162C33.4402 39.7162 33.4402 39.7162 33.4212 39.6972C33.4212 39.6972 33.4022 39.6972 33.3832 39.6972C33.3832 39.6972 33.3641 39.6972 33.3451 39.6972C33.3451 39.6972 33.3261 39.6972 33.3261 39.7162C33.3261 39.7162 33.3261 39.7352 33.3261 39.7542C33.3261 39.7542 33.3261 39.7732 33.3261 39.7922C33.3261 39.7922 33.3261 39.7922 33.3451 39.8112C33.3451 39.8112 33.3641 39.8112 33.3832 39.8112C33.3832 39.8112 33.4022 39.8112 33.4212 39.8112C33.4212 39.8112 33.4402 39.8112 33.4402 39.7922C33.4402 39.7922 33.4402 39.7732 33.4402 39.7542ZM33.1741 40.4004C33.1741 40.4004 33.1741 40.3434 33.1551 40.3244C33.1551 40.3054 33.1171 40.2864 33.0981 40.2674C33.0791 40.2674 33.0411 40.2294 33.022 40.2294C33.022 40.2294 32.984 40.2294 32.984 40.2103C32.984 40.2103 32.946 40.2103 32.946 40.1913C32.946 40.1913 32.927 40.1913 32.908 40.1533C32.908 40.1533 32.908 40.1343 32.908 40.1153C32.908 40.0963 32.908 40.0773 32.927 40.0583C32.927 40.0583 32.965 40.0393 33.003 40.0393C33.022 40.0393 33.0601 40.0393 33.0791 40.0393C33.0981 40.0393 33.1171 40.0393 33.1361 40.0393C33.1361 40.0393 33.1551 40.0393 33.1741 40.0393V39.9253H33.1551C33.1551 39.9253 33.1551 39.9253 33.1171 39.9253C33.1171 39.9253 33.0791 39.9253 33.0601 39.9253C33.041 39.9253 33.003 39.9253 32.984 39.9253C32.946 39.9253 32.927 39.9253 32.908 39.9253C32.889 39.9253 32.87 39.9253 32.851 39.9633C32.851 39.9633 32.813 40.0013 32.813 40.0203C32.813 40.0393 32.813 40.0773 32.813 40.0963C32.813 40.1343 32.813 40.1533 32.813 40.1723C32.813 40.1913 32.832 40.2103 32.851 40.2294C32.851 40.2294 32.889 40.2484 32.908 40.2674C32.927 40.2674 32.946 40.2864 32.965 40.3054C32.984 40.3054 33.003 40.3054 33.022 40.3244C33.022 40.3244 33.0601 40.3434 33.0601 40.3624C33.0601 40.3624 33.0601 40.3814 33.0601 40.4004C33.0601 40.4384 33.0601 40.4574 33.041 40.4574C33.041 40.4574 33.003 40.4764 32.946 40.4764C32.927 40.4764 32.908 40.4764 32.87 40.4764C32.851 40.4764 32.832 40.4764 32.813 40.4574C32.813 40.4574 32.775 40.4574 32.775 40.4384V40.5715C32.775 40.5715 32.813 40.5715 32.832 40.5715C32.832 40.5715 32.87 40.5715 32.889 40.5715C32.908 40.5715 32.946 40.5715 32.984 40.5715C33.022 40.5715 33.041 40.5715 33.0791 40.5715C33.1171 40.5715 33.1361 40.5525 33.1551 40.5334C33.1551 40.5334 33.1931 40.4954 33.1931 40.4764C33.1931 40.4574 33.1931 40.4194 33.1931 40.4004H33.1741ZM32.5089 40.2674C32.5089 40.2674 32.5089 40.3624 32.5089 40.3814C32.5089 40.4194 32.4899 40.4384 32.4709 40.4574C32.4519 40.4764 32.4329 40.4954 32.3948 40.4954C32.3568 40.4954 32.3378 40.4954 32.2998 40.4764C32.2808 40.4764 32.2618 40.4384 32.2428 40.4004C32.2428 40.3624 32.2428 40.3244 32.2428 40.2674C32.2428 40.2294 32.2428 40.2104 32.2428 40.1723C32.2428 40.1343 32.2428 40.1153 32.2618 40.0963C32.2618 40.0773 32.2808 40.0583 32.2998 40.0393C32.3188 40.0393 32.3378 40.0203 32.3758 40.0203C32.3949 40.0203 32.4139 40.0203 32.4329 40.0203C32.4329 40.0203 32.4709 40.0393 32.4709 40.0583C32.4709 40.0583 32.4709 40.0963 32.4899 40.1153C32.4899 40.1343 32.4899 40.1533 32.4899 40.1913C32.4899 40.2103 32.4899 40.2294 32.4899 40.2674H32.5089ZM32.6419 40.2674C32.6419 40.2674 32.6419 40.1913 32.6419 40.1533C32.6419 40.1153 32.6419 40.0963 32.6229 40.0583C32.6229 40.0203 32.5849 40.0013 32.5659 39.9823C32.5469 39.9633 32.5089 39.9443 32.4899 39.9253C32.4519 39.9253 32.4139 39.9063 32.3758 39.9063C32.3378 39.9063 32.2998 39.9063 32.2618 39.9063C32.2238 39.9063 32.2048 39.9443 32.1858 39.9633C32.1668 39.9823 32.1478 40.0013 32.1288 40.0393C32.1288 40.0773 32.1098 40.0963 32.0908 40.1343C32.0908 40.1723 32.0908 40.2104 32.0908 40.2484C32.0908 40.3054 32.0908 40.3434 32.0908 40.3814C32.0908 40.4194 32.1098 40.4574 32.1478 40.4954C32.1668 40.5334 32.2048 40.5525 32.2428 40.5715C32.2808 40.5715 32.3188 40.5905 32.3758 40.5905C32.4139 40.5905 32.4519 40.5905 32.4899 40.5715C32.5279 40.5715 32.5469 40.5334 32.5849 40.4954C32.6039 40.4574 32.6229 40.4384 32.6419 40.3814C32.6419 40.3434 32.6419 40.3054 32.6419 40.2484V40.2674ZM31.9957 40.3434C31.9957 40.3434 31.9957 40.2864 31.9957 40.2674C31.9957 40.2484 31.9767 40.2294 31.9577 40.2103C31.9577 40.1913 31.9197 40.1723 31.9007 40.1533C31.8817 40.1533 31.8627 40.1343 31.8247 40.1153C31.8057 40.1153 31.7867 40.0963 31.7487 40.0773C31.7296 40.0773 31.7106 40.0583 31.6916 40.0393C31.6726 40.0393 31.6536 40.0203 31.6346 40.0013C31.6346 40.0013 31.6346 40.0013 31.6156 39.9823C31.6156 39.9823 31.6156 39.9823 31.6156 39.9633C31.6156 39.9633 31.6156 39.9633 31.6156 39.9443C31.6156 39.9443 31.6156 39.9063 31.6156 39.8872C31.6156 39.8872 31.6346 39.8492 31.6536 39.8492C31.6536 39.8492 31.6916 39.8492 31.7106 39.8492C31.7296 39.8492 31.7487 39.8492 31.7867 39.8492H31.8247C31.8247 39.8492 31.8437 39.8492 31.8627 39.8492H31.9007C31.9007 39.8492 31.9197 39.8492 31.9387 39.8492L31.9007 39.7162C31.9007 39.7162 31.9007 39.7162 31.8627 39.7162C31.8627 39.7162 31.8247 39.7162 31.8057 39.7162C31.7867 39.7162 31.7487 39.7162 31.7296 39.7162C31.7106 39.7162 31.6726 39.7162 31.6536 39.7162C31.6346 39.7162 31.5966 39.7162 31.5776 39.7352C31.5586 39.7352 31.5396 39.7542 31.5206 39.7732C31.5206 39.7732 31.4826 39.8112 31.4826 39.8302C31.4826 39.8302 31.4826 39.8682 31.4636 39.8872C31.4636 39.8872 31.4636 39.9253 31.4636 39.9443C31.4636 39.9633 31.4636 39.9823 31.4636 40.0013C31.4636 40.0203 31.4636 40.0393 31.4826 40.0583C31.4826 40.0773 31.5016 40.0963 31.5206 40.1153C31.5206 40.1153 31.5586 40.1343 31.5776 40.1533C31.5966 40.1533 31.6156 40.1723 31.6536 40.1913C31.6726 40.1913 31.6916 40.2103 31.7296 40.2294C31.7487 40.2294 31.7677 40.2484 31.7867 40.2674C31.7867 40.2674 31.8057 40.2864 31.8247 40.3054C31.8247 40.3054 31.8247 40.3244 31.8437 40.3434C31.8437 40.3434 31.8437 40.3624 31.8437 40.3814C31.8437 40.4004 31.8437 40.4194 31.8437 40.4384C31.8437 40.4384 31.8247 40.4764 31.8057 40.4764C31.8057 40.4764 31.7867 40.4764 31.7677 40.4764C31.7677 40.4764 31.7487 40.4764 31.7296 40.4764C31.7296 40.4764 31.7106 40.4764 31.6916 40.4764C31.6916 40.4764 31.6916 40.4764 31.6726 40.4764C31.6726 40.4764 31.6536 40.4764 31.6346 40.4764C31.6346 40.4764 31.6156 40.4764 31.5966 40.4764C31.5776 40.4764 31.5396 40.4764 31.5206 40.4764H31.4826L31.5206 40.6095C31.5206 40.6095 31.5396 40.6095 31.5586 40.6095C31.5586 40.6095 31.5966 40.6095 31.6156 40.6095C31.6346 40.6095 31.6726 40.6095 31.7106 40.6095C31.7296 40.6095 31.7677 40.6095 31.7867 40.6095C31.8247 40.6095 31.8437 40.6095 31.8817 40.5905C31.9007 40.5905 31.9387 40.5715 31.9577 40.5525C31.9767 40.5334 31.9957 40.5144 32.0147 40.4764C32.0147 40.4384 32.0337 40.4004 32.0337 40.3624L31.9957 40.3434Z" fill="#023F87"/>
<path fill-rule="evenodd" clip-rule="evenodd" d="M9.75857 38.8039C9.81559 38.4238 10.1957 38.3288 10.2337 37.9867C10.0627 38.0627 9.8536 38.0437 9.72056 37.9106C9.54951 38.2147 9.54951 38.4998 9.77758 38.8039H9.75857Z" fill="#023F87"/>
<path fill-rule="evenodd" clip-rule="evenodd" d="M10.5003 37.7206C10.6904 37.7016 10.8614 37.5495 11.0135 37.4165C11.2225 37.2264 11.5266 36.9984 11.8307 37.0364C11.3176 36.8843 10.7474 36.9984 10.4053 37.2074C10.5383 37.3595 10.5763 37.5495 10.5003 37.7206Z" fill="#023F87"/>
<path fill-rule="evenodd" clip-rule="evenodd" d="M12.9712 38.937C12.9142 39.3171 12.5341 39.4122 12.4961 39.7543C12.6671 39.6782 12.8762 39.6972 13.0093 39.8303C13.1803 39.5262 13.1803 39.2411 12.9522 38.937H12.9712Z" fill="#023F87"/>
<path fill-rule="evenodd" clip-rule="evenodd" d="M12.2298 40.0203C12.0398 40.0393 11.8687 40.1913 11.7167 40.3244C11.5076 40.5144 11.2035 40.7425 10.8994 40.7235C11.4126 40.8755 11.9827 40.7615 12.3249 40.5524C12.1918 40.4004 12.1538 40.2103 12.2298 40.0393V40.0203Z" fill="#023F87"/>
<path fill-rule="evenodd" clip-rule="evenodd" d="M11.4316 37.2644C11.8118 37.3214 11.9068 37.7016 12.2489 37.7396C12.1729 37.5685 12.1919 37.3595 12.3249 37.2264C12.0208 37.0554 11.7357 37.0554 11.4316 37.2834V37.2644Z" fill="#00A551"/>
<path fill-rule="evenodd" clip-rule="evenodd" d="M12.5146 38.0057C12.5337 38.1957 12.6857 38.3668 12.8187 38.5188C13.0088 38.7279 13.2369 39.032 13.2179 39.3361C13.3699 38.8229 13.2559 38.2527 13.0468 37.9106C12.8948 38.0437 12.7047 38.0817 12.5337 38.0057H12.5146Z" fill="#00A551"/>
<path fill-rule="evenodd" clip-rule="evenodd" d="M11.2985 40.4764C10.9184 40.4193 10.8234 40.0392 10.4813 40.0012C10.5573 40.1723 10.5383 40.3813 10.4053 40.5144C10.7094 40.6854 10.9945 40.6854 11.2985 40.4574V40.4764Z" fill="#00A551"/>
<path fill-rule="evenodd" clip-rule="evenodd" d="M10.215 39.7352C10.196 39.5451 10.0439 39.3741 9.91089 39.222C9.72083 39.013 9.49276 38.7089 9.53077 38.4048C9.37872 38.9179 9.49276 39.4881 9.70182 39.8302C9.85387 39.6972 10.0439 39.6592 10.215 39.7352Z" fill="#00A551"/>
<path fill-rule="evenodd" clip-rule="evenodd" d="M12.9899 37.2454C13.1419 37.3974 13.1419 37.6635 12.9899 37.8156C12.8378 37.9676 12.5717 37.9676 12.4197 37.8156C12.2677 37.6635 12.2677 37.3974 12.4197 37.2454C12.5717 37.0933 12.8378 37.0933 12.9899 37.2454Z" fill="#00A551"/>
<path fill-rule="evenodd" clip-rule="evenodd" d="M10.3102 39.9253C10.4622 40.0774 10.4622 40.3434 10.3102 40.4955C10.1581 40.6475 9.89206 40.6475 9.74001 40.4955C9.58796 40.3434 9.58796 40.0774 9.74001 39.9253C9.89206 39.7733 10.1581 39.7733 10.3102 39.9253Z" fill="#00A551"/>
<path fill-rule="evenodd" clip-rule="evenodd" d="M12.9899 40.4955C12.8378 40.6475 12.5717 40.6475 12.4197 40.4955C12.2677 40.3434 12.2677 40.0774 12.4197 39.9253C12.5717 39.7733 12.8378 39.7733 12.9899 39.9253C13.1419 40.0774 13.1419 40.3434 12.9899 40.4955Z" fill="#023F87"/>
<path fill-rule="evenodd" clip-rule="evenodd" d="M10.3102 37.8156C10.1581 37.9676 9.89206 37.9676 9.74001 37.8156C9.58796 37.6635 9.58796 37.3974 9.74001 37.2454C9.89206 37.0933 10.1581 37.0933 10.3102 37.2454C10.4622 37.3974 10.4622 37.6635 10.3102 37.8156Z" fill="#023F87"/>
<path fill-rule="evenodd" clip-rule="evenodd" d="M11.1845 39.222V39.374H11.5266V39.0509L11.8307 39.336C11.8307 39.336 11.8497 39.374 11.8497 39.393V39.488C11.8307 39.488 11.7927 39.488 11.7737 39.488H11.2985V39.6401L10.9945 39.336L11.2985 39.0319L11.1845 39.222ZM11.5266 38.7088H11.8497V39.0509H11.6977L12.0018 39.355L12.3059 39.0509H12.1538V38.5758C12.1538 38.5758 12.1538 38.5188 12.1538 38.4997H12.0588C12.0588 38.4997 12.0208 38.4997 12.0018 38.5188L11.7167 38.8228L11.5266 38.7088ZM11.1845 39.0509H10.8614V38.7088H11.0135L10.7094 38.4047L10.4053 38.7088H10.5573V39.184C10.5573 39.184 10.5573 39.241 10.5573 39.26H10.6523C10.6523 39.26 10.6904 39.26 10.7094 39.241L10.9945 38.9369L11.1845 39.0509ZM11.1845 38.7088L10.8804 38.4237C10.8804 38.4237 10.8614 38.3857 10.8614 38.3667V38.2717C10.8804 38.2717 10.9184 38.2717 10.9374 38.2717H11.4126V38.1196L11.7167 38.4237L11.4126 38.7278V38.5758H11.0705V38.8989L11.1845 38.7088Z" fill="#00A551"/>
<path fill-rule="evenodd" clip-rule="evenodd" d="M11.185 39.355V39.0509H10.8809V38.6898H11.185V38.3857H11.5461V38.6898H11.8502V39.0509H11.5461V39.355H11.185Z" fill="white"/>
</g>
<defs>
<clipPath id="clip0_862_8820">
<rect width="52" height="21.7807" fill="white" transform="translate(4 19)"/>
</clipPath>
</defs>
</svg>
