<?xml version="1.0" encoding="UTF-8"?>
<svg id="Layer_2" data-name="Layer 2" xmlns="http://www.w3.org/2000/svg" viewBox="0 0 201.63 31.02">
  <defs>
    <style>
      .cls-1, .cls-2 {
        fill: #00a551;
      }

      .cls-3, .cls-4 {
        fill: #023f87;
      }

      .cls-5 {
        fill: #fff;
      }

      .cls-5, .cls-4, .cls-2 {
        fill-rule: evenodd;
      }
    </style>
  </defs>
  <g id="Layer_1-2" data-name="Layer 1">
    <g>
      <g>
        <g>
          <path class="cls-1" d="m102.91,15.1c-.82-2.4-1.65-4.8-2.47-7.2l-1.86,2.32v4.89c0,1.19-.67,1.96-2.12,1.95h-.87c0-5.69,0-11.37,0-17.06h.64c.31,0,.57,0,.87.05,1.02.19,1.49.9,1.49,1.9v5.32l5.31-6.39C104.64,0,105.07,0,106.29,0h.41c-1.4,1.8-2.8,3.59-4.2,5.39,1.43,3.89,2.87,7.78,4.3,11.67h-.47c-.69,0-1.35.03-1.98-.26-.43-.2-.78-.5-1.04-.88-.18-.26-.29-.53-.39-.82Z"/>
          <path class="cls-1" d="m117.94,14.86c-.75,1.62-2.53,2.23-4.43,2.23-2.94,0-4.55-1.61-5.27-3.72-.5-1.46-.66-3.28-.39-4.99.41-2.61,2-5.38,5.29-5.38,4.76,0,5.3,3.68,5.46,6.99h-7.97c-.09,1.98.32,5.61,3.29,5.61.79,0,1.39-.14,1.79-.42.72-.42,1.31-.79,2.23-.33h0Zm-2.06-6.09c-.06-.8-.15-1.48-.27-2.03-.71-3.15-3.98-2.82-4.74-.02-.15.55-.24,1.24-.26,2.05h5.27Z"/>
          <path class="cls-1" d="m122.91,15.03c.53.35,1.17.53,1.91.53s1.35-.18,1.73-.55c.38-.36.57-.83.57-1.4,0-.4-.06-.73-.19-1-.13-.27-.29-.5-.5-.69-.2-.19-.44-.35-.7-.47-.27-.12-.53-.24-.81-.34-.61-.22-1.17-.46-1.68-.71-.51-.26-.95-.55-1.32-.87-.37-.32-.66-.69-.87-1.11-.21-.42-.31-.9-.31-1.46,0-.66.12-1.24.35-1.73.23-.5.56-.91.98-1.24.42-.33.91-.58,1.49-.75.57-.17,1.2-.25,1.87-.25.82,0,1.59.13,2.31.41.72.27,1.24.77,1.58,1.5-.97.68-1.6.19-2.21-.03-.11-.06-.23-.11-.35-.16-.34-.12-.71-.18-1.11-.18-.32,0-.63.04-.93.11-.3.07-.56.19-.79.34-.23.15-.4.35-.53.58-.13.23-.19.52-.19.85,0,.55.17.99.51,1.29.34.31.76.56,1.27.77.51.2,1.06.4,1.64.58.59.18,1.14.43,1.64.73.51.31.93.71,1.27,1.21.34.5.51,1.17.51,2.02,0,.64-.13,1.22-.37,1.73-.25.51-.59.94-1.03,1.29-.43.35-.95.62-1.56.81-.6.19-1.25.28-1.94.28-1.16,0-2.15-.21-2.97-.64-.82-.42-1.43-1.07-1.81-1.95.32-.2.83-.5,1.49-.26.44.16.7.49,1.07.74Z"/>
          <path class="cls-1" d="m152.71,6.72c0-.7-.16-1.17-.5-1.43-.33-.25-.85-.38-1.56-.38-.58,0-1.12.13-1.62.38-.5.25-.86.53-1.09.85v9.06c0,.95-.45,1.62-1.42,1.81-.29.05-.53.05-.83.05h-.61V0h.61c.3,0,.54,0,.83.05.97.18,1.42.85,1.42,1.81v1.26h0v1.58c.37-.45.92-.84,1.64-1.18.73-.34,1.57-.51,2.54-.51,1.16,0,2.02.29,2.59.86.56.57.85,1.46.85,2.66v10.54h-.61c-.3,0-.54,0-.83-.05-.97-.18-1.42-.85-1.42-1.81V6.72Z"/>
          <path class="cls-1" d="m164.87,9.29c-.32.16-.7.29-1.14.38-.43.09-.85.2-1.26.32-.81.23-1.38.59-1.74,1.07-.35.48-.53,1.11-.53,1.88,0,.87.17,1.51.52,1.91.35.4.89.6,1.63.6.56,0,1.06-.13,1.5-.39.43-.26.77-.63,1.01-1.09v-4.67h0Zm.22,5.87c-.32.6-.81,1.06-1.45,1.41-.64.34-1.4.51-2.27.51-1.32,0-2.31-.33-2.96-.99-.65-.66-.98-1.58-.98-2.76s.26-2.08.77-2.71c.51-.63,1.31-1.11,2.39-1.44.35-.12.73-.21,1.12-.27.39-.07.78-.13,1.16-.2.38-.06.74-.14,1.09-.24.79-.22.87-.42.88-.98,0-.26,0-.52,0-.77,0-.71-.16-1.25-.48-1.61-.32-.36-.93-.55-1.84-.55-.68,0-1.26.13-1.75.4-.95.52-1.37.94-2.6.34.47-.81,1.11-1.4,1.92-1.76.81-.36,1.69-.53,2.64-.53.68,0,1.32.05,1.92.14.6.09,1.13.28,1.57.54.44.27.79.65,1.05,1.13.26.49.39,1.12.39,1.91v10.33c-.07,0-.45,0-.77,0-1.36,0-1.78-.72-1.81-1.91Z"/>
          <path class="cls-1" d="m177.79,16.16c-.45.33-.91.56-1.39.7-.48.14-1.1.21-1.87.21-1.22,0-2.18-.35-2.87-1.04-.69-.69-1.04-1.65-1.04-2.88V4.39h-.46c-.79-.02-1.21-.15-1.21-1.38h1.67V0h.61c.3,0,.54,0,.83.05.97.18,1.42.85,1.42,1.81v1.15h1.67c.79.02,1.21.15,1.21,1.38h-2.9v8.77c0,.76.17,1.35.5,1.77.33.42.86.64,1.58.64.26,0,.5-.02.7-.05.84-.13,1.25-.01,1.57.65Z"/>
          <path class="cls-1" d="m198.78,6.72c0-.7-.17-1.17-.5-1.43-.33-.25-.85-.38-1.56-.38-.58,0-1.12.13-1.62.38-.5.25-.86.53-1.09.85v9.06c0,.95-.45,1.62-1.42,1.81-.29.05-.53.05-.83.05h-.61V3h.61c.3,0,.54,0,.83.05.91.17,1.36.78,1.41,1.64h0c.37-.45.92-.84,1.64-1.18.72-.34,1.57-.51,2.54-.51,1.16,0,2.02.29,2.59.86.56.57.85,1.46.85,2.66v10.54h-.61c-.3,0-.54,0-.83-.05-.97-.18-1.42-.85-1.42-1.81V6.72Z"/>
          <path class="cls-1" d="m142.11,14.86c-.75,1.62-2.53,2.23-4.43,2.23-2.94,0-4.55-1.61-5.27-3.72-.5-1.46-.66-3.28-.4-4.99.41-2.61,2-5.38,5.29-5.38,4.76,0,5.3,3.68,5.46,6.99h-7.97c-.09,1.98.32,5.61,3.29,5.61.79,0,1.39-.14,1.79-.42.72-.42,1.31-.79,2.23-.33h0Zm-2.06-6.09c-.06-.8-.15-1.48-.27-2.03-.7-3.15-3.98-2.82-4.74-.02-.15.55-.24,1.24-.26,2.05h5.27Z"/>
          <path class="cls-1" d="m186.26,9.29c-.32.16-.7.29-1.14.38-.43.09-.85.2-1.26.32-.81.23-1.39.59-1.74,1.07-.35.48-.53,1.11-.53,1.88,0,.87.17,1.51.52,1.91.35.4.89.6,1.63.6.56,0,1.06-.13,1.5-.39.44-.26.77-.63,1.02-1.09v-4.67h0Zm.22,5.87c-.32.6-.81,1.06-1.45,1.41-.64.34-1.4.51-2.27.51-1.32,0-2.31-.33-2.96-.99-.65-.66-.98-1.58-.98-2.76s.26-2.08.77-2.71c.52-.63,1.31-1.11,2.39-1.44.35-.12.73-.21,1.12-.27.39-.07.78-.13,1.16-.2.38-.06.74-.14,1.09-.24.79-.22.87-.42.88-.98,0-.26,0-.52,0-.77,0-.71-.16-1.25-.48-1.61-.32-.36-.93-.55-1.84-.55-.68,0-1.26.13-1.75.4-.95.52-1.37.94-2.6.34.47-.81,1.11-1.4,1.92-1.76.81-.36,1.69-.53,2.64-.53.68,0,1.32.05,1.92.14.6.09,1.13.28,1.57.54.44.27.79.65,1.05,1.13.26.49.39,1.12.39,1.91v10.33c-.07,0-.45,0-.77,0-1.36,0-1.78-.72-1.81-1.91Z"/>
        </g>
        <path class="cls-3" d="m51.73,7.72c1.88-.06,2.41-1.7,2.41-3.07,0-1.44-.15-3.07-2.1-3.07h-2.51v6.14h2.2Zm-.03,7.9c.93,0,1.62-.26,2.06-.78.44-.52.66-1.36.66-2.52,0-1.47-.2-2.97-2.22-3.27h-2.68v6.57h2.17Zm-5.17,1.47V.04h5.86c3.31,0,4.79,2.12,4.49,4.9-.14,1.28-.62,2.6-1.91,3.29,3.16.96,3.16,5.58,1.3,7.58-.8.85-2.07,1.28-3.83,1.28h-5.91Z"/>
        <path class="cls-3" d="m60.66.04h5.79c.87,0,1.61.09,2.22.27.61.18,1.1.44,1.47.8.37.36.64.81.81,1.35.17.54.25,1.18.25,1.9,0,1.16-.09,2.13-.27,2.9-.18.78-.47,1.41-.89,1.88-.42.47-.97.82-1.65,1.02-.68.21-1.53.31-2.55.31h-2.2v4.66c0,1.19-.67,1.96-2.12,1.95h-.87c0-5.68,0-11.37,0-17.05h0Zm4.88,8.93c.48,0,.89-.06,1.22-.19.33-.13.6-.34.82-.63.22-.3.37-.69.47-1.18.1-.49.14-1.1.14-1.83s-.04-1.3-.12-1.76c-.08-.46-.21-.82-.37-1.09-.17-.27-.39-.45-.66-.56-.27-.1-.61-.16-1.01-.16h-2.37v7.39h1.88Z"/>
        <path class="cls-3" d="m74.4.04h.63c.31,0,.56,0,.86.05,1.01.19,1.48.89,1.48,1.88v10.88c0,2.83-1.67,4.25-5.02,4.25-.16,0-.31,0-.46,0-1.09-.02-2.06-.27-2.89-.75-.86-.5-1.49-1.22-1.89-2.15.7-.28,1.3-.43,1.93.04.26.19.47.42.75.61.3.2.64.35,1.02.44.81.2,1.96.21,2.74-.22.79-.44.86-1.27.86-2.05V.04Z"/>
        <path class="cls-3" d="m82.59,14.84c.55.37,1.23.56,2.05.56.39,0,.76-.06,1.11-.18.35-.12.66-.29.93-.52.27-.22.48-.49.63-.82.15-.32.23-.68.23-1.09,0-.36-.06-.67-.17-.95-.11-.27-.27-.52-.46-.73-.19-.22-.42-.41-.69-.59-.27-.18-.55-.36-.86-.55-.69-.4-1.33-.79-1.92-1.17-.59-.38-1.1-.79-1.53-1.22-.43-.43-.78-.91-1.03-1.43-.25-.52-.37-1.14-.37-1.86,0-.62.11-1.18.33-1.7.22-.52.54-.96.97-1.34.43-.38.95-.68,1.56-.89.61-.22,1.31-.32,2.1-.32,1.03,0,1.92.21,2.66.63.74.42,1.24,1.02,1.5,1.78-.86.37-1.49.17-2.19-.35-.44-.29-.97-.44-1.58-.44-.85,0-1.52.21-1.99.62-.47.42-.71,1-.71,1.76,0,.63.18,1.15.54,1.57.36.42.81.79,1.35,1.13.54.34,1.13.66,1.76.97.64.31,1.22.67,1.76,1.08.54.41.99.9,1.35,1.47.36.57.54,1.29.54,2.15,0,.67-.13,1.3-.39,1.87-.26.57-.63,1.07-1.11,1.48-.48.42-1.07.74-1.77.98-.7.24-1.49.36-2.38.36-1.14,0-2.14-.25-3.01-.75-.86-.5-1.49-1.22-1.89-2.15.7-.28,1.3-.43,1.93.04.26.19.47.42.75.61Z"/>
      </g>
      <path class="cls-3" d="m113.08,29.13v-3.58c0-.16,0-.32-.02-.48-.02-.16-.05-.31-.1-.45-.05-.14-.13-.28-.23-.41-.13-.19-.31-.32-.53-.41-.22-.09-.47-.13-.77-.13-.23,0-.43.04-.6.1-.17.06-.31.14-.43.23-.11.09-.2.18-.27.27-.06.09-.11.16-.13.21v-.7h-1.04v5.33h1.04v-3.28c0-.11,0-.23.02-.37.01-.13.05-.26.1-.39.05-.13.13-.24.24-.35.09-.08.19-.15.31-.19.11-.05.25-.07.41-.07.23,0,.41.04.55.11.13.07.23.17.29.29.06.12.1.26.12.41.02.15.02.3.02.47v3.37h1.02Zm-6.19-3.09h-2.25s0-.05,0-.13c0-.08.01-.18.03-.3.02-.12.05-.25.1-.38.05-.13.11-.26.2-.37.09-.12.2-.21.34-.28.14-.07.31-.1.51-.09.18,0,.34.05.46.12.13.07.23.17.31.29.08.12.14.24.18.37.04.13.07.25.09.37.02.12.03.21.03.29,0,.08,0,.12,0,.13h0Zm1.03.71v-.3c0-.14,0-.3-.02-.49-.01-.19-.05-.39-.09-.6-.05-.21-.12-.41-.21-.61-.09-.2-.22-.38-.37-.54-.15-.16-.35-.29-.58-.39-.23-.1-.51-.14-.83-.14-.33,0-.62.05-.86.14-.24.09-.45.22-.62.38-.17.16-.31.34-.41.54-.11.2-.19.4-.25.62-.06.21-.1.42-.12.61-.02.2-.03.38-.03.53,0,.15,0,.32.03.51.02.19.06.38.12.58.06.2.15.4.26.59.12.19.27.36.46.52.19.15.42.28.7.36.28.09.61.14.99.14.25,0,.47-.02.66-.06.19-.04.35-.08.48-.13.13-.05.23-.09.3-.13.07-.04.11-.07.13-.08l.15-.94s-.06.04-.12.09c-.07.05-.16.1-.29.16-.12.06-.28.11-.47.15-.19.04-.41.06-.66.05-.3,0-.55-.05-.75-.13-.2-.08-.36-.18-.48-.3-.12-.12-.21-.25-.27-.38-.06-.13-.1-.26-.11-.37-.02-.11-.03-.2-.02-.26v-.13h3.29Zm-5.56,2.38v-7.23h-1.01v7.23h1.01Zm-3.18-3.09h-2.25s0-.05,0-.13c0-.08.01-.18.03-.3.02-.12.05-.25.1-.38.05-.13.11-.26.2-.37.09-.12.2-.21.34-.28.14-.07.31-.1.51-.09.18,0,.34.05.46.12.13.07.23.17.31.29.08.12.14.24.18.37.04.13.07.25.09.37.02.12.03.21.03.29,0,.08,0,.12,0,.13h0Zm1.03.71v-.3c0-.14,0-.3-.02-.49-.01-.19-.05-.39-.09-.6-.05-.21-.12-.41-.21-.61-.09-.2-.22-.38-.37-.54-.15-.16-.35-.29-.58-.39-.23-.1-.51-.14-.83-.14-.33,0-.62.05-.86.14-.24.09-.45.22-.62.38-.17.16-.31.34-.41.54-.11.2-.19.4-.25.62-.06.21-.1.42-.12.61-.02.2-.03.38-.03.53,0,.15,0,.32.03.51.02.19.06.38.12.58.06.2.15.4.26.59.12.19.27.36.46.52.19.15.42.28.7.36.28.09.61.14.99.14.25,0,.47-.02.65-.06.19-.04.35-.08.48-.13.13-.05.23-.09.3-.13.07-.04.11-.07.13-.08l.15-.94s-.06.04-.12.09c-.07.05-.16.1-.29.16-.12.06-.28.11-.47.15-.19.04-.41.06-.66.05-.3,0-.55-.05-.75-.13-.2-.08-.36-.18-.48-.3-.12-.12-.21-.25-.26-.38-.06-.13-.1-.26-.11-.37-.02-.11-.03-.2-.02-.26v-.13h3.28Zm-4.7-2.95h-1.01l-1.16,4.13-1.18-4.13h-1.05l1.7,5.31-.08.36c-.02.11-.05.2-.1.29-.05.09-.11.16-.18.21-.08.05-.17.08-.29.08-.14,0-.26-.02-.37-.05-.11-.03-.19-.06-.25-.09-.06-.03-.09-.05-.09-.05l.11.86s.04.02.11.05c.07.03.17.06.3.09.13.03.28.04.46.04.22,0,.4-.04.55-.12.15-.08.27-.19.37-.32.1-.14.18-.3.25-.48.07-.18.13-.38.2-.59l1.72-5.58h0Zm-5.08,5.33v-3.58c0-.16,0-.32-.02-.48-.02-.16-.05-.31-.1-.45-.05-.14-.13-.28-.23-.41-.13-.19-.31-.32-.53-.41-.22-.09-.47-.13-.77-.13-.23,0-.43.04-.6.1-.17.06-.31.14-.43.23-.12.09-.2.18-.27.27-.06.09-.11.16-.13.21v-.7h-1.04v5.33h1.04v-3.28c0-.11,0-.23.02-.37.01-.13.05-.26.1-.39.05-.13.13-.24.24-.35.09-.08.19-.15.31-.19.11-.05.25-.07.41-.07.23,0,.41.04.55.11.13.07.23.17.29.29.06.12.1.26.12.41.02.15.02.3.02.47v3.37h1.02Zm-6.19-3.09h-2.25s0-.05,0-.13c0-.08.01-.18.03-.3.02-.12.05-.25.1-.38.05-.13.11-.26.2-.37.09-.12.2-.21.34-.28.14-.07.31-.1.51-.09.18,0,.34.05.46.12.13.07.23.17.31.29.08.12.14.24.18.37.04.13.07.25.09.37.02.12.03.21.03.29,0,.08,0,.12,0,.13h0Zm1.03.71v-.3c0-.14,0-.3-.02-.49-.01-.19-.05-.39-.09-.6-.05-.21-.12-.41-.21-.61-.09-.2-.22-.38-.37-.54-.15-.16-.35-.29-.58-.39-.23-.1-.51-.14-.83-.14-.33,0-.62.05-.86.14-.24.09-.45.22-.62.38-.17.16-.31.34-.41.54-.11.2-.19.4-.25.62-.06.21-.1.42-.12.61-.02.2-.03.38-.03.53,0,.15,0,.32.03.51.02.19.06.38.12.58.06.2.15.4.26.59.12.19.27.36.46.52.19.15.42.28.7.36.28.09.61.14.99.14.25,0,.47-.02.66-.06.19-.04.35-.08.48-.13.13-.05.23-.09.3-.13.07-.04.11-.07.13-.08l.15-.94s-.06.04-.12.09c-.07.05-.16.1-.29.16-.12.06-.28.11-.47.15-.19.04-.41.06-.66.05-.3,0-.55-.05-.75-.13-.2-.08-.36-.18-.48-.3-.12-.12-.21-.25-.26-.38-.06-.13-.1-.26-.11-.37-.02-.11-.03-.2-.02-.26v-.13h3.28Zm-6.31-2.35c0,.23-.02.43-.07.6-.05.16-.12.3-.22.42-.08.11-.18.19-.27.25-.1.06-.19.11-.29.13-.09.03-.18.05-.25.05-.07,0-.12.01-.15.01h-1.09v-2.96h1.09c.08,0,.17,0,.27.02.11.02.22.05.33.1.11.05.22.13.32.24.1.11.18.26.24.44.06.18.09.42.09.7h0Zm1.24,0c0-.39-.05-.73-.14-1.01-.09-.28-.22-.52-.38-.71-.16-.19-.35-.34-.56-.45-.21-.11-.45-.19-.69-.24-.25-.05-.5-.07-.77-.07h-2.23v7.2h1.2v-2.29h1.07c.21,0,.42-.01.64-.04.21-.03.42-.09.63-.18.21-.09.41-.23.6-.42.2-.18.35-.43.46-.73.11-.3.17-.66.17-1.06h0Zm55.54,3.14c0,.13-.03.25-.09.34-.06.1-.14.19-.24.26-.1.07-.21.13-.34.18-.07.03-.14.05-.21.06-.07.01-.13.02-.19.02-.17,0-.33-.03-.47-.09-.14-.06-.25-.16-.33-.29-.09-.13-.13-.3-.13-.5,0-.05,0-.11,0-.16,0-.06.02-.11.03-.16.05-.16.14-.29.27-.4.13-.1.28-.18.47-.22.19-.05.4-.07.64-.07.11,0,.21,0,.29.01.09,0,.16.02.21.03.05,0,.08.01.08.02v.97h0Zm1.04,1.59v-3.5c0-.23-.01-.43-.04-.6-.03-.17-.07-.32-.14-.45-.07-.13-.16-.26-.28-.38-.16-.16-.37-.29-.63-.39-.27-.1-.59-.15-.98-.15-.23,0-.43.02-.61.06-.17.03-.32.08-.44.12-.12.05-.21.09-.27.12-.06.04-.09.05-.09.05l-.18.94s.03-.03.09-.07c.06-.05.14-.1.26-.16.12-.06.26-.12.43-.17.17-.05.37-.08.59-.08.28,0,.51.03.68.09.17.06.3.14.37.25.07.09.12.18.14.27.03.09.04.18.04.27,0,.09,0,.16,0,.23v.27s-.03,0-.08-.01c-.05,0-.13-.01-.22-.02-.09,0-.2-.01-.31-.01-.2,0-.41.01-.61.04-.21.03-.4.07-.59.14-.19.06-.37.15-.53.26-.16.11-.3.24-.41.4-.09.13-.16.26-.2.39-.05.13-.07.24-.09.35-.02.11-.02.19-.02.26,0,.11.01.23.04.37.03.14.07.27.14.41.06.14.15.27.27.38.12.12.26.21.44.29.17.08.38.12.63.13.26,0,.5-.02.7-.09.21-.06.39-.15.54-.27.15-.12.28-.26.39-.41v.31c0,.05,0,.1,0,.15,0,.05.03.1.07.14.03.03.07.05.12.07.05.01.09.02.13.02.04,0,.07,0,.09,0h.56Zm-4.17-4.24l-.15-.97c-.05-.03-.09-.06-.13-.08-.04-.02-.07-.04-.1-.05-.03-.01-.07-.03-.12-.04-.06-.01-.11-.02-.15-.03-.04,0-.09,0-.14,0-.09,0-.17,0-.25.01-.08.01-.16.03-.24.07-.08.03-.15.08-.22.15-.08.08-.15.15-.2.23-.05.08-.09.15-.12.21-.03.06-.05.11-.06.14v-.72h-1.04v5.33h1.04v-3.03c0-.09,0-.19,0-.31,0-.11.02-.23.04-.35.03-.12.07-.24.12-.36.06-.1.12-.18.21-.26.08-.08.18-.14.29-.18.11-.04.24-.07.38-.07.17,0,.33.03.46.09.13.06.26.13.37.23h0Zm-5.15,2.65c0,.13-.03.25-.09.34-.06.1-.14.19-.24.26-.1.07-.21.13-.34.18-.07.03-.14.05-.21.06-.07.01-.14.02-.19.02-.17,0-.33-.03-.47-.09-.14-.06-.25-.16-.33-.29-.08-.13-.13-.3-.13-.5,0-.05,0-.11,0-.16,0-.06.02-.11.03-.16.05-.16.14-.29.27-.4.13-.1.28-.18.47-.22.19-.05.4-.07.64-.07.11,0,.21,0,.29.01.09,0,.16.02.21.03.05,0,.08.01.08.02v.97h0Zm1.04,1.59v-3.5c0-.23-.01-.43-.04-.6-.03-.17-.07-.32-.14-.45-.07-.13-.16-.26-.28-.38-.16-.16-.37-.29-.63-.39-.27-.1-.59-.15-.98-.15-.23,0-.43.02-.61.06-.17.03-.32.08-.44.12-.12.05-.21.09-.27.12-.06.04-.09.05-.09.05l-.19.94s.03-.03.09-.07c.06-.05.14-.1.26-.16.12-.06.26-.12.43-.17.17-.05.37-.08.59-.08.28,0,.51.03.68.09.17.06.3.14.37.25.07.09.12.18.14.27.03.09.04.18.04.27,0,.09,0,.16,0,.23v.27s-.03,0-.08-.01c-.05,0-.13-.01-.22-.02-.09,0-.2-.01-.31-.01-.2,0-.41.01-.61.04-.21.03-.4.07-.59.14-.19.06-.37.15-.53.26-.16.11-.3.24-.41.4-.09.13-.16.26-.2.39-.05.13-.07.24-.09.35-.02.11-.02.19-.02.26,0,.11.01.23.04.37.03.14.07.27.14.41.06.14.15.27.27.38.12.12.26.21.44.29.17.08.39.12.63.13.26,0,.5-.02.7-.09.21-.06.39-.15.54-.27.15-.12.28-.26.38-.41v.31c0,.05,0,.1.01.15,0,.05.03.1.07.14.03.03.07.05.12.07.05.01.09.02.13.02.04,0,.07,0,.09,0h.56Zm-5.83.45c0,.12-.03.23-.1.32-.07.09-.16.16-.27.22-.11.06-.24.1-.37.13-.13.03-.27.04-.4.04-.26,0-.48-.03-.67-.09-.19-.06-.33-.15-.44-.25-.1-.11-.15-.24-.15-.39,0-.1.02-.19.05-.28.03-.08.07-.15.12-.21.05-.06.09-.1.12-.13.04-.03.05-.05.06-.05h.91c.23,0,.42.03.57.07.15.04.26.09.35.16.08.07.14.14.18.22.03.08.05.16.05.25h0Zm-.13-4.03c0,.24-.04.44-.12.61-.08.17-.2.3-.36.39-.16.09-.36.14-.6.14-.2,0-.37-.05-.52-.15-.14-.1-.25-.23-.32-.4-.07-.17-.11-.37-.11-.59s.04-.44.11-.6c.07-.16.18-.29.33-.37.15-.08.33-.13.56-.12.19,0,.36.04.49.1.13.06.24.15.32.25.08.1.14.22.17.35.04.13.05.26.05.39h0Zm1.17,3.98c0-.5-.17-.86-.53-1.1-.36-.24-.89-.36-1.59-.35-.08,0-.17,0-.28,0-.11,0-.22,0-.34,0-.12,0-.22-.02-.32-.04-.1-.02-.18-.05-.24-.1-.06-.05-.09-.11-.1-.19,0-.09.03-.16.1-.21.06-.05.15-.08.26-.1.11-.02.24-.03.38-.03.14,0,.29,0,.46,0,.44,0,.82-.08,1.13-.23.31-.15.54-.36.71-.65.16-.28.24-.62.24-1.01v-1.73h-.53s-.09,0-.13,0c-.05,0-.09.01-.14.03-.05.02-.09.06-.13.11-.04.05-.06.11-.07.17,0,.06-.01.11,0,.15v.07s-.01-.02-.04-.06c-.03-.04-.07-.09-.14-.15-.07-.06-.15-.12-.26-.18-.11-.06-.24-.11-.39-.16-.16-.04-.34-.06-.55-.06-.14,0-.28.01-.43.05-.15.03-.3.09-.45.17-.15.08-.28.19-.4.33-.12.14-.21.31-.28.52-.07.21-.1.46-.1.76,0,.2.03.38.08.54.05.16.12.29.19.4.08.11.15.2.23.27.08.07.14.13.19.16.05.03.08.05.08.05,0,0-.04,0-.1.01-.07.01-.15.03-.24.07-.1.03-.19.08-.29.15-.1.07-.18.16-.24.27-.06.11-.1.26-.1.43,0,.13,0,.24.04.33.03.09.08.17.14.23.06.06.12.11.19.14.07.04.13.06.2.08,0,0-.02.01-.06.04-.04.02-.09.06-.14.11-.06.05-.11.12-.17.2-.06.08-.1.18-.14.29-.04.11-.06.24-.06.39,0,.26.09.48.26.68.17.2.42.35.74.47.33.11.73.17,1.2.17.29,0,.57-.03.82-.09.26-.06.49-.15.69-.27.2-.12.36-.28.48-.47.12-.19.18-.41.2-.67h0Zm-6.25.05c0,.12-.03.23-.1.32-.07.09-.16.16-.27.22-.11.06-.24.1-.37.13-.14.03-.27.04-.4.04-.26,0-.48-.03-.67-.09-.19-.06-.33-.15-.44-.25-.1-.11-.15-.24-.15-.39,0-.1.02-.19.06-.28.03-.08.07-.15.12-.21.05-.06.09-.1.12-.13.04-.03.05-.05.05-.05h.91c.23,0,.42.03.57.07.15.04.26.09.35.16.08.07.14.14.18.22.03.08.05.16.05.25h0Zm-.13-4.03c0,.24-.04.44-.12.61-.08.17-.2.3-.36.39-.16.09-.36.14-.59.14-.2,0-.37-.05-.52-.15-.14-.1-.25-.23-.32-.4-.07-.17-.11-.37-.11-.59s.04-.44.11-.6c.07-.16.18-.29.33-.37.15-.08.33-.13.56-.12.2,0,.36.04.49.1.13.06.24.15.32.25.08.1.14.22.17.35.04.13.05.26.05.39h0Zm1.17,3.98c0-.5-.17-.86-.53-1.1-.36-.24-.89-.36-1.59-.35-.08,0-.17,0-.28,0-.11,0-.22,0-.34,0-.12,0-.22-.02-.32-.04-.1-.02-.18-.05-.24-.1-.06-.05-.09-.11-.1-.19,0-.09.03-.16.1-.21.06-.05.15-.08.26-.1.11-.02.24-.03.38-.03.14,0,.29,0,.46,0,.44,0,.82-.08,1.13-.23.31-.15.54-.36.71-.65.16-.28.24-.62.24-1.01v-1.73h-.53s-.09,0-.13,0c-.05,0-.09.01-.14.03-.05.02-.09.06-.14.11-.04.05-.06.11-.07.17,0,.06-.01.11-.01.15v.07s-.01-.02-.04-.06c-.03-.04-.07-.09-.14-.15-.07-.06-.15-.12-.26-.18-.11-.06-.24-.11-.4-.16-.16-.04-.34-.06-.55-.06-.14,0-.28.01-.43.05-.15.03-.3.09-.45.17-.15.08-.28.19-.4.33-.12.14-.21.31-.28.52-.07.21-.1.46-.1.76,0,.2.03.38.08.54.05.16.12.29.19.4.08.11.15.2.23.27.08.07.14.13.19.16.05.03.08.05.08.05,0,0-.04,0-.1.01-.07.01-.15.03-.24.07-.1.03-.19.08-.29.15-.1.07-.18.16-.24.27-.06.11-.1.26-.1.43,0,.13,0,.24.04.33.03.09.08.17.14.23.06.06.12.11.19.14.07.04.13.06.19.08,0,0-.02.01-.06.04-.04.02-.08.06-.14.11-.06.05-.11.12-.17.2-.06.08-.1.18-.14.29-.04.11-.06.24-.06.39,0,.26.09.48.26.68s.42.35.74.47c.33.11.73.17,1.2.17.29,0,.57-.03.82-.09.26-.06.49-.15.69-.27.2-.12.36-.28.48-.47.12-.19.18-.41.2-.67h0Zm-46.18-.4v-3.58c0-.16,0-.32-.02-.48-.02-.16-.05-.31-.1-.45-.05-.14-.13-.28-.23-.41-.13-.19-.31-.32-.53-.41-.22-.09-.47-.13-.77-.13-.23,0-.43.04-.6.1-.17.06-.31.14-.43.23-.12.09-.2.18-.27.27-.06.09-.11.16-.13.21v-.7h-1.04v5.33h1.04v-3.28c0-.11,0-.23.02-.37.01-.13.05-.26.1-.39.05-.13.13-.24.24-.35.09-.08.19-.15.31-.19.11-.05.25-.07.41-.07.23,0,.41.04.55.11.13.07.23.17.29.29.06.12.1.26.12.41.02.15.02.3.02.47v3.37h1.02Zm-6.35-1.59c0,.13-.03.25-.09.34-.06.1-.14.19-.24.26-.1.07-.21.13-.34.18-.07.03-.14.05-.21.06-.07.01-.13.02-.19.02-.17,0-.33-.03-.47-.09-.14-.06-.25-.16-.33-.29-.08-.13-.13-.3-.13-.5,0-.05,0-.11,0-.16,0-.06.02-.11.03-.16.05-.16.14-.29.27-.4.13-.1.28-.18.47-.22.19-.05.4-.07.64-.07.11,0,.21,0,.29.01.09,0,.16.02.21.03.05,0,.08.01.08.02v.97h0Zm1.04,1.59v-3.5c0-.23-.01-.43-.04-.6-.03-.17-.07-.32-.14-.45-.07-.13-.16-.26-.28-.38-.16-.16-.36-.29-.63-.39-.27-.1-.59-.15-.98-.15-.23,0-.43.02-.61.06-.17.03-.32.08-.44.12-.12.05-.21.09-.27.12-.06.04-.09.05-.09.05l-.19.94s.03-.03.09-.07c.06-.05.14-.1.26-.16.12-.06.26-.12.43-.17.17-.05.37-.08.59-.08.28,0,.51.03.68.09.17.06.3.14.37.25.07.09.12.18.14.27.03.09.04.18.04.27,0,.09,0,.16,0,.23v.27s-.03,0-.08-.01c-.05,0-.12-.01-.22-.02-.09,0-.2-.01-.32-.01-.2,0-.41.01-.61.04-.21.03-.4.07-.59.14-.19.06-.37.15-.53.26-.16.11-.3.24-.41.4-.09.13-.16.26-.2.39-.05.13-.07.24-.09.35-.02.11-.02.19-.02.26,0,.11.01.23.04.37.03.14.07.27.14.41.06.14.15.27.27.38.12.12.26.21.44.29.17.08.39.12.63.13.26,0,.5-.02.7-.09.21-.06.39-.15.54-.27.15-.12.28-.26.39-.41v.31c0,.05,0,.1,0,.15,0,.05.03.1.07.14.03.03.07.05.12.07.05.01.09.02.13.02.04,0,.07,0,.09,0h.56Zm-6.24-1.26c-.05.06-.11.13-.18.18-.07.06-.15.11-.24.16-.11.05-.22.09-.32.11-.1.02-.21.03-.32.03-.21,0-.39-.05-.54-.15-.15-.09-.26-.23-.35-.4-.09-.17-.15-.37-.2-.59-.04-.23-.06-.47-.07-.74,0-.15,0-.31.02-.49.01-.18.04-.36.08-.53.04-.18.1-.34.18-.49.08-.15.19-.27.33-.36.14-.09.31-.14.52-.14.19,0,.34.03.48.08.13.05.24.13.32.22.08.08.13.18.18.28.04.1.07.21.08.32.01.11.02.22.02.32v2.17h0Zm1.04,1.26v-7.23h-1.04v2.4s-.01-.02-.04-.06c-.03-.04-.07-.09-.12-.15-.06-.06-.14-.12-.23-.18-.1-.06-.22-.11-.36-.15-.14-.04-.32-.06-.51-.06-.28,0-.52.05-.73.13-.21.09-.39.21-.54.36-.15.15-.28.32-.38.51-.1.19-.18.39-.24.6-.06.21-.1.42-.13.62-.03.21-.04.4-.04.58,0,.29.02.57.07.84.05.27.12.52.21.75.1.23.23.43.39.6.16.17.35.3.57.4.23.09.49.14.79.13.19,0,.36-.03.52-.08.15-.05.3-.12.43-.21.13-.09.27-.2.39-.32v.53h.99Zm-6.46-1.59c0,.13-.03.25-.09.34-.06.1-.14.19-.24.26-.1.07-.21.13-.34.18-.07.03-.14.05-.21.06-.07.01-.14.02-.19.02-.17,0-.33-.03-.47-.09-.14-.06-.25-.16-.33-.29-.08-.13-.13-.3-.13-.5,0-.05,0-.11,0-.16,0-.06.02-.11.03-.16.05-.16.14-.29.27-.4.13-.1.28-.18.47-.22.19-.05.4-.07.64-.07.11,0,.21,0,.29.01.09,0,.16.02.21.03.05,0,.08.01.08.02v.97h0Zm1.04,1.59v-3.5c0-.23-.01-.43-.04-.6-.03-.17-.07-.32-.14-.45-.06-.13-.16-.26-.28-.38-.16-.16-.37-.29-.63-.39-.27-.1-.59-.15-.98-.15-.23,0-.43.02-.61.06-.17.03-.32.08-.44.12-.12.05-.21.09-.27.12-.06.04-.09.05-.09.05l-.19.94s.03-.03.09-.07c.06-.05.14-.1.26-.16.12-.06.26-.12.43-.17.17-.05.37-.08.59-.08.28,0,.51.03.68.09.17.06.3.14.37.25.07.09.12.18.14.27.03.09.04.18.04.27,0,.09,0,.16,0,.23v.27s-.03,0-.08-.01c-.05,0-.13-.01-.22-.02-.09,0-.2-.01-.32-.01-.2,0-.41.01-.61.04-.21.03-.4.07-.59.14-.19.06-.37.15-.53.26-.16.11-.3.24-.41.4-.09.13-.16.26-.2.39-.05.13-.07.24-.09.35-.02.11-.02.19-.02.26,0,.11.01.23.04.37.03.14.07.27.14.41.07.14.15.27.27.38.12.12.26.21.44.29.17.08.38.12.63.13.26,0,.5-.02.7-.09.21-.06.39-.15.54-.27.15-.12.28-.26.39-.41v.31c0,.05,0,.1,0,.15,0,.05.03.1.07.14.03.03.07.05.12.07.05.01.09.02.13.02.04,0,.07,0,.09,0h.56Zm-6.14-2.15c0,.19-.02.36-.07.49-.05.13-.12.24-.21.33-.11.11-.24.18-.38.22-.14.04-.29.07-.44.07-.15,0-.29,0-.42,0h-1.03v-2.21h1.03c.16,0,.32,0,.48.02.16.01.3.04.44.09.13.05.25.12.34.22.08.09.15.2.19.33.05.12.07.27.07.44h0Zm-.26-3.06c0,.2-.04.37-.1.5-.07.13-.15.23-.26.3-.1.08-.21.13-.33.16-.11.03-.22.05-.31.06-.1,0-.17.01-.22,0h-1.07v-2.05h1.07s.1,0,.17,0c.07,0,.15.01.24.02.08.01.17.03.25.06.08.03.15.07.2.12.12.09.21.2.27.33.06.13.09.29.09.48h0Zm1.5,3.04c0-.14-.01-.27-.04-.41-.03-.14-.08-.27-.15-.39-.07-.13-.16-.24-.28-.35-.14-.13-.3-.23-.47-.29-.17-.07-.35-.11-.52-.14.12-.04.23-.09.35-.15.12-.06.22-.13.32-.2.1-.08.18-.16.25-.26.08-.14.15-.29.2-.47.05-.18.08-.38.08-.61,0-.26-.04-.5-.13-.7-.08-.2-.2-.37-.34-.51-.14-.14-.3-.24-.48-.32-.22-.1-.46-.17-.7-.2-.24-.03-.51-.05-.79-.05h-2.27v7.2h2.25c.17,0,.36,0,.55-.01.19-.01.38-.03.57-.07.19-.04.37-.1.55-.17.17-.08.33-.18.47-.31.15-.16.27-.32.36-.5.09-.18.14-.36.18-.55.03-.19.05-.37.05-.56h0Zm112.49,2.17v-3.58c0-.16,0-.32-.02-.48-.02-.16-.05-.31-.1-.45-.05-.14-.13-.28-.23-.41-.13-.19-.31-.32-.53-.41-.22-.09-.47-.13-.77-.13-.23,0-.43.04-.6.1-.17.06-.31.14-.43.23-.11.09-.2.18-.27.27-.06.09-.11.16-.13.21v-.7h-1.04v5.33h1.04v-3.28c0-.11,0-.23.02-.37.01-.13.05-.26.1-.39.05-.13.13-.24.24-.35.09-.08.19-.15.31-.19.11-.05.25-.07.41-.07.23,0,.41.04.55.11.13.07.23.17.29.29.06.12.1.26.12.41.02.15.02.3.02.47v3.37h1.02Zm-5.37,0v-5.33h-1.03v5.33h1.03Zm.09-6.7c0-.1-.03-.2-.08-.27-.05-.08-.12-.14-.22-.18-.09-.04-.2-.07-.31-.07-.12,0-.22.03-.31.08-.09.05-.16.11-.21.19-.05.08-.08.16-.08.25,0,.1.02.2.07.28.05.08.11.15.2.19.09.05.2.07.34.07.12,0,.23-.03.32-.07.09-.05.16-.11.21-.19.05-.08.08-.18.08-.28h0Zm-2.34,6.7v-3.56c0-.12,0-.26-.02-.41-.01-.15-.04-.3-.08-.44-.04-.15-.11-.29-.19-.43-.08-.14-.2-.25-.34-.36-.13-.09-.28-.16-.44-.2-.16-.04-.31-.06-.47-.06-.21,0-.4.03-.56.09-.16.06-.3.12-.42.21-.12.08-.21.17-.29.25-.08.09-.13.16-.17.23-.04.07-.06.11-.07.12,0-.03-.02-.08-.05-.15-.03-.07-.08-.15-.15-.24-.06-.09-.15-.17-.26-.25-.09-.06-.19-.11-.3-.15-.11-.04-.21-.07-.32-.08-.11-.02-.21-.02-.3-.02-.22,0-.42.03-.58.09-.17.06-.3.13-.42.22-.11.09-.2.18-.27.28-.07.09-.11.18-.13.25v-.72h-1.03v5.33h1.03v-3.27c0-.22.02-.4.05-.55.03-.14.08-.26.14-.35.05-.09.12-.16.18-.22.08-.08.16-.13.26-.18.1-.04.21-.07.34-.07.16,0,.29.02.38.06.1.04.18.08.24.15.08.07.14.15.19.25.05.09.08.21.1.34.02.13.03.29.03.47v3.37h1.01v-3.27c0-.12,0-.25.01-.38.01-.13.04-.26.09-.39.05-.13.13-.24.24-.35.08-.08.18-.14.29-.18.1-.04.21-.06.33-.06.13,0,.24.01.35.04.1.03.2.08.29.16.07.07.13.14.16.21.04.07.06.12.07.16.01.05.03.11.04.18.01.07.02.16.03.24,0,.09.01.18.01.27v3.37h1.01Zm-9.12-1.59c0,.13-.03.25-.09.34-.06.1-.14.19-.24.26-.1.07-.21.13-.34.18-.07.03-.14.05-.21.06-.07.01-.13.02-.19.02-.17,0-.33-.03-.47-.09-.14-.06-.25-.16-.33-.29-.08-.13-.13-.3-.13-.5,0-.05,0-.11,0-.16,0-.06.02-.11.03-.16.05-.16.14-.29.27-.4.13-.1.28-.18.47-.22.19-.05.4-.07.64-.07.11,0,.21,0,.29.01.09,0,.16.02.21.03.05,0,.08.01.08.02v.97h0Zm1.04,1.59v-3.5c0-.23-.01-.43-.04-.6-.03-.17-.07-.32-.14-.45-.06-.13-.16-.26-.28-.38-.16-.16-.37-.29-.63-.39-.27-.1-.59-.15-.98-.15-.23,0-.43.02-.61.06-.17.03-.32.08-.44.12-.12.05-.21.09-.27.12-.06.04-.09.05-.09.05l-.18.94s.03-.03.09-.07c.06-.05.14-.1.26-.16.12-.06.26-.12.43-.17.17-.05.37-.08.59-.08.28,0,.51.03.68.09.17.06.3.14.37.25.07.09.12.18.14.27.03.09.04.18.04.27,0,.09,0,.16,0,.23v.27s-.03,0-.08-.01c-.05,0-.12-.01-.22-.02-.09,0-.2-.01-.32-.01-.2,0-.41.01-.61.04-.21.03-.4.07-.59.14-.19.06-.37.15-.53.26-.16.11-.3.24-.41.4-.09.13-.16.26-.2.39-.05.13-.08.24-.09.35-.02.11-.02.19-.02.26,0,.11.01.23.04.37.03.14.07.27.14.41.06.14.15.27.27.38.12.12.26.21.44.29.17.08.38.12.63.13.26,0,.5-.02.7-.09.21-.06.39-.15.54-.27.15-.12.28-.26.39-.41v.31c0,.05,0,.1.01.15,0,.05.03.1.07.14.03.03.07.05.12.07.05.01.09.02.13.02.04,0,.07,0,.09,0h.56Zm-5.03-2.62v-4.58h-1.2v4.58c0,.16,0,.33-.01.5,0,.17-.03.34-.07.49-.03.16-.09.3-.16.43-.1.15-.23.27-.39.35-.16.08-.35.12-.56.12-.16,0-.31-.02-.44-.05-.14-.03-.26-.07-.37-.11-.1-.04-.19-.08-.25-.11-.06-.03-.09-.05-.1-.06l.26,1.04s.03.01.08.04c.05.03.12.06.22.09.1.03.22.07.35.09.14.03.29.04.47.04.07,0,.16,0,.28,0,.12,0,.25-.03.39-.06.14-.03.28-.08.43-.15.14-.07.27-.16.39-.27.12-.11.23-.24.31-.38.09-.14.16-.3.22-.49.06-.18.1-.4.12-.65.03-.25.04-.54.04-.87h0Zm31.16,2.62v-3.58c0-.16,0-.32-.02-.48-.02-.16-.05-.31-.1-.45-.05-.14-.13-.28-.23-.41-.13-.19-.31-.32-.53-.41-.22-.09-.47-.13-.77-.13-.23,0-.43.04-.6.1-.17.06-.31.14-.43.23-.11.09-.2.18-.27.27-.06.09-.11.16-.13.21v-.7h-1.04v5.33h1.04v-3.28c0-.11,0-.23.02-.37.01-.13.05-.26.1-.39.05-.13.13-.24.24-.35.09-.08.19-.15.31-.19.11-.05.25-.07.41-.07.23,0,.41.04.55.11.13.07.23.17.29.29.06.12.1.26.12.41.02.15.02.3.02.47v3.37h1.02Zm-6.35-1.59c0,.13-.03.25-.09.34-.06.1-.14.19-.24.26-.1.07-.22.13-.34.18-.07.03-.14.05-.21.06-.07.01-.14.02-.19.02-.17,0-.33-.03-.47-.09-.14-.06-.25-.16-.33-.29-.08-.13-.13-.3-.13-.5,0-.05,0-.11,0-.16,0-.06.02-.11.03-.16.05-.16.14-.29.27-.4.13-.1.28-.18.47-.22.19-.05.4-.07.64-.07.11,0,.21,0,.29.01.09,0,.16.02.21.03.05,0,.08.01.08.02v.97h0Zm1.04,1.59v-3.5c0-.23-.01-.43-.04-.6-.03-.17-.07-.32-.14-.45-.06-.13-.16-.26-.28-.38-.16-.16-.37-.29-.63-.39-.27-.1-.59-.15-.98-.15-.23,0-.43.02-.61.06-.17.03-.32.08-.44.12-.12.05-.21.09-.27.12-.06.04-.09.05-.09.05l-.19.94s.03-.03.09-.07c.06-.05.14-.1.26-.16.12-.06.26-.12.43-.17.17-.05.37-.08.59-.08.28,0,.51.03.68.09.17.06.3.14.37.25.07.09.12.18.14.27.03.09.04.18.04.27,0,.09,0,.16,0,.23v.27s-.03,0-.08-.01c-.05,0-.13-.01-.22-.02-.09,0-.2-.01-.31-.01-.2,0-.41.01-.61.04-.21.03-.4.07-.59.14-.19.06-.37.15-.53.26-.16.11-.3.24-.41.4-.09.13-.16.26-.2.39-.05.13-.07.24-.09.35-.02.11-.02.19-.02.26,0,.11.01.23.04.37.03.14.07.27.14.41.06.14.15.27.27.38.12.12.26.21.44.29.17.08.39.12.63.13.26,0,.5-.02.7-.09.21-.06.39-.15.54-.27.15-.12.28-.26.38-.41v.31c0,.05,0,.1,0,.15,0,.05.03.1.07.14.03.03.07.05.12.07.05.01.09.02.13.02.04,0,.07,0,.09,0h.56Zm32.51,0v-7.23h-1.01v7.23h1.01Zm-3.35-1.59c0,.13-.03.25-.09.34-.06.1-.14.19-.24.26-.1.07-.21.13-.34.18-.07.03-.14.05-.21.06-.07.01-.14.02-.19.02-.17,0-.33-.03-.47-.09-.14-.06-.25-.16-.33-.29-.08-.13-.13-.3-.13-.5,0-.05,0-.11,0-.16,0-.06.02-.11.03-.16.05-.16.14-.29.27-.4.13-.1.28-.18.47-.22.19-.05.4-.07.64-.07.11,0,.21,0,.29.01.09,0,.16.02.21.03.05,0,.08.01.08.02v.97h0Zm1.04,1.59v-3.5c0-.23-.01-.43-.04-.6-.03-.17-.07-.32-.14-.45-.06-.13-.16-.26-.28-.38-.16-.16-.37-.29-.63-.39-.27-.1-.59-.15-.98-.15-.23,0-.43.02-.61.06-.17.03-.32.08-.44.12-.12.05-.21.09-.27.12-.06.04-.09.05-.09.05l-.19.94s.03-.03.09-.07c.06-.05.14-.1.26-.16.11-.06.26-.12.43-.17.17-.05.37-.08.59-.08.28,0,.51.03.68.09.17.06.3.14.37.25.07.09.12.18.14.27.03.09.04.18.04.27,0,.09,0,.16,0,.23v.27s-.03,0-.08-.01c-.05,0-.13-.01-.22-.02-.09,0-.2-.01-.32-.01-.2,0-.41.01-.61.04-.21.03-.4.07-.59.14-.19.06-.37.15-.53.26-.16.11-.3.24-.41.4-.09.13-.16.26-.2.39-.05.13-.08.24-.09.35-.02.11-.02.19-.02.26,0,.11.01.23.04.37.03.14.07.27.14.41.06.14.15.27.27.38.12.12.26.21.44.29.17.08.39.12.63.13.26,0,.5-.02.7-.09.21-.06.39-.15.54-.27.15-.12.28-.26.39-.41v.31c0,.05,0,.1,0,.15,0,.05.03.1.07.14.03.03.07.05.12.07.05.01.09.02.13.02.04,0,.07,0,.09,0h.56Zm-5.15,0v-5.33h-1.03v5.33h1.03Zm.09-6.7c0-.1-.03-.2-.08-.27-.05-.08-.12-.14-.22-.18-.09-.04-.2-.07-.32-.07-.12,0-.22.03-.31.08-.09.05-.16.11-.21.19-.05.08-.08.16-.08.25,0,.1.02.2.07.28.05.08.11.15.2.19.09.05.2.07.33.07.12,0,.23-.03.32-.07.09-.05.16-.11.21-.19.05-.08.08-.18.08-.28h0Zm-2.12,5.19c0-.26-.06-.48-.17-.67-.11-.19-.26-.35-.46-.48-.19-.13-.41-.25-.65-.35-.12-.05-.24-.1-.37-.16-.12-.05-.24-.12-.35-.19-.11-.07-.19-.15-.26-.24-.07-.09-.1-.2-.1-.32,0-.22.08-.38.22-.5.15-.11.35-.17.62-.17.21,0,.4.02.56.05.16.04.29.09.4.14.11.06.19.1.24.15.05.04.08.06.08.07l-.15-.88s-.02-.02-.07-.06c-.05-.04-.13-.08-.23-.13-.11-.05-.25-.09-.42-.12-.17-.03-.39-.05-.64-.04-.23,0-.45.03-.65.09-.2.06-.38.15-.53.28-.15.12-.27.27-.36.45-.09.18-.13.39-.13.62,0,.24.05.45.13.62.08.17.19.32.33.43.14.12.29.22.45.31.16.08.33.16.49.23.16.07.32.15.45.22.14.08.25.17.33.27.08.1.13.23.13.38,0,.24-.08.42-.23.54-.15.12-.38.17-.7.17-.19,0-.37-.03-.55-.08-.18-.05-.34-.1-.48-.17-.14-.06-.26-.12-.34-.17-.08-.05-.13-.07-.13-.08l.15,1.01c.07.04.17.09.29.14.13.06.3.1.5.14.2.04.45.06.73.05.27,0,.53-.04.77-.12.24-.08.45-.2.64-.36.14-.12.26-.28.34-.46.08-.19.13-.41.13-.66h0Zm-5.37-1.11c0,.38-.04.71-.12.99-.08.28-.21.5-.37.66-.17.16-.38.24-.64.24-.29,0-.53-.07-.71-.2-.18-.14-.32-.34-.4-.62-.09-.28-.13-.64-.13-1.07,0-.26.01-.52.04-.76.03-.24.09-.46.18-.65.09-.19.21-.34.38-.45.16-.11.37-.17.64-.17.21,0,.38.05.52.13.14.08.25.19.33.33.08.14.14.29.18.47.04.17.07.35.08.54.01.19.02.38.02.56h0Zm1.1-.02c0-.29-.02-.58-.07-.85-.05-.27-.12-.53-.23-.76-.11-.23-.24-.44-.42-.62-.17-.18-.39-.32-.64-.42-.25-.1-.55-.15-.9-.16-.34,0-.64.05-.9.15-.26.1-.48.24-.66.41-.18.18-.33.38-.44.62-.11.24-.2.49-.25.77-.05.28-.08.56-.08.86,0,.41.04.78.12,1.11.08.33.21.62.4.86.18.24.42.42.72.55.3.13.66.19,1.08.2.36,0,.67-.07.95-.21.28-.14.52-.33.71-.58.19-.25.34-.54.44-.87.1-.33.15-.68.15-1.06h0Zm-5.32.56c0-.23-.04-.44-.1-.63-.07-.19-.17-.35-.3-.5-.14-.17-.29-.31-.47-.43-.18-.12-.36-.23-.55-.32-.19-.09-.38-.18-.57-.26-.19-.08-.36-.16-.52-.25-.16-.08-.3-.18-.41-.28-.07-.07-.12-.14-.16-.2-.04-.06-.07-.13-.08-.2-.02-.07-.02-.14-.02-.22,0-.14.03-.27.09-.4.06-.13.17-.25.32-.35.1-.07.23-.12.4-.15.16-.03.36-.05.6-.05.12,0,.24,0,.36.03.12.02.23.04.33.06.15.03.28.07.38.11.1.04.18.07.24.1.06.03.09.05.11.07l-.24-1.03s-.03-.02-.09-.05c-.06-.03-.15-.06-.27-.1-.12-.03-.28-.06-.47-.09-.19-.03-.42-.04-.69-.04-.21,0-.41.02-.62.05-.2.04-.4.1-.58.18-.19.08-.36.2-.52.34-.14.12-.26.26-.34.4-.09.14-.15.29-.19.44-.04.15-.06.3-.06.45,0,.17.02.34.05.5.03.16.09.31.17.46.1.16.21.3.36.42.14.12.31.23.48.32.18.09.36.19.55.27.19.09.38.18.56.28.19.1.36.21.52.34.1.08.19.16.26.24.07.08.12.17.16.27.03.1.05.21.05.34,0,.2-.04.37-.12.5-.08.14-.19.26-.35.36-.08.06-.17.1-.28.13-.11.03-.22.06-.33.07-.11.02-.21.02-.3.03-.09,0-.15,0-.18,0-.11,0-.22,0-.33-.02-.11-.01-.22-.03-.32-.05-.22-.04-.41-.09-.56-.13-.15-.04-.27-.08-.34-.11-.08-.03-.12-.04-.13-.05l.26,1.01s.04.02.1.05c.06.03.16.07.29.11.13.04.3.08.51.11.21.03.45.05.74.05.22,0,.45-.02.69-.05.24-.04.47-.1.7-.19.23-.09.43-.22.61-.39.18-.16.33-.37.44-.63.11-.25.16-.56.17-.92Z"/>
      <g>
        <g>
          <g>
            <path class="cls-4" d="m2.52,15.04c.44-3.05,3.5-3.88,3.79-6.66-1.38.61-3.03.42-4.24-.58-1.34,2.41-1.41,4.78.45,7.24Z"/>
            <path class="cls-4" d="m8.43,6.19c1.56-.23,2.9-1.33,4.18-2.41,1.77-1.5,4.24-3.35,6.59-3.17C15-.69,10.45.24,7.68,1.94c1.07,1.18,1.31,2.84.75,4.24Z"/>
            <path class="cls-4" d="m28.5,15.99c-.44,3.05-3.5,3.88-3.79,6.66,1.38-.61,3.03-.42,4.24.58,1.34-2.41,1.41-4.78-.45-7.24Z"/>
            <path class="cls-4" d="m22.59,24.84c-1.56.23-2.9,1.33-4.18,2.41-1.77,1.5-4.24,3.35-6.59,3.17,4.2,1.3,8.74.37,11.51-1.33-1.07-1.18-1.31-2.84-.75-4.24Z"/>
            <path class="cls-2" d="m15.99,2.52c3.05.44,3.87,3.5,6.66,3.79-.61-1.38-.42-3.03.58-4.24-2.41-1.34-4.78-1.41-7.24.45Z"/>
            <path class="cls-2" d="m24.84,8.43c.23,1.56,1.33,2.9,2.41,4.18,1.5,1.77,3.35,4.24,3.17,6.59,1.3-4.2.37-8.74-1.33-11.51-1.18,1.07-2.84,1.32-4.24.75Z"/>
            <path class="cls-2" d="m15.04,28.5c-3.05-.44-3.88-3.5-6.66-3.79.61,1.38.42,3.03-.58,4.24,2.41,1.34,4.78,1.41,7.24-.45Z"/>
            <path class="cls-2" d="m6.19,22.59c-.23-1.56-1.33-2.9-2.41-4.18-1.5-1.77-3.34-4.24-3.17-6.59-1.3,4.2-.37,8.74,1.33,11.51,1.18-1.07,2.84-1.31,4.24-.75Z"/>
          </g>
          <g>
            <g>
              <path class="cls-2" d="m28.76,2.26c1.3,1.3,1.3,3.4,0,4.7-1.3,1.3-3.4,1.3-4.7,0-1.3-1.3-1.3-3.4,0-4.7,1.3-1.3,3.4-1.3,4.7,0Z"/>
              <path class="cls-2" d="m6.96,24.07c1.3,1.3,1.3,3.4,0,4.7-1.3,1.3-3.4,1.3-4.7,0-1.3-1.3-1.3-3.4,0-4.7,1.3-1.3,3.4-1.3,4.7,0Z"/>
            </g>
            <g>
              <path class="cls-4" d="m28.76,28.76c-1.3,1.3-3.4,1.3-4.7,0-1.3-1.3-1.3-3.4,0-4.7,1.3-1.3,3.4-1.3,4.7,0s1.3,3.4,0,4.7Z"/>
              <path class="cls-4" d="m6.96,6.96c-1.3,1.3-3.4,1.3-4.7,0-1.3-1.3-1.3-3.4,0-4.7,1.3-1.3,3.4-1.3,4.7,0,1.3,1.3,1.3,3.4,0,4.7Z"/>
            </g>
          </g>
        </g>
        <g>
          <path class="cls-2" d="m14.1,18.31v1.17h2.83v-2.55l2.43,2.35c.2.19.19.3.19.49v.8s0,.02,0,.04h0s0,.03,0,.04h0s0,.03,0,.04h0s0,.02,0,.03h0s0,.03,0,.04h0s0,.03,0,.04h0s0,.03,0,.03h0s0,.03,0,.04h0s0,.03,0,.04h0s0,.03,0,.03h0s0,.03,0,.04h0s0,.02,0,.04h0s0,.03,0,.03h0s0,.03-.01.04h0s0,.03-.01.03h0s0,.02,0,.03h0s0,.03-.01.04h0s0,.02-.01.03h0s0,.02-.01.03h0s0,.03-.01.04h0s0,.02-.01.03h0s0,.02-.01.03h0s-.01.03-.02.04h0s0,.02-.01.03h0s0,.02-.01.03h0s0,.03-.02.03h0s0,.02-.01.03h0s-.01.02-.02.03c0,0,0,0-.01.01,0,0,0,.01-.01.02h0s0,.02-.01.02c0,0,0,0-.01.01,0,0-.01.01-.02.02,0,0,0,0-.01.01,0,0,0,0-.01.01h-.01s-.01.02-.01.02c0,0,0,0-.01.01h0s-.01.01-.02.02h0s0,0-.01.01c0,0,0,0-.01.01h-.01s-.01.02-.01.02c0,0-.02.01-.02.02h-.01s0,.02-.01.02h-.01s0,.02-.01.02c0,0,0,0-.01,0,0,0-.02.01-.03.02h0s-.01.01-.02.02h-.01s-.01.01-.02.02h-.01s-.02.02-.03.02h-.01s-.01.01-.02.02h-.01s-.01.01-.02.02h0s-.02.02-.03.02h-.01s-.02.01-.02.01c0,0,0,0-.01,0-.2.09-.41.14-.64.14h-3.91v1.17l-2.5-2.48,2.5-2.48h0Zm2.83-4.21h2.55v2.83h-1.17l2.48,2.5,2.48-2.5h-1.17v-3.91c0-.23-.05-.45-.14-.64,0,0,0,0,0-.01v-.02s-.01-.01-.01-.01c0-.01-.01-.02-.02-.03h0s0-.02,0-.02h0s0-.02,0-.03h0s-.01-.03-.02-.04h0s0-.02-.01-.03h0s0-.02-.01-.03h0s-.01-.03-.02-.04c0,0,0,0,0-.01,0,0,0,0-.01-.01h0s0-.02-.01-.03h0s-.01-.03-.02-.03h-.01s-.01-.02-.01-.02c0,0,0,0-.01-.01,0,0,0,0-.01-.01h0s-.01-.01-.02-.02h0s0,0-.01-.01h-.01s-.01-.02-.01-.02c0,0,0,0-.01-.01,0,0,0,0-.01-.01,0,0-.01-.01-.02-.02,0,0,0,0-.01,0,0,0,0,0-.01-.01h-.01s-.01-.02-.02-.02c0,0,0,0-.01-.01,0,0-.01-.01-.02-.01h-.01s0-.02-.01-.02h-.01s-.01-.02-.02-.02h-.01s-.01-.02-.02-.02h-.01s-.01-.02-.02-.02h-.01s-.02-.02-.03-.02h0s-.01-.01-.02-.02h-.01s-.01-.01-.02-.02h0s-.02-.02-.03-.02h0s-.01-.01-.02-.02h-.01s-.02-.01-.02-.02h0s-.02-.01-.03-.02h0s-.01,0-.02-.01h-.01s-.02-.01-.03-.01h0s-.02,0-.03-.01h-.01s-.01,0-.02-.01h0s-.02,0-.03-.01h0s-.02,0-.03,0h0s-.02,0-.03,0h0s-.02,0-.03,0h0s-.02,0-.03,0h-.01s-.02,0-.03,0h0s-.02,0-.03,0h0s-.02,0-.03,0h-.01s-.02,0-.03,0h0s-.02,0-.04,0h0s-.02,0-.03,0h-.01s-.02,0-.04,0h-.8c-.18,0-.29-.02-.49.19l-2.35,2.43h0Zm-2.83,2.83h-2.55v-2.83h1.17l-2.48-2.5-2.48,2.5h1.17v3.91c0,.23.05.45.14.64,0,0,0,0,0,.01v.02s.01.01.01.01c0,.01.01.02.02.03h0s0,.02,0,.02h0s0,.02,0,.03h0s.01.03.02.04h0s0,.02.01.03h0s0,.02.01.03h0s.01.03.02.04c0,0,0,0,0,.01,0,0,0,0,.01.01h0s0,.02.01.03h0s.01.03.02.04h.01s.01.02.01.02c0,0,0,0,.01.01,0,0,0,0,.01.01h0s.01.01.02.02h0s0,0,.01.01h.01s.01.02.01.02c0,0,0,0,.01.01,0,0,0,0,.01.01,0,0,.01.01.02.02,0,0,0,0,.01.01,0,0,0,0,.01.01h.01s.01.02.02.02c0,0,0,0,.01.01,0,0,.01.01.02.01h.01s0,.02.01.02h.01s.01.02.02.02h.01s.01.02.02.02h.01s.01.02.02.02h.01s.02.02.03.02h0s.01.01.02.02h.01s.01.01.02.02h0s.02.02.03.02h0s.01.01.02.02h0s.02.01.02.02h0s.02.01.03.02h0s.01.01.02.01h.01s.02.01.03.01h0s.02,0,.03.01h0s.02,0,.02.01h.01s.02,0,.03.01h0s.02,0,.03,0h0s.02,0,.03,0h0s.02,0,.03,0h0s.02,0,.03,0h.01s.02,0,.03,0h0s.02,0,.03,0h0s.02,0,.03,0h.01s.02,0,.03,0h0s.02,0,.04,0h0s.02,0,.03,0h.01s.02,0,.04,0h.8c.18,0,.29.02.49-.19l2.35-2.43h0Zm0-2.83l-2.43-2.35c-.21-.2-.19-.3-.19-.49v-.8s0-.02,0-.03h0s0-.03,0-.04h0s0-.03,0-.05h0s0-.02,0-.04h0s0-.03,0-.04h0s0-.03,0-.04h0s0-.03,0-.03h0s0-.03,0-.04h0s0-.03,0-.04h0s0-.03,0-.03h0s0-.03,0-.04h0s0-.02.01-.04h0s0-.02,0-.03h0s0-.03.01-.04h0s0-.02,0-.03h0s0-.03,0-.03h0s0-.03.01-.04h0s0-.02.01-.03h0s0-.02.01-.03h0s0-.03.01-.04h0s0-.02.01-.03h0s0-.02.01-.03h0s.01-.03.02-.04h0s0-.02.01-.03h0s0-.02.01-.03h0s0-.03.02-.03h0s0-.02.01-.03h0s.01-.02.01-.03c0,0,0,0,.01-.01,0,0,0-.01.01-.02h0s0-.02.01-.02c0,0,0,0,.01-.01,0,0,.01-.01.02-.02,0,0,0,0,.01-.01,0,0,0,0,.01-.01h.01s.01-.02.01-.02c0,0,0,0,.01-.01h0s.01-.01.02-.02h0s0,0,.01-.01c0,0,0,0,.01-.01h.01s.01-.02.01-.02c0,0,.02-.01.02-.02h.01s0-.02.01-.02h.01s0-.02.01-.02c0,0,0,0,.01,0,0,0,.02-.01.03-.02h0s.01-.01.02-.02h.01s.01-.01.02-.02h.01s.02-.02.03-.02h.01s.01-.01.02-.02h.01s.01-.01.02-.02h0s.02-.02.03-.02h.01s.02-.01.02-.01c0,0,0,0,.01,0,.2-.09.41-.14.64-.14h3.91v-1.17l2.5,2.48-2.5,2.48v-1.17h-2.83v2.55Z"/>
          <polygon class="cls-5" points="14.11 19.45 14.11 16.92 11.57 16.92 11.57 14.11 14.11 14.11 14.11 11.57 16.92 11.57 16.92 14.11 19.45 14.11 19.45 16.92 16.92 16.92 16.92 19.45 14.11 19.45"/>
        </g>
      </g>
    </g>
  </g>
</svg>