<svg width="60" height="60" viewBox="0 0 60 60" fill="none" xmlns="http://www.w3.org/2000/svg">
<g clip-path="url(#clip0_862_8877)">
<path d="M26.6548 27.6765L23.2149 20.7212L21.9777 23.0145H12.5782C12.3368 23.0145 12.1406 22.8183 12.1406 22.5769C12.1406 22.3355 12.3368 22.1394 12.5782 22.1394H21.4647L23.2601 18.8051L26.6699 25.7L31.5582 15.9233L34.6361 21.9282L44.971 22.0338C45.2124 22.0338 45.4086 22.2299 45.4086 22.4864C45.4086 22.7278 45.2124 22.9239 44.971 22.9239L34.108 22.8183L31.5884 17.8847L26.685 27.6916L26.6548 27.6765Z" fill="#023F87"/>
<path d="M28.8274 14.113H28.6916C21.872 6.358 13.423 14.113 15.3542 19.9669L15.5051 19.9066C15.3844 19.3936 15.309 18.8655 15.2939 18.3224C15.1883 14.8372 18.2963 11.4878 21.691 11.1257C24.2106 10.8541 26.6699 12.0158 28.5105 14.2639H28.9783C29.3554 13.7509 29.8232 13.2832 30.3663 12.8758C34.108 10.0846 37.3518 10.8239 39.962 13.0719C41.9535 14.807 42.6324 17.568 42.044 19.9217L42.1798 19.982C44.111 14.113 35.6469 6.37309 28.8425 14.1281L28.8274 14.113Z" fill="#023F87"/>
<path d="M42.4365 20.5704L41.5162 20.1781L41.6067 19.816C42.1951 17.4473 41.4407 14.9276 39.6755 13.4038C36.8239 10.9295 33.7763 10.8691 30.6381 13.2228C30.1704 13.5698 29.763 13.962 29.4311 14.3996V14.6862H28.3146L28.1788 14.5354C26.3985 12.3628 24.1052 11.2916 21.7364 11.548C18.4926 11.8951 15.626 15.1087 15.7316 18.2922C15.7467 18.7901 15.8221 19.303 15.9278 19.7858L16.0183 20.1479L15.0828 20.5402L14.932 20.0876C13.906 16.9796 15.5506 13.2378 18.7491 11.3972C22.0382 9.49615 25.7648 10.2807 28.7672 13.5094C31.7696 10.2807 35.4962 9.49615 38.7853 11.3972C41.9839 13.2378 43.6133 16.9796 42.6025 20.0876L42.4516 20.5402L42.4365 20.5704Z" fill="#023F87"/>
<path d="M28.7523 36.1257L17.4668 24.7497L18.0854 24.1311L28.7523 34.8885L39.5851 24.1311L40.2037 24.7497L28.7523 36.1257Z" fill="#023F87"/>
<path d="M49.7689 5H9.31925C7.49366 5 6 6.49366 6 8.33434V44.4538C6 46.2945 7.49366 47.7882 9.31925 47.7882H27.7713V53.2348H24.2408V55H37.0652V53.2348H34.2891V47.7882H49.799C51.6246 47.7882 53.1183 46.2945 53.1183 44.4538V8.33434C53.1183 6.49366 51.6246 5 49.799 5H49.7689ZM9.31925 6.76524H49.784C50.6439 6.76524 51.338 7.47435 51.338 8.33434V39.3241H7.76524V8.33434C7.76524 7.47435 8.45926 6.76524 9.31925 6.76524ZM31.7242 44.4538V42.9753H30.306V44.4538C30.0495 44.2426 29.8986 43.9107 29.8986 43.5486C29.8986 42.8998 30.3965 42.3718 31.0151 42.3718C31.6337 42.3718 32.1316 42.8998 32.1316 43.5486C32.1316 43.9107 31.9656 44.2426 31.7242 44.4538ZM7.76524 44.4538V41.0893H29.446C28.6614 41.6174 28.1334 42.5226 28.1334 43.5486C28.1334 44.5745 28.6614 45.4798 29.446 46.0078H9.31925C8.45926 46.0078 7.76524 45.2987 7.76524 44.4387V44.4538ZM32.5088 53.2348H29.5214V47.7882H32.5088V53.2348ZM49.784 46.0078H32.5842C33.3687 45.4798 33.8968 44.5745 33.8968 43.5486C33.8968 42.5226 33.3687 41.6174 32.5842 41.0893H51.338V44.4538C51.338 45.3138 50.6439 46.0229 49.784 46.0229V46.0078Z" fill="#023F87"/>
</g>
<defs>
<clipPath id="clip0_862_8877">
<rect width="47.0881" height="50" fill="white" transform="translate(6 5)"/>
</clipPath>
</defs>
</svg>
