<svg width="60" height="60" viewBox="0 0 60 60" fill="none" xmlns="http://www.w3.org/2000/svg">
<g clip-path="url(#clip0_862_8938)">
<path d="M36.9971 25.6814C31.4594 25.6814 26.9663 30.1459 26.9663 35.6407C26.9663 41.1354 31.4737 45.5999 36.9971 45.5999C42.5205 45.5999 47.0279 41.1354 47.0279 35.6407C47.0279 30.1459 42.5205 25.6814 36.9971 25.6814ZM36.9971 43.983C32.3609 43.983 28.5833 40.2483 28.5833 35.6407C28.5833 31.0331 32.3609 27.2983 36.9971 27.2983C41.6333 27.2983 45.411 31.0331 45.411 35.6407C45.411 40.2483 41.6333 43.983 36.9971 43.983Z" fill="#023F87"/>
<path d="M36.9974 30.2173C33.9781 30.2173 31.5312 32.6499 31.5312 35.6548C31.5312 38.6598 33.9781 41.0924 36.9974 41.0924C40.0167 41.0924 42.4636 38.6598 42.4636 35.6548C42.4636 32.6499 40.0167 30.2173 36.9974 30.2173ZM36.9974 39.4468C34.8796 39.4468 33.1482 37.744 33.1482 35.6405C33.1482 33.537 34.8653 31.8342 36.9974 31.8342C39.1295 31.8342 40.8466 33.537 40.8466 35.6405C40.8466 37.744 39.1295 39.4468 36.9974 39.4468Z" fill="#023F87"/>
<path d="M22.4162 19.4854C22.8598 19.4854 23.2318 19.1277 23.2318 18.6698V11.8156C23.2318 11.372 22.8741 11 22.4162 11C21.9583 11 21.6006 11.3577 21.6006 11.8156V18.6698C21.6006 19.1134 21.9583 19.4854 22.4162 19.4854Z" fill="#023F87"/>
<path d="M25.8218 19.2422L30.6869 14.3913C31.0017 14.0765 31.0017 13.5614 30.6869 13.2466C30.3721 12.9318 29.857 12.9318 29.5422 13.2466L24.677 18.0975C24.3622 18.4123 24.3622 18.9274 24.677 19.2422C25.0061 19.5713 25.507 19.557 25.8218 19.2422Z" fill="#023F87"/>
<path d="M18.9963 19.2422C19.3111 19.557 19.8262 19.557 20.141 19.2422C20.4558 18.9274 20.4558 18.4123 20.141 18.0975L15.2759 13.2466C14.9611 12.9318 14.4459 12.9318 14.1311 13.2466C13.8163 13.5614 13.8163 14.0765 14.1311 14.3913L18.9963 19.2422Z" fill="#023F87"/>
<path d="M52.8663 32.421C52.208 32.421 51.5927 32.6213 51.0919 32.9791C49.8041 26.1678 43.7799 21.4028 37.0116 21.4028H26.852C26.4084 21.4028 26.0363 21.7606 26.0363 22.2185C26.0363 26.0677 19.6973 26.082 19.6973 22.2185C19.6973 21.7749 19.3396 21.4028 18.8817 21.4028H6.41827C5.08751 21.4028 4 22.476 4 23.8068V33.7804C4 35.1111 5.08751 36.1843 6.41827 36.1843H22.6736C22.9741 44.0258 29.6566 50.279 37.7843 49.8497C44.4095 49.5063 49.9472 44.498 51.1205 38.1304C51.6214 38.4738 52.2223 38.6598 52.8806 38.6598C54.612 38.6598 56.0143 37.2575 56.0143 35.5261C56.0143 33.7947 54.612 32.3924 52.8806 32.3924L52.8663 32.421ZM49.7039 36.3274C49.3605 42.6665 44.0947 47.9037 37.6984 48.2471C30.3577 48.6334 24.2906 42.8668 24.2906 35.6549C24.2906 35.5977 24.2906 35.5261 24.2906 35.4689C24.3049 35.2399 24.2334 35.011 24.0759 34.8536C23.9185 34.6819 23.7039 34.596 23.475 34.596H6.41827C5.98899 34.596 5.63126 34.2383 5.63126 33.809V23.8354C5.63126 23.4061 5.98899 23.0484 6.41827 23.0484H18.1519C19.0534 27.9851 26.6802 27.9851 27.5817 23.0484H37.0116C44.2807 23.0484 50.1046 29.0726 49.7039 36.3417V36.3274ZM52.8663 37.0572C52.0363 37.0572 51.3495 36.3847 51.3495 35.5547C51.3495 34.7248 52.022 34.0523 52.8663 34.0523C53.7105 34.0523 54.383 34.7248 54.383 35.5547C54.383 36.3847 53.6962 37.0572 52.8663 37.0572Z" fill="#023F87"/>
</g>
<defs>
<clipPath id="clip0_862_8938">
<rect width="52" height="38.8784" fill="white" transform="translate(4 11)"/>
</clipPath>
</defs>
</svg>
